<svg viewBox="0 0 1424 256" fill="none" xmlns="http://www.w3.org/2000/svg">
<path d="M107.393 154.529H169.482L159.355 58.2402L107.393 154.529ZM142.92 2.29297H200.693L235.391 247H179.941L174.795 196.697H84.6484L57.0898 247H3.63281L142.92 2.29297ZM456.191 154.197C450.215 182.309 438.594 205.607 421.328 224.09C404.173 242.573 383.698 251.814 359.902 251.814C344.961 251.814 333.617 248.826 325.869 242.85C321.221 239.308 316.683 233.11 312.256 224.256L307.441 247H261.123L312.92 2.625H360.068L341.641 89.6172C349.388 81.2057 357.357 74.7865 365.547 70.3594C375.176 64.8255 386.576 62.0586 399.746 62.0586C423.542 62.0586 440.309 70.6361 450.049 87.791C459.899 104.946 461.947 127.081 456.191 154.197ZM405.557 159.178C408.324 146.339 408.932 135.714 407.383 127.303C404.395 111.365 394.434 103.396 377.5 103.396C360.345 103.396 346.898 111.199 337.158 126.805C332.067 135.105 328.138 145.841 325.371 159.012C322.051 174.507 322.715 187.345 327.363 197.527C332.122 207.71 341.53 212.801 355.586 212.801C367.76 212.801 378.275 207.876 387.129 198.025C395.983 188.175 402.126 175.226 405.557 159.178ZM613.906 156.854C617.78 138.702 617.005 124.757 611.582 115.018C606.27 105.167 596.696 100.242 582.861 100.242C569.027 100.242 557.35 105.167 547.832 115.018C538.314 124.757 531.618 138.702 527.744 156.854C523.87 175.005 524.59 189.005 529.902 198.855C535.326 208.706 544.954 213.631 558.789 213.631C572.624 213.631 584.3 208.706 593.818 198.855C603.337 189.005 610.033 175.005 613.906 156.854ZM550.488 253.309C519.388 253.309 498.193 243.901 486.904 225.086C475.726 206.16 472.959 183.416 478.604 156.854C484.137 130.734 496.589 108.1 515.957 88.9531C535.326 69.806 560.56 60.2324 591.66 60.2324C622.76 60.2324 643.9 69.806 655.078 88.9531C666.257 108.1 669.079 130.734 663.545 156.854C657.9 183.416 645.394 206.16 626.025 225.086C606.768 243.901 581.589 253.309 550.488 253.309ZM763.984 66.043L740.908 175.115C738.695 185.408 738.252 193.156 739.58 198.357C741.904 207.544 749.375 212.137 761.992 212.137C778.151 212.137 790.602 205.607 799.346 192.547C803.994 185.464 807.536 176.111 809.971 164.49L830.889 66.043H878.867L840.518 247H794.531L799.844 221.434C799.29 221.987 797.852 223.647 795.527 226.414C793.203 229.181 790.602 231.616 787.725 233.719C778.87 240.359 770.68 244.897 763.154 247.332C755.739 249.767 747.383 250.984 738.086 250.984C711.302 250.984 695.309 241.355 690.107 222.098C687.23 211.473 688.005 195.812 692.432 175.115L715.508 66.043H763.984ZM898.623 101.404L905.762 67.7031H930.996L941.787 17.2344H988.604L977.812 67.7031H1007.2L1000.06 101.404H970.674L950.254 197.029C948.704 204.445 948.649 209.093 950.088 210.975C951.637 212.745 957.227 213.631 966.855 213.631C968.294 213.631 969.788 213.631 971.338 213.631C972.998 213.52 974.658 213.41 976.318 213.299L968.682 248.66L946.104 249.49C923.636 250.265 909.193 246.391 902.773 237.869C898.678 232.446 897.793 224.09 900.117 212.801L923.857 101.404H898.623ZM1055.34 2.29297H1107.3L1075.26 152.703C1071.72 169.526 1071.11 181.811 1073.44 189.559C1076.76 203.283 1088.82 210.145 1109.63 210.145C1130.33 210.145 1145.21 203.283 1154.29 189.559C1159.93 181.811 1164.52 169.526 1168.07 152.703L1200.11 2.29297H1252.07L1220.03 152.703C1214.5 178.712 1206.14 198.966 1194.96 213.465C1174.26 240.027 1142.72 253.309 1100.33 253.309C1057.94 253.309 1031.99 240.027 1022.47 213.465C1017.49 198.966 1017.77 178.712 1023.3 152.703L1055.34 2.29297ZM1294.24 189.227C1293.46 197.638 1294.4 203.615 1297.06 207.156C1301.49 213.465 1311.61 216.619 1327.44 216.619C1336.74 216.619 1344.43 215.236 1350.52 212.469C1356.6 209.702 1360.26 205.551 1361.47 200.018C1362.58 194.705 1361.2 190.665 1357.32 187.898C1353.45 185.132 1338.01 180.372 1311.01 173.621C1291.64 168.53 1278.58 162.166 1271.83 154.529C1264.96 147.003 1263.08 136.157 1266.18 121.99C1269.72 105.278 1279.3 90.9453 1294.9 78.9922C1310.62 66.9284 1330.37 60.8965 1354.17 60.8965C1376.75 60.8965 1394.18 65.4342 1406.46 74.5098C1418.75 83.4746 1423.62 99.0247 1421.07 121.16H1373.76C1374.31 115.073 1373.59 110.258 1371.6 106.717C1367.73 100.298 1359.54 97.0879 1347.03 97.0879C1336.74 97.0879 1329.05 98.6927 1323.96 101.902C1318.97 105.112 1316.04 108.875 1315.16 113.191C1313.94 118.615 1315.43 122.544 1319.64 124.979C1323.73 127.524 1339.23 131.896 1366.12 138.094C1383.94 142.521 1396.61 149.217 1404.14 158.182C1411.56 167.257 1413.82 178.602 1410.95 192.215C1407.07 210.145 1397.28 224.809 1381.56 236.209C1365.85 247.498 1344.04 253.143 1316.15 253.143C1287.71 253.143 1267.95 247.166 1256.88 235.213C1245.93 223.149 1242.39 207.82 1246.26 189.227H1294.24Z" fill="white"/>
<path d="M107.393 154.529L105.633 153.579L104.041 156.529H107.393V154.529ZM169.482 154.529V156.529H171.704L171.471 154.32L169.482 154.529ZM159.355 58.2402L161.344 58.031L160.668 51.5971L157.595 57.2904L159.355 58.2402ZM142.92 2.29297V0.292969H141.757L141.182 1.30361L142.92 2.29297ZM200.693 2.29297L202.674 2.0122L202.43 0.292969H200.693V2.29297ZM235.391 247V249H237.694L237.371 246.719L235.391 247ZM179.941 247L177.952 247.204L178.136 249H179.941V247ZM174.795 196.697L176.785 196.494L176.601 194.697H174.795V196.697ZM84.6484 196.697V194.697H83.4637L82.8944 195.736L84.6484 196.697ZM57.0898 247V249H58.2746L58.8439 247.961L57.0898 247ZM3.63281 247L1.89466 246.011L0.19312 249H3.63281V247ZM107.393 156.529H169.482V152.529H107.393V156.529ZM171.471 154.32L161.344 58.031L157.366 58.4494L167.493 154.738L171.471 154.32ZM157.595 57.2904L105.633 153.579L109.153 155.479L161.116 59.1901L157.595 57.2904ZM142.92 4.29297H200.693V0.292969H142.92V4.29297ZM198.713 2.57374L233.41 247.281L237.371 246.719L202.674 2.0122L198.713 2.57374ZM235.391 245H179.941V249H235.391V245ZM181.931 246.796L176.785 196.494L172.805 196.901L177.952 247.204L181.931 246.796ZM174.795 194.697H84.6484V198.697H174.795V194.697ZM82.8944 195.736L55.3358 246.039L58.8439 247.961L86.4025 197.658L82.8944 195.736ZM57.0898 245H3.63281V249H57.0898V245ZM5.37097 247.989L144.658 3.28232L141.182 1.30361L1.89466 246.011L5.37097 247.989ZM456.191 154.197L458.148 154.613L458.148 154.613L456.191 154.197ZM421.328 224.09L419.867 222.725L419.862 222.729L421.328 224.09ZM325.869 242.85L327.091 241.266L327.081 241.259L325.869 242.85ZM312.256 224.256L314.045 223.361L311.485 218.241L310.299 223.842L312.256 224.256ZM307.441 247V249H309.062L309.398 247.414L307.441 247ZM261.123 247L259.167 246.585L258.655 249H261.123V247ZM312.92 2.625V0.625H311.299L310.963 2.2103L312.92 2.625ZM360.068 2.625L362.025 3.03947L362.536 0.625H360.068V2.625ZM341.641 89.6172L339.684 89.2027L338.173 96.3336L343.112 90.9721L341.641 89.6172ZM365.547 70.3594L366.498 72.1188L366.521 72.1064L366.543 72.0934L365.547 70.3594ZM450.049 87.791L448.31 88.7785L448.314 88.7869L450.049 87.791ZM405.557 159.178L403.602 158.756L403.601 158.76L405.557 159.178ZM407.383 127.303L409.35 126.94L409.349 126.934L407.383 127.303ZM337.158 126.805L335.462 125.746L335.457 125.752L335.453 125.759L337.158 126.805ZM325.371 159.012L327.327 159.431L327.328 159.423L325.371 159.012ZM327.363 197.527L325.544 198.358L325.548 198.366L325.551 198.374L327.363 197.527ZM387.129 198.025L385.641 196.688L387.129 198.025ZM454.235 153.781C448.324 181.587 436.852 204.542 419.867 222.725L422.79 225.455C440.336 206.672 452.106 183.031 458.148 154.613L454.235 153.781ZM419.862 222.729C403.06 240.832 383.105 249.814 359.902 249.814V253.814C384.29 253.814 405.286 244.314 422.794 225.45L419.862 222.729ZM359.902 249.814C345.182 249.814 334.346 246.863 327.091 241.266L324.648 244.433C332.887 250.789 344.74 253.814 359.902 253.814V249.814ZM327.081 241.259C322.789 237.988 318.418 232.107 314.045 223.361L310.467 225.15C314.948 234.113 319.652 240.627 324.657 244.44L327.081 241.259ZM310.299 223.842L305.485 246.586L309.398 247.414L314.213 224.67L310.299 223.842ZM307.441 245H261.123V249H307.441V245ZM263.08 247.415L314.876 3.0397L310.963 2.2103L259.167 246.585L263.08 247.415ZM312.92 4.625H360.068V0.625H312.92V4.625ZM358.112 2.21053L339.684 89.2027L343.597 90.0317L362.025 3.03947L358.112 2.21053ZM343.112 90.9721C350.742 82.6876 358.541 76.4199 366.498 72.1188L364.596 68.6C356.173 73.1531 348.034 79.7239 340.17 88.2622L343.112 90.9721ZM366.543 72.0934C375.817 66.7637 386.86 64.0586 399.746 64.0586V60.0586C386.291 60.0586 374.534 62.8873 364.55 68.6253L366.543 72.0934ZM399.746 64.0586C422.997 64.0586 439.004 72.3884 448.31 88.7785L451.788 86.8036C441.614 68.8837 424.086 60.0586 399.746 60.0586V64.0586ZM448.314 88.7869C457.836 105.37 459.929 126.955 454.235 153.782L458.148 154.613C463.964 127.208 461.962 104.522 451.783 86.7951L448.314 88.7869ZM407.512 159.599C410.308 146.627 410.966 135.712 409.35 126.94L405.416 127.665C406.899 135.716 406.34 146.052 403.602 158.756L407.512 159.599ZM409.349 126.934C407.791 118.626 404.367 112.169 398.92 107.811C393.484 103.462 386.272 101.396 377.5 101.396V105.396C385.662 105.396 391.897 107.315 396.422 110.935C400.936 114.546 403.987 120.042 405.417 127.671L409.349 126.934ZM377.5 101.396C359.597 101.396 345.535 109.606 335.462 125.746L338.855 127.864C348.261 112.793 361.093 105.396 377.5 105.396V101.396ZM335.453 125.759C330.206 134.314 326.211 145.285 323.414 158.601L327.328 159.423C330.065 146.397 333.928 135.897 338.863 127.85L335.453 125.759ZM323.415 158.593C320.041 174.338 320.656 187.652 325.544 198.358L329.183 196.697C324.773 187.038 324.06 174.675 327.327 159.431L323.415 158.593ZM325.551 198.374C328.103 203.833 331.936 207.981 337.036 210.741C342.11 213.487 348.326 214.801 355.586 214.801V210.801C348.789 210.801 343.274 209.569 338.94 207.223C334.633 204.893 331.383 201.404 329.175 196.68L325.551 198.374ZM355.586 214.801C368.381 214.801 379.42 209.593 388.616 199.362L385.641 196.688C377.129 206.158 367.139 210.801 355.586 210.801V214.801ZM388.616 199.362C397.754 189.197 404.026 175.905 407.512 159.596L403.601 158.76C400.226 174.547 394.212 187.154 385.641 196.688L388.616 199.362ZM611.582 115.018L609.822 115.967L609.828 115.979L609.835 115.991L611.582 115.018ZM547.832 115.018L549.262 116.415L549.27 116.407L547.832 115.018ZM529.902 198.855L528.142 199.805L528.146 199.812L528.15 199.82L529.902 198.855ZM593.818 198.855L592.38 197.466L593.818 198.855ZM486.904 225.086L485.182 226.103L485.189 226.115L486.904 225.086ZM478.604 156.854L480.56 157.269L480.56 157.268L478.604 156.854ZM515.957 88.9531L514.551 87.5308L515.957 88.9531ZM655.078 88.9531L656.805 87.9448L655.078 88.9531ZM663.545 156.854L665.501 157.269L665.501 157.268L663.545 156.854ZM626.025 225.086L627.423 226.516L627.423 226.516L626.025 225.086ZM615.862 157.271C619.775 138.939 619.101 124.41 613.329 114.045L609.835 115.991C614.909 125.104 615.785 138.466 611.95 156.436L615.862 157.271ZM613.342 114.068C607.593 103.408 597.226 98.2422 582.861 98.2422V102.242C596.166 102.242 604.946 106.927 609.822 115.967L613.342 114.068ZM582.861 98.2422C568.491 98.2422 556.293 103.383 546.394 113.628L549.27 116.407C558.407 106.951 569.563 102.242 582.861 102.242V98.2422ZM546.402 113.62C536.539 123.711 529.713 138.045 525.788 156.436L529.7 157.271C533.523 139.36 540.088 125.803 549.262 116.415L546.402 113.62ZM525.788 156.436C521.876 174.768 522.497 189.338 528.142 199.805L531.663 197.906C526.683 188.673 525.865 175.241 529.7 157.271L525.788 156.436ZM528.15 199.82C534.011 210.466 544.424 215.631 558.789 215.631V211.631C545.485 211.631 536.64 206.946 531.654 197.891L528.15 199.82ZM558.789 215.631C573.16 215.631 585.357 210.49 595.257 200.245L592.38 197.466C583.243 206.922 572.088 211.631 558.789 211.631V215.631ZM595.257 200.245C605.112 190.046 611.937 175.662 615.862 157.271L611.95 156.436C608.128 174.347 601.561 187.964 592.38 197.466L595.257 200.245ZM550.488 251.309C519.767 251.309 499.407 242.036 488.619 224.057L485.189 226.115C496.98 245.766 519.009 255.309 550.488 255.309V251.309ZM488.626 224.069C477.759 205.67 474.994 183.462 480.56 157.269L476.647 156.438C470.924 183.37 473.693 206.65 485.182 226.103L488.626 224.069ZM480.56 157.268C486.011 131.539 498.267 109.254 517.363 90.3754L514.551 87.5308C494.91 106.947 482.264 129.929 476.647 156.439L480.56 157.268ZM517.363 90.3754C536.303 71.6517 561.005 62.2324 591.66 62.2324V58.2324C560.114 58.2324 534.348 67.9602 514.551 87.5308L517.363 90.3754ZM591.66 62.2324C622.369 62.2324 642.667 71.6615 653.351 89.9615L656.805 87.9448C645.132 67.9504 623.152 58.2324 591.66 58.2324V62.2324ZM653.351 89.9615C664.23 108.595 667.041 130.701 661.588 156.439L665.501 157.268C671.116 130.767 668.284 107.605 656.805 87.9448L653.351 89.9615ZM661.589 156.438C656.026 182.616 643.713 205.006 624.628 223.655L627.423 226.516C647.075 207.314 659.775 184.217 665.501 157.269L661.589 156.438ZM624.628 223.655C605.802 242.049 581.154 251.309 550.488 251.309V255.309C582.023 255.309 607.733 245.754 627.423 226.516L624.628 223.655ZM763.984 66.043L765.941 66.4569L766.452 64.043H763.984V66.043ZM740.908 175.115L742.864 175.536L742.865 175.529L740.908 175.115ZM739.58 198.357L741.519 197.867L741.518 197.863L739.58 198.357ZM799.346 192.547L801.008 193.66L801.013 193.652L801.018 193.644L799.346 192.547ZM809.971 164.49L808.014 164.075L808.013 164.08L809.971 164.49ZM830.889 66.043V64.043H829.269L828.932 65.6273L830.889 66.043ZM878.867 66.043L880.824 66.4576L881.335 64.043H878.867V66.043ZM840.518 247V249H842.138L842.474 247.415L840.518 247ZM794.531 247L792.573 246.593L792.073 249H794.531V247ZM799.844 221.434L801.802 221.84L803.164 215.285L798.43 220.019L799.844 221.434ZM795.527 226.414L793.996 225.128L795.527 226.414ZM787.725 233.719L786.545 232.104L786.535 232.111L786.525 232.119L787.725 233.719ZM763.154 247.332L762.539 245.429L762.53 245.432L763.154 247.332ZM690.107 222.098L692.038 221.576L692.038 221.575L690.107 222.098ZM692.432 175.115L694.387 175.534L694.388 175.529L692.432 175.115ZM715.508 66.043V64.043H713.887L713.551 65.629L715.508 66.043ZM762.028 65.629L738.952 174.701L742.865 175.529L765.941 66.4569L762.028 65.629ZM738.953 174.695C736.725 185.053 736.194 193.182 737.642 198.852L741.518 197.863C740.309 193.13 740.664 185.763 742.863 175.536L738.953 174.695ZM737.641 198.848C738.92 203.901 741.662 207.803 745.879 210.396C750.038 212.953 755.467 214.137 761.992 214.137V210.137C755.9 210.137 751.285 209.024 747.974 206.988C744.72 204.988 742.565 202 741.519 197.867L737.641 198.848ZM761.992 214.137C778.796 214.137 791.881 207.292 801.008 193.66L797.684 191.434C789.324 203.921 777.506 210.137 761.992 210.137V214.137ZM801.018 193.644C805.847 186.286 809.461 176.675 811.928 164.9L808.013 164.08C805.611 175.547 802.142 184.641 797.674 191.45L801.018 193.644ZM811.927 164.906L832.845 66.4586L828.932 65.6273L808.014 164.075L811.927 164.906ZM830.889 68.043H878.867V64.043H830.889V68.043ZM876.911 65.6283L838.561 246.585L842.474 247.415L880.824 66.4576L876.911 65.6283ZM840.518 245H794.531V249H840.518V245ZM796.489 247.407L801.802 221.84L797.886 221.027L792.573 246.593L796.489 247.407ZM798.43 220.019C797.8 220.649 796.294 222.392 793.996 225.128L797.059 227.7C799.409 224.902 800.781 223.325 801.258 222.848L798.43 220.019ZM793.996 225.128C791.774 227.773 789.29 230.097 786.545 232.104L788.905 235.334C791.914 233.134 794.632 230.589 797.059 227.7L793.996 225.128ZM786.525 232.119C777.782 238.676 769.789 243.083 762.539 245.429L763.77 249.235C771.572 246.711 779.959 242.043 788.925 235.319L786.525 232.119ZM762.53 245.432C755.351 247.789 747.21 248.984 738.086 248.984V252.984C747.555 252.984 756.127 251.744 763.778 249.232L762.53 245.432ZM738.086 248.984C724.908 248.984 714.613 246.612 707.035 242.049C699.513 237.521 694.515 230.744 692.038 221.576L688.177 222.619C690.902 232.709 696.501 240.376 704.972 245.476C713.387 250.542 724.48 252.984 738.086 252.984V248.984ZM692.038 221.575C689.29 211.427 689.976 196.156 694.387 175.534L690.476 174.697C686.033 195.468 685.17 211.518 688.177 222.62L692.038 221.575ZM694.388 175.529L717.465 66.4569L713.551 65.629L690.475 174.701L694.388 175.529ZM715.508 68.043H763.984V64.043H715.508V68.043ZM898.623 101.404L896.666 100.99L896.155 103.404H898.623V101.404ZM905.762 67.7031V65.7031H904.141L903.805 67.2887L905.762 67.7031ZM930.996 67.7031V69.7031H932.614L932.952 68.1213L930.996 67.7031ZM941.787 17.2344V15.2344H940.17L939.831 16.8162L941.787 17.2344ZM988.604 17.2344L990.559 17.6526L991.076 15.2344H988.604V17.2344ZM977.812 67.7031L975.857 67.2849L975.34 69.7031H977.812V67.7031ZM1007.2 67.7031L1009.15 68.1176L1009.67 65.7031H1007.2V67.7031ZM1000.06 101.404V103.404H1001.68L1002.02 101.819L1000.06 101.404ZM970.674 101.404V99.4043H969.056L968.718 100.987L970.674 101.404ZM950.254 197.029L948.298 196.612L948.296 196.62L950.254 197.029ZM950.088 210.975L948.499 212.19L948.539 212.242L948.583 212.292L950.088 210.975ZM971.338 213.631V215.631H971.404L971.471 215.626L971.338 213.631ZM976.318 213.299L978.273 213.721L978.834 211.127L976.185 211.303L976.318 213.299ZM968.682 248.66L968.755 250.659L970.308 250.602L970.637 249.082L968.682 248.66ZM946.104 249.49L946.172 251.489L946.177 251.489L946.104 249.49ZM902.773 237.869L904.371 236.666L904.37 236.664L902.773 237.869ZM900.117 212.801L898.161 212.384L898.158 212.397L900.117 212.801ZM923.857 101.404L925.813 101.821L926.329 99.4043H923.857V101.404ZM900.58 101.819L907.718 68.1176L903.805 67.2887L896.666 100.99L900.58 101.819ZM905.762 69.7031H930.996V65.7031H905.762V69.7031ZM932.952 68.1213L943.743 17.6526L939.831 16.8162L929.04 67.2849L932.952 68.1213ZM941.787 19.2344H988.604V15.2344H941.787V19.2344ZM986.648 16.8162L975.857 67.2849L979.768 68.1213L990.559 17.6526L986.648 16.8162ZM977.812 69.7031H1007.2V65.7031H977.812V69.7031ZM1005.24 67.2887L998.102 100.99L1002.02 101.819L1009.15 68.1176L1005.24 67.2887ZM1000.06 99.4043H970.674V103.404H1000.06V99.4043ZM968.718 100.987L948.298 196.612L952.21 197.447L972.63 101.822L968.718 100.987ZM948.296 196.62C947.509 200.386 947.08 203.545 947.05 206.053C947.022 208.459 947.348 210.684 948.499 212.19L951.677 209.76C951.389 209.384 951.023 208.343 951.05 206.101C951.076 203.961 951.449 201.088 952.212 197.438L948.296 196.62ZM948.583 212.292C949.284 213.093 950.278 213.627 951.31 214.011C952.371 214.406 953.657 214.709 955.129 214.942C958.074 215.409 961.998 215.631 966.855 215.631V211.631C962.084 211.631 958.399 211.41 955.755 210.991C954.432 210.782 953.429 210.532 952.705 210.262C951.952 209.982 951.666 209.741 951.593 209.658L948.583 212.292ZM966.855 215.631C966.858 215.631 966.861 215.631 966.864 215.631C966.867 215.631 966.87 215.631 966.872 215.631C966.875 215.631 966.878 215.631 966.881 215.631C966.884 215.631 966.886 215.631 966.889 215.631C966.892 215.631 966.895 215.631 966.898 215.631C966.9 215.631 966.903 215.631 966.906 215.631C966.909 215.631 966.912 215.631 966.915 215.631C966.917 215.631 966.92 215.631 966.923 215.631C966.926 215.631 966.929 215.631 966.931 215.631C966.934 215.631 966.937 215.631 966.94 215.631C966.943 215.631 966.945 215.631 966.948 215.631C966.951 215.631 966.954 215.631 966.957 215.631C966.96 215.631 966.962 215.631 966.965 215.631C966.968 215.631 966.971 215.631 966.974 215.631C966.976 215.631 966.979 215.631 966.982 215.631C966.985 215.631 966.988 215.631 966.991 215.631C966.993 215.631 966.996 215.631 966.999 215.631C967.002 215.631 967.005 215.631 967.007 215.631C967.01 215.631 967.013 215.631 967.016 215.631C967.019 215.631 967.022 215.631 967.024 215.631C967.027 215.631 967.03 215.631 967.033 215.631C967.036 215.631 967.038 215.631 967.041 215.631C967.044 215.631 967.047 215.631 967.05 215.631C967.053 215.631 967.055 215.631 967.058 215.631C967.061 215.631 967.064 215.631 967.067 215.631C967.069 215.631 967.072 215.631 967.075 215.631C967.078 215.631 967.081 215.631 967.084 215.631C967.086 215.631 967.089 215.631 967.092 215.631C967.095 215.631 967.098 215.631 967.1 215.631C967.103 215.631 967.106 215.631 967.109 215.631C967.112 215.631 967.115 215.631 967.117 215.631C967.12 215.631 967.123 215.631 967.126 215.631C967.129 215.631 967.132 215.631 967.134 215.631C967.137 215.631 967.14 215.631 967.143 215.631C967.146 215.631 967.148 215.631 967.151 215.631C967.154 215.631 967.157 215.631 967.16 215.631C967.163 215.631 967.165 215.631 967.168 215.631C967.171 215.631 967.174 215.631 967.177 215.631C967.18 215.631 967.182 215.631 967.185 215.631C967.188 215.631 967.191 215.631 967.194 215.631C967.197 215.631 967.199 215.631 967.202 215.631C967.205 215.631 967.208 215.631 967.211 215.631C967.213 215.631 967.216 215.631 967.219 215.631C967.222 215.631 967.225 215.631 967.228 215.631C967.23 215.631 967.233 215.631 967.236 215.631C967.239 215.631 967.242 215.631 967.245 215.631C967.247 215.631 967.25 215.631 967.253 215.631C967.256 215.631 967.259 215.631 967.262 215.631C967.264 215.631 967.267 215.631 967.27 215.631C967.273 215.631 967.276 215.631 967.279 215.631C967.281 215.631 967.284 215.631 967.287 215.631C967.29 215.631 967.293 215.631 967.296 215.631C967.298 215.631 967.301 215.631 967.304 215.631C967.307 215.631 967.31 215.631 967.313 215.631C967.315 215.631 967.318 215.631 967.321 215.631C967.324 215.631 967.327 215.631 967.33 215.631C967.332 215.631 967.335 215.631 967.338 215.631C967.341 215.631 967.344 215.631 967.347 215.631C967.349 215.631 967.352 215.631 967.355 215.631C967.358 215.631 967.361 215.631 967.364 215.631C967.366 215.631 967.369 215.631 967.372 215.631C967.375 215.631 967.378 215.631 967.381 215.631C967.383 215.631 967.386 215.631 967.389 215.631C967.392 215.631 967.395 215.631 967.398 215.631C967.4 215.631 967.403 215.631 967.406 215.631C967.409 215.631 967.412 215.631 967.415 215.631C967.417 215.631 967.42 215.631 967.423 215.631C967.426 215.631 967.429 215.631 967.432 215.631C967.435 215.631 967.437 215.631 967.44 215.631C967.443 215.631 967.446 215.631 967.449 215.631C967.452 215.631 967.454 215.631 967.457 215.631C967.46 215.631 967.463 215.631 967.466 215.631C967.469 215.631 967.471 215.631 967.474 215.631C967.477 215.631 967.48 215.631 967.483 215.631C967.486 215.631 967.488 215.631 967.491 215.631C967.494 215.631 967.497 215.631 967.5 215.631C967.503 215.631 967.506 215.631 967.508 215.631C967.511 215.631 967.514 215.631 967.517 215.631C967.52 215.631 967.523 215.631 967.525 215.631C967.528 215.631 967.531 215.631 967.534 215.631C967.537 215.631 967.54 215.631 967.542 215.631C967.545 215.631 967.548 215.631 967.551 215.631C967.554 215.631 967.557 215.631 967.56 215.631C967.562 215.631 967.565 215.631 967.568 215.631C967.571 215.631 967.574 215.631 967.577 215.631C967.579 215.631 967.582 215.631 967.585 215.631C967.588 215.631 967.591 215.631 967.594 215.631C967.597 215.631 967.599 215.631 967.602 215.631C967.605 215.631 967.608 215.631 967.611 215.631C967.614 215.631 967.616 215.631 967.619 215.631C967.622 215.631 967.625 215.631 967.628 215.631C967.631 215.631 967.634 215.631 967.636 215.631C967.639 215.631 967.642 215.631 967.645 215.631C967.648 215.631 967.651 215.631 967.654 215.631C967.656 215.631 967.659 215.631 967.662 215.631C967.665 215.631 967.668 215.631 967.671 215.631C967.673 215.631 967.676 215.631 967.679 215.631C967.682 215.631 967.685 215.631 967.688 215.631C967.691 215.631 967.693 215.631 967.696 215.631C967.699 215.631 967.702 215.631 967.705 215.631C967.708 215.631 967.711 215.631 967.713 215.631C967.716 215.631 967.719 215.631 967.722 215.631C967.725 215.631 967.728 215.631 967.731 215.631C967.733 215.631 967.736 215.631 967.739 215.631C967.742 215.631 967.745 215.631 967.748 215.631C967.751 215.631 967.753 215.631 967.756 215.631C967.759 215.631 967.762 215.631 967.765 215.631C967.768 215.631 967.77 215.631 967.773 215.631C967.776 215.631 967.779 215.631 967.782 215.631C967.785 215.631 967.788 215.631 967.79 215.631C967.793 215.631 967.796 215.631 967.799 215.631C967.802 215.631 967.805 215.631 967.808 215.631C967.81 215.631 967.813 215.631 967.816 215.631C967.819 215.631 967.822 215.631 967.825 215.631C967.828 215.631 967.83 215.631 967.833 215.631C967.836 215.631 967.839 215.631 967.842 215.631C967.845 215.631 967.848 215.631 967.851 215.631C967.853 215.631 967.856 215.631 967.859 215.631C967.862 215.631 967.865 215.631 967.868 215.631C967.871 215.631 967.873 215.631 967.876 215.631C967.879 215.631 967.882 215.631 967.885 215.631C967.888 215.631 967.891 215.631 967.893 215.631C967.896 215.631 967.899 215.631 967.902 215.631C967.905 215.631 967.908 215.631 967.911 215.631C967.913 215.631 967.916 215.631 967.919 215.631C967.922 215.631 967.925 215.631 967.928 215.631C967.931 215.631 967.933 215.631 967.936 215.631C967.939 215.631 967.942 215.631 967.945 215.631C967.948 215.631 967.951 215.631 967.954 215.631C967.956 215.631 967.959 215.631 967.962 215.631C967.965 215.631 967.968 215.631 967.971 215.631C967.974 215.631 967.976 215.631 967.979 215.631C967.982 215.631 967.985 215.631 967.988 215.631C967.991 215.631 967.994 215.631 967.997 215.631C967.999 215.631 968.002 215.631 968.005 215.631C968.008 215.631 968.011 215.631 968.014 215.631C968.017 215.631 968.019 215.631 968.022 215.631C968.025 215.631 968.028 215.631 968.031 215.631C968.034 215.631 968.037 215.631 968.04 215.631C968.042 215.631 968.045 215.631 968.048 215.631C968.051 215.631 968.054 215.631 968.057 215.631C968.06 215.631 968.062 215.631 968.065 215.631C968.068 215.631 968.071 215.631 968.074 215.631C968.077 215.631 968.08 215.631 968.083 215.631C968.085 215.631 968.088 215.631 968.091 215.631C968.094 215.631 968.097 215.631 968.1 215.631C968.103 215.631 968.106 215.631 968.108 215.631C968.111 215.631 968.114 215.631 968.117 215.631C968.12 215.631 968.123 215.631 968.126 215.631C968.129 215.631 968.131 215.631 968.134 215.631C968.137 215.631 968.14 215.631 968.143 215.631C968.146 215.631 968.149 215.631 968.152 215.631C968.154 215.631 968.157 215.631 968.16 215.631C968.163 215.631 968.166 215.631 968.169 215.631C968.172 215.631 968.175 215.631 968.177 215.631C968.18 215.631 968.183 215.631 968.186 215.631C968.189 215.631 968.192 215.631 968.195 215.631C968.198 215.631 968.2 215.631 968.203 215.631C968.206 215.631 968.209 215.631 968.212 215.631C968.215 215.631 968.218 215.631 968.221 215.631C968.223 215.631 968.226 215.631 968.229 215.631C968.232 215.631 968.235 215.631 968.238 215.631C968.241 215.631 968.244 215.631 968.246 215.631C968.249 215.631 968.252 215.631 968.255 215.631C968.258 215.631 968.261 215.631 968.264 215.631C968.267 215.631 968.269 215.631 968.272 215.631C968.275 215.631 968.278 215.631 968.281 215.631C968.284 215.631 968.287 215.631 968.29 215.631C968.293 215.631 968.295 215.631 968.298 215.631C968.301 215.631 968.304 215.631 968.307 215.631C968.31 215.631 968.313 215.631 968.316 215.631C968.318 215.631 968.321 215.631 968.324 215.631C968.327 215.631 968.33 215.631 968.333 215.631C968.336 215.631 968.339 215.631 968.342 215.631C968.344 215.631 968.347 215.631 968.35 215.631C968.353 215.631 968.356 215.631 968.359 215.631C968.362 215.631 968.365 215.631 968.368 215.631C968.37 215.631 968.373 215.631 968.376 215.631C968.379 215.631 968.382 215.631 968.385 215.631C968.388 215.631 968.391 215.631 968.393 215.631C968.396 215.631 968.399 215.631 968.402 215.631C968.405 215.631 968.408 215.631 968.411 215.631C968.414 215.631 968.417 215.631 968.419 215.631C968.422 215.631 968.425 215.631 968.428 215.631C968.431 215.631 968.434 215.631 968.437 215.631C968.44 215.631 968.443 215.631 968.445 215.631C968.448 215.631 968.451 215.631 968.454 215.631C968.457 215.631 968.46 215.631 968.463 215.631C968.466 215.631 968.469 215.631 968.471 215.631C968.474 215.631 968.477 215.631 968.48 215.631C968.483 215.631 968.486 215.631 968.489 215.631C968.492 215.631 968.495 215.631 968.497 215.631C968.5 215.631 968.503 215.631 968.506 215.631C968.509 215.631 968.512 215.631 968.515 215.631C968.518 215.631 968.521 215.631 968.523 215.631C968.526 215.631 968.529 215.631 968.532 215.631C968.535 215.631 968.538 215.631 968.541 215.631C968.544 215.631 968.547 215.631 968.55 215.631C968.552 215.631 968.555 215.631 968.558 215.631C968.561 215.631 968.564 215.631 968.567 215.631C968.57 215.631 968.573 215.631 968.576 215.631C968.578 215.631 968.581 215.631 968.584 215.631C968.587 215.631 968.59 215.631 968.593 215.631C968.596 215.631 968.599 215.631 968.602 215.631C968.605 215.631 968.607 215.631 968.61 215.631C968.613 215.631 968.616 215.631 968.619 215.631C968.622 215.631 968.625 215.631 968.628 215.631C968.631 215.631 968.634 215.631 968.636 215.631C968.639 215.631 968.642 215.631 968.645 215.631C968.648 215.631 968.651 215.631 968.654 215.631C968.657 215.631 968.66 215.631 968.662 215.631C968.665 215.631 968.668 215.631 968.671 215.631C968.674 215.631 968.677 215.631 968.68 215.631C968.683 215.631 968.686 215.631 968.689 215.631C968.691 215.631 968.694 215.631 968.697 215.631C968.7 215.631 968.703 215.631 968.706 215.631C968.709 215.631 968.712 215.631 968.715 215.631C968.718 215.631 968.721 215.631 968.723 215.631C968.726 215.631 968.729 215.631 968.732 215.631C968.735 215.631 968.738 215.631 968.741 215.631C968.744 215.631 968.747 215.631 968.75 215.631C968.752 215.631 968.755 215.631 968.758 215.631C968.761 215.631 968.764 215.631 968.767 215.631C968.77 215.631 968.773 215.631 968.776 215.631C968.779 215.631 968.781 215.631 968.784 215.631C968.787 215.631 968.79 215.631 968.793 215.631C968.796 215.631 968.799 215.631 968.802 215.631C968.805 215.631 968.808 215.631 968.811 215.631C968.813 215.631 968.816 215.631 968.819 215.631C968.822 215.631 968.825 215.631 968.828 215.631C968.831 215.631 968.834 215.631 968.837 215.631C968.84 215.631 968.843 215.631 968.845 215.631C968.848 215.631 968.851 215.631 968.854 215.631C968.857 215.631 968.86 215.631 968.863 215.631C968.866 215.631 968.869 215.631 968.872 215.631C968.875 215.631 968.877 215.631 968.88 215.631C968.883 215.631 968.886 215.631 968.889 215.631C968.892 215.631 968.895 215.631 968.898 215.631C968.901 215.631 968.904 215.631 968.907 215.631C968.909 215.631 968.912 215.631 968.915 215.631C968.918 215.631 968.921 215.631 968.924 215.631C968.927 215.631 968.93 215.631 968.933 215.631C968.936 215.631 968.939 215.631 968.941 215.631C968.944 215.631 968.947 215.631 968.95 215.631C968.953 215.631 968.956 215.631 968.959 215.631C968.962 215.631 968.965 215.631 968.968 215.631C968.971 215.631 968.974 215.631 968.976 215.631C968.979 215.631 968.982 215.631 968.985 215.631C968.988 215.631 968.991 215.631 968.994 215.631C968.997 215.631 969 215.631 969.003 215.631C969.006 215.631 969.009 215.631 969.011 215.631C969.014 215.631 969.017 215.631 969.02 215.631C969.023 215.631 969.026 215.631 969.029 215.631C969.032 215.631 969.035 215.631 969.038 215.631C969.041 215.631 969.044 215.631 969.046 215.631C969.049 215.631 969.052 215.631 969.055 215.631C969.058 215.631 969.061 215.631 969.064 215.631C969.067 215.631 969.07 215.631 969.073 215.631C969.076 215.631 969.079 215.631 969.081 215.631C969.084 215.631 969.087 215.631 969.09 215.631C969.093 215.631 969.096 215.631 969.099 215.631C969.102 215.631 969.105 215.631 969.108 215.631C969.111 215.631 969.114 215.631 969.116 215.631C969.119 215.631 969.122 215.631 969.125 215.631C969.128 215.631 969.131 215.631 969.134 215.631C969.137 215.631 969.14 215.631 969.143 215.631C969.146 215.631 969.149 215.631 969.152 215.631C969.154 215.631 969.157 215.631 969.16 215.631C969.163 215.631 969.166 215.631 969.169 215.631C969.172 215.631 969.175 215.631 969.178 215.631C969.181 215.631 969.184 215.631 969.187 215.631C969.19 215.631 969.192 215.631 969.195 215.631C969.198 215.631 969.201 215.631 969.204 215.631C969.207 215.631 969.21 215.631 969.213 215.631C969.216 215.631 969.219 215.631 969.222 215.631C969.225 215.631 969.228 215.631 969.231 215.631C969.233 215.631 969.236 215.631 969.239 215.631C969.242 215.631 969.245 215.631 969.248 215.631C969.251 215.631 969.254 215.631 969.257 215.631C969.26 215.631 969.263 215.631 969.266 215.631C969.269 215.631 969.272 215.631 969.274 215.631C969.277 215.631 969.28 215.631 969.283 215.631C969.286 215.631 969.289 215.631 969.292 215.631C969.295 215.631 969.298 215.631 969.301 215.631C969.304 215.631 969.307 215.631 969.31 215.631C969.313 215.631 969.315 215.631 969.318 215.631C969.321 215.631 969.324 215.631 969.327 215.631C969.33 215.631 969.333 215.631 969.336 215.631C969.339 215.631 969.342 215.631 969.345 215.631C969.348 215.631 969.351 215.631 969.354 215.631C969.357 215.631 969.359 215.631 969.362 215.631C969.365 215.631 969.368 215.631 969.371 215.631C969.374 215.631 969.377 215.631 969.38 215.631C969.383 215.631 969.386 215.631 969.389 215.631C969.392 215.631 969.395 215.631 969.398 215.631C969.401 215.631 969.403 215.631 969.406 215.631C969.409 215.631 969.412 215.631 969.415 215.631C969.418 215.631 969.421 215.631 969.424 215.631C969.427 215.631 969.43 215.631 969.433 215.631C969.436 215.631 969.439 215.631 969.442 215.631C969.445 215.631 969.447 215.631 969.45 215.631C969.453 215.631 969.456 215.631 969.459 215.631C969.462 215.631 969.465 215.631 969.468 215.631C969.471 215.631 969.474 215.631 969.477 215.631C969.48 215.631 969.483 215.631 969.486 215.631C969.489 215.631 969.492 215.631 969.494 215.631C969.497 215.631 969.5 215.631 969.503 215.631C969.506 215.631 969.509 215.631 969.512 215.631C969.515 215.631 969.518 215.631 969.521 215.631C969.524 215.631 969.527 215.631 969.53 215.631C969.533 215.631 969.536 215.631 969.539 215.631C969.542 215.631 969.544 215.631 969.547 215.631C969.55 215.631 969.553 215.631 969.556 215.631C969.559 215.631 969.562 215.631 969.565 215.631C969.568 215.631 969.571 215.631 969.574 215.631C969.577 215.631 969.58 215.631 969.583 215.631C969.586 215.631 969.589 215.631 969.592 215.631C969.595 215.631 969.597 215.631 969.6 215.631C969.603 215.631 969.606 215.631 969.609 215.631C969.612 215.631 969.615 215.631 969.618 215.631C969.621 215.631 969.624 215.631 969.627 215.631C969.63 215.631 969.633 215.631 969.636 215.631C969.639 215.631 969.642 215.631 969.645 215.631C969.648 215.631 969.65 215.631 969.653 215.631C969.656 215.631 969.659 215.631 969.662 215.631C969.665 215.631 969.668 215.631 969.671 215.631C969.674 215.631 969.677 215.631 969.68 215.631C969.683 215.631 969.686 215.631 969.689 215.631C969.692 215.631 969.695 215.631 969.698 215.631C969.701 215.631 969.704 215.631 969.706 215.631C969.709 215.631 969.712 215.631 969.715 215.631C969.718 215.631 969.721 215.631 969.724 215.631C969.727 215.631 969.73 215.631 969.733 215.631C969.736 215.631 969.739 215.631 969.742 215.631C969.745 215.631 969.748 215.631 969.751 215.631C969.754 215.631 969.757 215.631 969.76 215.631C969.763 215.631 969.766 215.631 969.768 215.631C969.771 215.631 969.774 215.631 969.777 215.631C969.78 215.631 969.783 215.631 969.786 215.631C969.789 215.631 969.792 215.631 969.795 215.631C969.798 215.631 969.801 215.631 969.804 215.631C969.807 215.631 969.81 215.631 969.813 215.631C969.816 215.631 969.819 215.631 969.822 215.631C969.825 215.631 969.828 215.631 969.83 215.631C969.833 215.631 969.836 215.631 969.839 215.631C969.842 215.631 969.845 215.631 969.848 215.631C969.851 215.631 969.854 215.631 969.857 215.631C969.86 215.631 969.863 215.631 969.866 215.631C969.869 215.631 969.872 215.631 969.875 215.631C969.878 215.631 969.881 215.631 969.884 215.631C969.887 215.631 969.89 215.631 969.893 215.631C969.896 215.631 969.899 215.631 969.901 215.631C969.904 215.631 969.907 215.631 969.91 215.631C969.913 215.631 969.916 215.631 969.919 215.631C969.922 215.631 969.925 215.631 969.928 215.631C969.931 215.631 969.934 215.631 969.937 215.631C969.94 215.631 969.943 215.631 969.946 215.631C969.949 215.631 969.952 215.631 969.955 215.631C969.958 215.631 969.961 215.631 969.964 215.631C969.967 215.631 969.97 215.631 969.973 215.631C969.975 215.631 969.978 215.631 969.981 215.631C969.984 215.631 969.987 215.631 969.99 215.631C969.993 215.631 969.996 215.631 969.999 215.631C970.002 215.631 970.005 215.631 970.008 215.631C970.011 215.631 970.014 215.631 970.017 215.631C970.02 215.631 970.023 215.631 970.026 215.631C970.029 215.631 970.032 215.631 970.035 215.631C970.038 215.631 970.041 215.631 970.044 215.631C970.047 215.631 970.05 215.631 970.053 215.631C970.056 215.631 970.058 215.631 970.061 215.631C970.064 215.631 970.067 215.631 970.07 215.631C970.073 215.631 970.076 215.631 970.079 215.631C970.082 215.631 970.085 215.631 970.088 215.631C970.091 215.631 970.094 215.631 970.097 215.631C970.1 215.631 970.103 215.631 970.106 215.631C970.109 215.631 970.112 215.631 970.115 215.631C970.118 215.631 970.121 215.631 970.124 215.631C970.127 215.631 970.13 215.631 970.133 215.631C970.136 215.631 970.139 215.631 970.142 215.631C970.145 215.631 970.148 215.631 970.15 215.631C970.153 215.631 970.156 215.631 970.159 215.631C970.162 215.631 970.165 215.631 970.168 215.631C970.171 215.631 970.174 215.631 970.177 215.631C970.18 215.631 970.183 215.631 970.186 215.631C970.189 215.631 970.192 215.631 970.195 215.631C970.198 215.631 970.201 215.631 970.204 215.631C970.207 215.631 970.21 215.631 970.213 215.631C970.216 215.631 970.219 215.631 970.222 215.631C970.225 215.631 970.228 215.631 970.231 215.631C970.234 215.631 970.237 215.631 970.24 215.631C970.243 215.631 970.246 215.631 970.249 215.631C970.252 215.631 970.255 215.631 970.258 215.631C970.261 215.631 970.263 215.631 970.266 215.631C970.269 215.631 970.272 215.631 970.275 215.631C970.278 215.631 970.281 215.631 970.284 215.631C970.287 215.631 970.29 215.631 970.293 215.631C970.296 215.631 970.299 215.631 970.302 215.631C970.305 215.631 970.308 215.631 970.311 215.631C970.314 215.631 970.317 215.631 970.32 215.631C970.323 215.631 970.326 215.631 970.329 215.631C970.332 215.631 970.335 215.631 970.338 215.631C970.341 215.631 970.344 215.631 970.347 215.631C970.35 215.631 970.353 215.631 970.356 215.631C970.359 215.631 970.362 215.631 970.365 215.631C970.368 215.631 970.371 215.631 970.374 215.631C970.377 215.631 970.38 215.631 970.383 215.631C970.386 215.631 970.389 215.631 970.392 215.631C970.395 215.631 970.398 215.631 970.401 215.631C970.404 215.631 970.406 215.631 970.409 215.631C970.412 215.631 970.415 215.631 970.418 215.631C970.421 215.631 970.424 215.631 970.427 215.631C970.43 215.631 970.433 215.631 970.436 215.631C970.439 215.631 970.442 215.631 970.445 215.631C970.448 215.631 970.451 215.631 970.454 215.631C970.457 215.631 970.46 215.631 970.463 215.631C970.466 215.631 970.469 215.631 970.472 215.631C970.475 215.631 970.478 215.631 970.481 215.631C970.484 215.631 970.487 215.631 970.49 215.631C970.493 215.631 970.496 215.631 970.499 215.631C970.502 215.631 970.505 215.631 970.508 215.631C970.511 215.631 970.514 215.631 970.517 215.631C970.52 215.631 970.523 215.631 970.526 215.631C970.529 215.631 970.532 215.631 970.535 215.631C970.538 215.631 970.541 215.631 970.544 215.631C970.547 215.631 970.55 215.631 970.553 215.631C970.556 215.631 970.559 215.631 970.562 215.631C970.565 215.631 970.568 215.631 970.571 215.631C970.574 215.631 970.577 215.631 970.58 215.631C970.583 215.631 970.586 215.631 970.589 215.631C970.592 215.631 970.595 215.631 970.598 215.631C970.601 215.631 970.604 215.631 970.607 215.631C970.61 215.631 970.613 215.631 970.616 215.631C970.619 215.631 970.622 215.631 970.625 215.631C970.628 215.631 970.631 215.631 970.634 215.631C970.637 215.631 970.64 215.631 970.643 215.631C970.646 215.631 970.649 215.631 970.652 215.631C970.655 215.631 970.658 215.631 970.661 215.631C970.664 215.631 970.667 215.631 970.67 215.631C970.673 215.631 970.676 215.631 970.678 215.631C970.681 215.631 970.684 215.631 970.687 215.631C970.69 215.631 970.693 215.631 970.696 215.631C970.699 215.631 970.702 215.631 970.705 215.631C970.708 215.631 970.711 215.631 970.714 215.631C970.717 215.631 970.72 215.631 970.723 215.631C970.726 215.631 970.729 215.631 970.732 215.631C970.735 215.631 970.738 215.631 970.741 215.631C970.744 215.631 970.747 215.631 970.75 215.631C970.753 215.631 970.756 215.631 970.759 215.631C970.762 215.631 970.765 215.631 970.768 215.631C970.771 215.631 970.774 215.631 970.777 215.631C970.78 215.631 970.783 215.631 970.786 215.631C970.789 215.631 970.792 215.631 970.795 215.631C970.798 215.631 970.801 215.631 970.804 215.631C970.807 215.631 970.81 215.631 970.813 215.631C970.816 215.631 970.819 215.631 970.822 215.631C970.825 215.631 970.828 215.631 970.831 215.631C970.834 215.631 970.837 215.631 970.84 215.631C970.843 215.631 970.846 215.631 970.849 215.631C970.852 215.631 970.855 215.631 970.858 215.631C970.861 215.631 970.864 215.631 970.867 215.631C970.871 215.631 970.874 215.631 970.877 215.631C970.88 215.631 970.883 215.631 970.886 215.631C970.889 215.631 970.892 215.631 970.895 215.631C970.898 215.631 970.901 215.631 970.904 215.631C970.907 215.631 970.91 215.631 970.913 215.631C970.916 215.631 970.919 215.631 970.922 215.631C970.925 215.631 970.928 215.631 970.931 215.631C970.934 215.631 970.937 215.631 970.94 215.631C970.943 215.631 970.946 215.631 970.949 215.631C970.952 215.631 970.955 215.631 970.958 215.631C970.961 215.631 970.964 215.631 970.967 215.631C970.97 215.631 970.973 215.631 970.976 215.631C970.979 215.631 970.982 215.631 970.985 215.631C970.988 215.631 970.991 215.631 970.994 215.631C970.997 215.631 971 215.631 971.003 215.631C971.006 215.631 971.009 215.631 971.012 215.631C971.015 215.631 971.018 215.631 971.021 215.631C971.024 215.631 971.027 215.631 971.03 215.631C971.033 215.631 971.036 215.631 971.039 215.631C971.042 215.631 971.045 215.631 971.048 215.631C971.051 215.631 971.054 215.631 971.057 215.631C971.06 215.631 971.063 215.631 971.066 215.631C971.069 215.631 971.072 215.631 971.075 215.631C971.078 215.631 971.081 215.631 971.084 215.631C971.087 215.631 971.09 215.631 971.093 215.631C971.096 215.631 971.099 215.631 971.102 215.631C971.105 215.631 971.108 215.631 971.111 215.631C971.114 215.631 971.117 215.631 971.12 215.631C971.123 215.631 971.126 215.631 971.129 215.631C971.132 215.631 971.135 215.631 971.138 215.631C971.141 215.631 971.144 215.631 971.148 215.631C971.151 215.631 971.154 215.631 971.157 215.631C971.16 215.631 971.163 215.631 971.166 215.631C971.169 215.631 971.172 215.631 971.175 215.631C971.178 215.631 971.181 215.631 971.184 215.631C971.187 215.631 971.19 215.631 971.193 215.631C971.196 215.631 971.199 215.631 971.202 215.631C971.205 215.631 971.208 215.631 971.211 215.631C971.214 215.631 971.217 215.631 971.22 215.631C971.223 215.631 971.226 215.631 971.229 215.631C971.232 215.631 971.235 215.631 971.238 215.631C971.241 215.631 971.244 215.631 971.247 215.631C971.25 215.631 971.253 215.631 971.256 215.631C971.259 215.631 971.262 215.631 971.265 215.631C971.268 215.631 971.271 215.631 971.274 215.631C971.277 215.631 971.28 215.631 971.283 215.631C971.286 215.631 971.289 215.631 971.293 215.631C971.296 215.631 971.299 215.631 971.302 215.631C971.305 215.631 971.308 215.631 971.311 215.631C971.314 215.631 971.317 215.631 971.32 215.631C971.323 215.631 971.326 215.631 971.329 215.631C971.332 215.631 971.335 215.631 971.338 215.631V211.631C971.335 211.631 971.332 211.631 971.329 211.631C971.326 211.631 971.323 211.631 971.32 211.631C971.317 211.631 971.314 211.631 971.311 211.631C971.308 211.631 971.305 211.631 971.302 211.631C971.299 211.631 971.296 211.631 971.293 211.631C971.289 211.631 971.286 211.631 971.283 211.631C971.28 211.631 971.277 211.631 971.274 211.631C971.271 211.631 971.268 211.631 971.265 211.631C971.262 211.631 971.259 211.631 971.256 211.631C971.253 211.631 971.25 211.631 971.247 211.631C971.244 211.631 971.241 211.631 971.238 211.631C971.235 211.631 971.232 211.631 971.229 211.631C971.226 211.631 971.223 211.631 971.22 211.631C971.217 211.631 971.214 211.631 971.211 211.631C971.208 211.631 971.205 211.631 971.202 211.631C971.199 211.631 971.196 211.631 971.193 211.631C971.19 211.631 971.187 211.631 971.184 211.631C971.181 211.631 971.178 211.631 971.175 211.631C971.172 211.631 971.169 211.631 971.166 211.631C971.163 211.631 971.16 211.631 971.157 211.631C971.154 211.631 971.151 211.631 971.148 211.631C971.144 211.631 971.141 211.631 971.138 211.631C971.135 211.631 971.132 211.631 971.129 211.631C971.126 211.631 971.123 211.631 971.12 211.631C971.117 211.631 971.114 211.631 971.111 211.631C971.108 211.631 971.105 211.631 971.102 211.631C971.099 211.631 971.096 211.631 971.093 211.631C971.09 211.631 971.087 211.631 971.084 211.631C971.081 211.631 971.078 211.631 971.075 211.631C971.072 211.631 971.069 211.631 971.066 211.631C971.063 211.631 971.06 211.631 971.057 211.631C971.054 211.631 971.051 211.631 971.048 211.631C971.045 211.631 971.042 211.631 971.039 211.631C971.036 211.631 971.033 211.631 971.03 211.631C971.027 211.631 971.024 211.631 971.021 211.631C971.018 211.631 971.015 211.631 971.012 211.631C971.009 211.631 971.006 211.631 971.003 211.631C971 211.631 970.997 211.631 970.994 211.631C970.991 211.631 970.988 211.631 970.985 211.631C970.982 211.631 970.979 211.631 970.976 211.631C970.973 211.631 970.97 211.631 970.967 211.631C970.964 211.631 970.961 211.631 970.958 211.631C970.955 211.631 970.952 211.631 970.949 211.631C970.946 211.631 970.943 211.631 970.94 211.631C970.937 211.631 970.934 211.631 970.931 211.631C970.928 211.631 970.925 211.631 970.922 211.631C970.919 211.631 970.916 211.631 970.913 211.631C970.91 211.631 970.907 211.631 970.904 211.631C970.901 211.631 970.898 211.631 970.895 211.631C970.892 211.631 970.889 211.631 970.886 211.631C970.883 211.631 970.88 211.631 970.877 211.631C970.874 211.631 970.871 211.631 970.867 211.631C970.864 211.631 970.861 211.631 970.858 211.631C970.855 211.631 970.852 211.631 970.849 211.631C970.846 211.631 970.843 211.631 970.84 211.631C970.837 211.631 970.834 211.631 970.831 211.631C970.828 211.631 970.825 211.631 970.822 211.631C970.819 211.631 970.816 211.631 970.813 211.631C970.81 211.631 970.807 211.631 970.804 211.631C970.801 211.631 970.798 211.631 970.795 211.631C970.792 211.631 970.789 211.631 970.786 211.631C970.783 211.631 970.78 211.631 970.777 211.631C970.774 211.631 970.771 211.631 970.768 211.631C970.765 211.631 970.762 211.631 970.759 211.631C970.756 211.631 970.753 211.631 970.75 211.631C970.747 211.631 970.744 211.631 970.741 211.631C970.738 211.631 970.735 211.631 970.732 211.631C970.729 211.631 970.726 211.631 970.723 211.631C970.72 211.631 970.717 211.631 970.714 211.631C970.711 211.631 970.708 211.631 970.705 211.631C970.702 211.631 970.699 211.631 970.696 211.631C970.693 211.631 970.69 211.631 970.687 211.631C970.684 211.631 970.681 211.631 970.678 211.631C970.676 211.631 970.673 211.631 970.67 211.631C970.667 211.631 970.664 211.631 970.661 211.631C970.658 211.631 970.655 211.631 970.652 211.631C970.649 211.631 970.646 211.631 970.643 211.631C970.64 211.631 970.637 211.631 970.634 211.631C970.631 211.631 970.628 211.631 970.625 211.631C970.622 211.631 970.619 211.631 970.616 211.631C970.613 211.631 970.61 211.631 970.607 211.631C970.604 211.631 970.601 211.631 970.598 211.631C970.595 211.631 970.592 211.631 970.589 211.631C970.586 211.631 970.583 211.631 970.58 211.631C970.577 211.631 970.574 211.631 970.571 211.631C970.568 211.631 970.565 211.631 970.562 211.631C970.559 211.631 970.556 211.631 970.553 211.631C970.55 211.631 970.547 211.631 970.544 211.631C970.541 211.631 970.538 211.631 970.535 211.631C970.532 211.631 970.529 211.631 970.526 211.631C970.523 211.631 970.52 211.631 970.517 211.631C970.514 211.631 970.511 211.631 970.508 211.631C970.505 211.631 970.502 211.631 970.499 211.631C970.496 211.631 970.493 211.631 970.49 211.631C970.487 211.631 970.484 211.631 970.481 211.631C970.478 211.631 970.475 211.631 970.472 211.631C970.469 211.631 970.466 211.631 970.463 211.631C970.46 211.631 970.457 211.631 970.454 211.631C970.451 211.631 970.448 211.631 970.445 211.631C970.442 211.631 970.439 211.631 970.436 211.631C970.433 211.631 970.43 211.631 970.427 211.631C970.424 211.631 970.421 211.631 970.418 211.631C970.415 211.631 970.412 211.631 970.409 211.631C970.406 211.631 970.404 211.631 970.401 211.631C970.398 211.631 970.395 211.631 970.392 211.631C970.389 211.631 970.386 211.631 970.383 211.631C970.38 211.631 970.377 211.631 970.374 211.631C970.371 211.631 970.368 211.631 970.365 211.631C970.362 211.631 970.359 211.631 970.356 211.631C970.353 211.631 970.35 211.631 970.347 211.631C970.344 211.631 970.341 211.631 970.338 211.631C970.335 211.631 970.332 211.631 970.329 211.631C970.326 211.631 970.323 211.631 970.32 211.631C970.317 211.631 970.314 211.631 970.311 211.631C970.308 211.631 970.305 211.631 970.302 211.631C970.299 211.631 970.296 211.631 970.293 211.631C970.29 211.631 970.287 211.631 970.284 211.631C970.281 211.631 970.278 211.631 970.275 211.631C970.272 211.631 970.269 211.631 970.266 211.631C970.263 211.631 970.261 211.631 970.258 211.631C970.255 211.631 970.252 211.631 970.249 211.631C970.246 211.631 970.243 211.631 970.24 211.631C970.237 211.631 970.234 211.631 970.231 211.631C970.228 211.631 970.225 211.631 970.222 211.631C970.219 211.631 970.216 211.631 970.213 211.631C970.21 211.631 970.207 211.631 970.204 211.631C970.201 211.631 970.198 211.631 970.195 211.631C970.192 211.631 970.189 211.631 970.186 211.631C970.183 211.631 970.18 211.631 970.177 211.631C970.174 211.631 970.171 211.631 970.168 211.631C970.165 211.631 970.162 211.631 970.159 211.631C970.156 211.631 970.153 211.631 970.15 211.631C970.148 211.631 970.145 211.631 970.142 211.631C970.139 211.631 970.136 211.631 970.133 211.631C970.13 211.631 970.127 211.631 970.124 211.631C970.121 211.631 970.118 211.631 970.115 211.631C970.112 211.631 970.109 211.631 970.106 211.631C970.103 211.631 970.1 211.631 970.097 211.631C970.094 211.631 970.091 211.631 970.088 211.631C970.085 211.631 970.082 211.631 970.079 211.631C970.076 211.631 970.073 211.631 970.07 211.631C970.067 211.631 970.064 211.631 970.061 211.631C970.058 211.631 970.056 211.631 970.053 211.631C970.05 211.631 970.047 211.631 970.044 211.631C970.041 211.631 970.038 211.631 970.035 211.631C970.032 211.631 970.029 211.631 970.026 211.631C970.023 211.631 970.02 211.631 970.017 211.631C970.014 211.631 970.011 211.631 970.008 211.631C970.005 211.631 970.002 211.631 969.999 211.631C969.996 211.631 969.993 211.631 969.99 211.631C969.987 211.631 969.984 211.631 969.981 211.631C969.978 211.631 969.975 211.631 969.973 211.631C969.97 211.631 969.967 211.631 969.964 211.631C969.961 211.631 969.958 211.631 969.955 211.631C969.952 211.631 969.949 211.631 969.946 211.631C969.943 211.631 969.94 211.631 969.937 211.631C969.934 211.631 969.931 211.631 969.928 211.631C969.925 211.631 969.922 211.631 969.919 211.631C969.916 211.631 969.913 211.631 969.91 211.631C969.907 211.631 969.904 211.631 969.901 211.631C969.899 211.631 969.896 211.631 969.893 211.631C969.89 211.631 969.887 211.631 969.884 211.631C969.881 211.631 969.878 211.631 969.875 211.631C969.872 211.631 969.869 211.631 969.866 211.631C969.863 211.631 969.86 211.631 969.857 211.631C969.854 211.631 969.851 211.631 969.848 211.631C969.845 211.631 969.842 211.631 969.839 211.631C969.836 211.631 969.833 211.631 969.83 211.631C969.828 211.631 969.825 211.631 969.822 211.631C969.819 211.631 969.816 211.631 969.813 211.631C969.81 211.631 969.807 211.631 969.804 211.631C969.801 211.631 969.798 211.631 969.795 211.631C969.792 211.631 969.789 211.631 969.786 211.631C969.783 211.631 969.78 211.631 969.777 211.631C969.774 211.631 969.771 211.631 969.768 211.631C969.766 211.631 969.763 211.631 969.76 211.631C969.757 211.631 969.754 211.631 969.751 211.631C969.748 211.631 969.745 211.631 969.742 211.631C969.739 211.631 969.736 211.631 969.733 211.631C969.73 211.631 969.727 211.631 969.724 211.631C969.721 211.631 969.718 211.631 969.715 211.631C969.712 211.631 969.709 211.631 969.706 211.631C969.704 211.631 969.701 211.631 969.698 211.631C969.695 211.631 969.692 211.631 969.689 211.631C969.686 211.631 969.683 211.631 969.68 211.631C969.677 211.631 969.674 211.631 969.671 211.631C969.668 211.631 969.665 211.631 969.662 211.631C969.659 211.631 969.656 211.631 969.653 211.631C969.65 211.631 969.648 211.631 969.645 211.631C969.642 211.631 969.639 211.631 969.636 211.631C969.633 211.631 969.63 211.631 969.627 211.631C969.624 211.631 969.621 211.631 969.618 211.631C969.615 211.631 969.612 211.631 969.609 211.631C969.606 211.631 969.603 211.631 969.6 211.631C969.597 211.631 969.595 211.631 969.592 211.631C969.589 211.631 969.586 211.631 969.583 211.631C969.58 211.631 969.577 211.631 969.574 211.631C969.571 211.631 969.568 211.631 969.565 211.631C969.562 211.631 969.559 211.631 969.556 211.631C969.553 211.631 969.55 211.631 969.547 211.631C969.544 211.631 969.542 211.631 969.539 211.631C969.536 211.631 969.533 211.631 969.53 211.631C969.527 211.631 969.524 211.631 969.521 211.631C969.518 211.631 969.515 211.631 969.512 211.631C969.509 211.631 969.506 211.631 969.503 211.631C969.5 211.631 969.497 211.631 969.494 211.631C969.492 211.631 969.489 211.631 969.486 211.631C969.483 211.631 969.48 211.631 969.477 211.631C969.474 211.631 969.471 211.631 969.468 211.631C969.465 211.631 969.462 211.631 969.459 211.631C969.456 211.631 969.453 211.631 969.45 211.631C969.447 211.631 969.445 211.631 969.442 211.631C969.439 211.631 969.436 211.631 969.433 211.631C969.43 211.631 969.427 211.631 969.424 211.631C969.421 211.631 969.418 211.631 969.415 211.631C969.412 211.631 969.409 211.631 969.406 211.631C969.403 211.631 969.401 211.631 969.398 211.631C969.395 211.631 969.392 211.631 969.389 211.631C969.386 211.631 969.383 211.631 969.38 211.631C969.377 211.631 969.374 211.631 969.371 211.631C969.368 211.631 969.365 211.631 969.362 211.631C969.359 211.631 969.357 211.631 969.354 211.631C969.351 211.631 969.348 211.631 969.345 211.631C969.342 211.631 969.339 211.631 969.336 211.631C969.333 211.631 969.33 211.631 969.327 211.631C969.324 211.631 969.321 211.631 969.318 211.631C969.315 211.631 969.313 211.631 969.31 211.631C969.307 211.631 969.304 211.631 969.301 211.631C969.298 211.631 969.295 211.631 969.292 211.631C969.289 211.631 969.286 211.631 969.283 211.631C969.28 211.631 969.277 211.631 969.274 211.631C969.272 211.631 969.269 211.631 969.266 211.631C969.263 211.631 969.26 211.631 969.257 211.631C969.254 211.631 969.251 211.631 969.248 211.631C969.245 211.631 969.242 211.631 969.239 211.631C969.236 211.631 969.233 211.631 969.231 211.631C969.228 211.631 969.225 211.631 969.222 211.631C969.219 211.631 969.216 211.631 969.213 211.631C969.21 211.631 969.207 211.631 969.204 211.631C969.201 211.631 969.198 211.631 969.195 211.631C969.192 211.631 969.19 211.631 969.187 211.631C969.184 211.631 969.181 211.631 969.178 211.631C969.175 211.631 969.172 211.631 969.169 211.631C969.166 211.631 969.163 211.631 969.16 211.631C969.157 211.631 969.154 211.631 969.152 211.631C969.149 211.631 969.146 211.631 969.143 211.631C969.14 211.631 969.137 211.631 969.134 211.631C969.131 211.631 969.128 211.631 969.125 211.631C969.122 211.631 969.119 211.631 969.116 211.631C969.114 211.631 969.111 211.631 969.108 211.631C969.105 211.631 969.102 211.631 969.099 211.631C969.096 211.631 969.093 211.631 969.09 211.631C969.087 211.631 969.084 211.631 969.081 211.631C969.079 211.631 969.076 211.631 969.073 211.631C969.07 211.631 969.067 211.631 969.064 211.631C969.061 211.631 969.058 211.631 969.055 211.631C969.052 211.631 969.049 211.631 969.046 211.631C969.044 211.631 969.041 211.631 969.038 211.631C969.035 211.631 969.032 211.631 969.029 211.631C969.026 211.631 969.023 211.631 969.02 211.631C969.017 211.631 969.014 211.631 969.011 211.631C969.009 211.631 969.006 211.631 969.003 211.631C969 211.631 968.997 211.631 968.994 211.631C968.991 211.631 968.988 211.631 968.985 211.631C968.982 211.631 968.979 211.631 968.976 211.631C968.974 211.631 968.971 211.631 968.968 211.631C968.965 211.631 968.962 211.631 968.959 211.631C968.956 211.631 968.953 211.631 968.95 211.631C968.947 211.631 968.944 211.631 968.941 211.631C968.939 211.631 968.936 211.631 968.933 211.631C968.93 211.631 968.927 211.631 968.924 211.631C968.921 211.631 968.918 211.631 968.915 211.631C968.912 211.631 968.909 211.631 968.907 211.631C968.904 211.631 968.901 211.631 968.898 211.631C968.895 211.631 968.892 211.631 968.889 211.631C968.886 211.631 968.883 211.631 968.88 211.631C968.877 211.631 968.875 211.631 968.872 211.631C968.869 211.631 968.866 211.631 968.863 211.631C968.86 211.631 968.857 211.631 968.854 211.631C968.851 211.631 968.848 211.631 968.845 211.631C968.843 211.631 968.84 211.631 968.837 211.631C968.834 211.631 968.831 211.631 968.828 211.631C968.825 211.631 968.822 211.631 968.819 211.631C968.816 211.631 968.813 211.631 968.811 211.631C968.808 211.631 968.805 211.631 968.802 211.631C968.799 211.631 968.796 211.631 968.793 211.631C968.79 211.631 968.787 211.631 968.784 211.631C968.781 211.631 968.779 211.631 968.776 211.631C968.773 211.631 968.77 211.631 968.767 211.631C968.764 211.631 968.761 211.631 968.758 211.631C968.755 211.631 968.752 211.631 968.75 211.631C968.747 211.631 968.744 211.631 968.741 211.631C968.738 211.631 968.735 211.631 968.732 211.631C968.729 211.631 968.726 211.631 968.723 211.631C968.721 211.631 968.718 211.631 968.715 211.631C968.712 211.631 968.709 211.631 968.706 211.631C968.703 211.631 968.7 211.631 968.697 211.631C968.694 211.631 968.691 211.631 968.689 211.631C968.686 211.631 968.683 211.631 968.68 211.631C968.677 211.631 968.674 211.631 968.671 211.631C968.668 211.631 968.665 211.631 968.662 211.631C968.66 211.631 968.657 211.631 968.654 211.631C968.651 211.631 968.648 211.631 968.645 211.631C968.642 211.631 968.639 211.631 968.636 211.631C968.634 211.631 968.631 211.631 968.628 211.631C968.625 211.631 968.622 211.631 968.619 211.631C968.616 211.631 968.613 211.631 968.61 211.631C968.607 211.631 968.605 211.631 968.602 211.631C968.599 211.631 968.596 211.631 968.593 211.631C968.59 211.631 968.587 211.631 968.584 211.631C968.581 211.631 968.578 211.631 968.576 211.631C968.573 211.631 968.57 211.631 968.567 211.631C968.564 211.631 968.561 211.631 968.558 211.631C968.555 211.631 968.552 211.631 968.55 211.631C968.547 211.631 968.544 211.631 968.541 211.631C968.538 211.631 968.535 211.631 968.532 211.631C968.529 211.631 968.526 211.631 968.523 211.631C968.521 211.631 968.518 211.631 968.515 211.631C968.512 211.631 968.509 211.631 968.506 211.631C968.503 211.631 968.5 211.631 968.497 211.631C968.495 211.631 968.492 211.631 968.489 211.631C968.486 211.631 968.483 211.631 968.48 211.631C968.477 211.631 968.474 211.631 968.471 211.631C968.469 211.631 968.466 211.631 968.463 211.631C968.46 211.631 968.457 211.631 968.454 211.631C968.451 211.631 968.448 211.631 968.445 211.631C968.443 211.631 968.44 211.631 968.437 211.631C968.434 211.631 968.431 211.631 968.428 211.631C968.425 211.631 968.422 211.631 968.419 211.631C968.417 211.631 968.414 211.631 968.411 211.631C968.408 211.631 968.405 211.631 968.402 211.631C968.399 211.631 968.396 211.631 968.393 211.631C968.391 211.631 968.388 211.631 968.385 211.631C968.382 211.631 968.379 211.631 968.376 211.631C968.373 211.631 968.37 211.631 968.368 211.631C968.365 211.631 968.362 211.631 968.359 211.631C968.356 211.631 968.353 211.631 968.35 211.631C968.347 211.631 968.344 211.631 968.342 211.631C968.339 211.631 968.336 211.631 968.333 211.631C968.33 211.631 968.327 211.631 968.324 211.631C968.321 211.631 968.318 211.631 968.316 211.631C968.313 211.631 968.31 211.631 968.307 211.631C968.304 211.631 968.301 211.631 968.298 211.631C968.295 211.631 968.293 211.631 968.29 211.631C968.287 211.631 968.284 211.631 968.281 211.631C968.278 211.631 968.275 211.631 968.272 211.631C968.269 211.631 968.267 211.631 968.264 211.631C968.261 211.631 968.258 211.631 968.255 211.631C968.252 211.631 968.249 211.631 968.246 211.631C968.244 211.631 968.241 211.631 968.238 211.631C968.235 211.631 968.232 211.631 968.229 211.631C968.226 211.631 968.223 211.631 968.221 211.631C968.218 211.631 968.215 211.631 968.212 211.631C968.209 211.631 968.206 211.631 968.203 211.631C968.2 211.631 968.198 211.631 968.195 211.631C968.192 211.631 968.189 211.631 968.186 211.631C968.183 211.631 968.18 211.631 968.177 211.631C968.175 211.631 968.172 211.631 968.169 211.631C968.166 211.631 968.163 211.631 968.16 211.631C968.157 211.631 968.154 211.631 968.152 211.631C968.149 211.631 968.146 211.631 968.143 211.631C968.14 211.631 968.137 211.631 968.134 211.631C968.131 211.631 968.129 211.631 968.126 211.631C968.123 211.631 968.12 211.631 968.117 211.631C968.114 211.631 968.111 211.631 968.108 211.631C968.106 211.631 968.103 211.631 968.1 211.631C968.097 211.631 968.094 211.631 968.091 211.631C968.088 211.631 968.085 211.631 968.083 211.631C968.08 211.631 968.077 211.631 968.074 211.631C968.071 211.631 968.068 211.631 968.065 211.631C968.062 211.631 968.06 211.631 968.057 211.631C968.054 211.631 968.051 211.631 968.048 211.631C968.045 211.631 968.042 211.631 968.04 211.631C968.037 211.631 968.034 211.631 968.031 211.631C968.028 211.631 968.025 211.631 968.022 211.631C968.019 211.631 968.017 211.631 968.014 211.631C968.011 211.631 968.008 211.631 968.005 211.631C968.002 211.631 967.999 211.631 967.997 211.631C967.994 211.631 967.991 211.631 967.988 211.631C967.985 211.631 967.982 211.631 967.979 211.631C967.976 211.631 967.974 211.631 967.971 211.631C967.968 211.631 967.965 211.631 967.962 211.631C967.959 211.631 967.956 211.631 967.954 211.631C967.951 211.631 967.948 211.631 967.945 211.631C967.942 211.631 967.939 211.631 967.936 211.631C967.933 211.631 967.931 211.631 967.928 211.631C967.925 211.631 967.922 211.631 967.919 211.631C967.916 211.631 967.913 211.631 967.911 211.631C967.908 211.631 967.905 211.631 967.902 211.631C967.899 211.631 967.896 211.631 967.893 211.631C967.891 211.631 967.888 211.631 967.885 211.631C967.882 211.631 967.879 211.631 967.876 211.631C967.873 211.631 967.871 211.631 967.868 211.631C967.865 211.631 967.862 211.631 967.859 211.631C967.856 211.631 967.853 211.631 967.851 211.631C967.848 211.631 967.845 211.631 967.842 211.631C967.839 211.631 967.836 211.631 967.833 211.631C967.83 211.631 967.828 211.631 967.825 211.631C967.822 211.631 967.819 211.631 967.816 211.631C967.813 211.631 967.81 211.631 967.808 211.631C967.805 211.631 967.802 211.631 967.799 211.631C967.796 211.631 967.793 211.631 967.79 211.631C967.788 211.631 967.785 211.631 967.782 211.631C967.779 211.631 967.776 211.631 967.773 211.631C967.77 211.631 967.768 211.631 967.765 211.631C967.762 211.631 967.759 211.631 967.756 211.631C967.753 211.631 967.751 211.631 967.748 211.631C967.745 211.631 967.742 211.631 967.739 211.631C967.736 211.631 967.733 211.631 967.731 211.631C967.728 211.631 967.725 211.631 967.722 211.631C967.719 211.631 967.716 211.631 967.713 211.631C967.711 211.631 967.708 211.631 967.705 211.631C967.702 211.631 967.699 211.631 967.696 211.631C967.693 211.631 967.691 211.631 967.688 211.631C967.685 211.631 967.682 211.631 967.679 211.631C967.676 211.631 967.673 211.631 967.671 211.631C967.668 211.631 967.665 211.631 967.662 211.631C967.659 211.631 967.656 211.631 967.654 211.631C967.651 211.631 967.648 211.631 967.645 211.631C967.642 211.631 967.639 211.631 967.636 211.631C967.634 211.631 967.631 211.631 967.628 211.631C967.625 211.631 967.622 211.631 967.619 211.631C967.616 211.631 967.614 211.631 967.611 211.631C967.608 211.631 967.605 211.631 967.602 211.631C967.599 211.631 967.597 211.631 967.594 211.631C967.591 211.631 967.588 211.631 967.585 211.631C967.582 211.631 967.579 211.631 967.577 211.631C967.574 211.631 967.571 211.631 967.568 211.631C967.565 211.631 967.562 211.631 967.56 211.631C967.557 211.631 967.554 211.631 967.551 211.631C967.548 211.631 967.545 211.631 967.542 211.631C967.54 211.631 967.537 211.631 967.534 211.631C967.531 211.631 967.528 211.631 967.525 211.631C967.523 211.631 967.52 211.631 967.517 211.631C967.514 211.631 967.511 211.631 967.508 211.631C967.506 211.631 967.503 211.631 967.5 211.631C967.497 211.631 967.494 211.631 967.491 211.631C967.488 211.631 967.486 211.631 967.483 211.631C967.48 211.631 967.477 211.631 967.474 211.631C967.471 211.631 967.469 211.631 967.466 211.631C967.463 211.631 967.46 211.631 967.457 211.631C967.454 211.631 967.452 211.631 967.449 211.631C967.446 211.631 967.443 211.631 967.44 211.631C967.437 211.631 967.435 211.631 967.432 211.631C967.429 211.631 967.426 211.631 967.423 211.631C967.42 211.631 967.417 211.631 967.415 211.631C967.412 211.631 967.409 211.631 967.406 211.631C967.403 211.631 967.4 211.631 967.398 211.631C967.395 211.631 967.392 211.631 967.389 211.631C967.386 211.631 967.383 211.631 967.381 211.631C967.378 211.631 967.375 211.631 967.372 211.631C967.369 211.631 967.366 211.631 967.364 211.631C967.361 211.631 967.358 211.631 967.355 211.631C967.352 211.631 967.349 211.631 967.347 211.631C967.344 211.631 967.341 211.631 967.338 211.631C967.335 211.631 967.332 211.631 967.33 211.631C967.327 211.631 967.324 211.631 967.321 211.631C967.318 211.631 967.315 211.631 967.313 211.631C967.31 211.631 967.307 211.631 967.304 211.631C967.301 211.631 967.298 211.631 967.296 211.631C967.293 211.631 967.29 211.631 967.287 211.631C967.284 211.631 967.281 211.631 967.279 211.631C967.276 211.631 967.273 211.631 967.27 211.631C967.267 211.631 967.264 211.631 967.262 211.631C967.259 211.631 967.256 211.631 967.253 211.631C967.25 211.631 967.247 211.631 967.245 211.631C967.242 211.631 967.239 211.631 967.236 211.631C967.233 211.631 967.23 211.631 967.228 211.631C967.225 211.631 967.222 211.631 967.219 211.631C967.216 211.631 967.213 211.631 967.211 211.631C967.208 211.631 967.205 211.631 967.202 211.631C967.199 211.631 967.197 211.631 967.194 211.631C967.191 211.631 967.188 211.631 967.185 211.631C967.182 211.631 967.18 211.631 967.177 211.631C967.174 211.631 967.171 211.631 967.168 211.631C967.165 211.631 967.163 211.631 967.16 211.631C967.157 211.631 967.154 211.631 967.151 211.631C967.148 211.631 967.146 211.631 967.143 211.631C967.14 211.631 967.137 211.631 967.134 211.631C967.132 211.631 967.129 211.631 967.126 211.631C967.123 211.631 967.12 211.631 967.117 211.631C967.115 211.631 967.112 211.631 967.109 211.631C967.106 211.631 967.103 211.631 967.1 211.631C967.098 211.631 967.095 211.631 967.092 211.631C967.089 211.631 967.086 211.631 967.084 211.631C967.081 211.631 967.078 211.631 967.075 211.631C967.072 211.631 967.069 211.631 967.067 211.631C967.064 211.631 967.061 211.631 967.058 211.631C967.055 211.631 967.053 211.631 967.05 211.631C967.047 211.631 967.044 211.631 967.041 211.631C967.038 211.631 967.036 211.631 967.033 211.631C967.03 211.631 967.027 211.631 967.024 211.631C967.022 211.631 967.019 211.631 967.016 211.631C967.013 211.631 967.01 211.631 967.007 211.631C967.005 211.631 967.002 211.631 966.999 211.631C966.996 211.631 966.993 211.631 966.991 211.631C966.988 211.631 966.985 211.631 966.982 211.631C966.979 211.631 966.976 211.631 966.974 211.631C966.971 211.631 966.968 211.631 966.965 211.631C966.962 211.631 966.96 211.631 966.957 211.631C966.954 211.631 966.951 211.631 966.948 211.631C966.945 211.631 966.943 211.631 966.94 211.631C966.937 211.631 966.934 211.631 966.931 211.631C966.929 211.631 966.926 211.631 966.923 211.631C966.92 211.631 966.917 211.631 966.915 211.631C966.912 211.631 966.909 211.631 966.906 211.631C966.903 211.631 966.9 211.631 966.898 211.631C966.895 211.631 966.892 211.631 966.889 211.631C966.886 211.631 966.884 211.631 966.881 211.631C966.878 211.631 966.875 211.631 966.872 211.631C966.87 211.631 966.867 211.631 966.864 211.631C966.861 211.631 966.858 211.631 966.855 211.631V215.631ZM971.471 215.626C971.492 215.625 971.606 215.617 971.627 215.616C971.647 215.615 971.761 215.607 971.782 215.606C971.803 215.604 971.917 215.597 971.938 215.595C971.959 215.594 972.073 215.586 972.093 215.585C972.114 215.584 972.228 215.576 972.249 215.575C972.27 215.573 972.384 215.566 972.405 215.564C972.426 215.563 972.54 215.555 972.56 215.554C972.581 215.552 972.695 215.545 972.716 215.543C972.737 215.542 972.851 215.534 972.872 215.533C972.892 215.532 973.007 215.524 973.027 215.523C973.048 215.521 973.162 215.514 973.183 215.512C973.204 215.511 973.318 215.503 973.339 215.502C973.359 215.501 973.473 215.493 973.494 215.492C973.515 215.49 973.629 215.483 973.65 215.481C973.671 215.48 973.785 215.472 973.806 215.471C973.826 215.469 973.94 215.462 973.961 215.46C974.662 215.414 975.751 215.341 976.451 215.294L976.185 211.303C976.176 211.304 976.176 211.304 976.166 211.305C976.156 211.305 976.156 211.305 976.146 211.306C976.137 211.307 976.137 211.306 976.127 211.307C976.117 211.308 976.117 211.308 976.108 211.308C976.098 211.309 976.098 211.309 976.088 211.31C976.078 211.31 976.078 211.31 976.069 211.311C976.059 211.312 976.059 211.312 976.049 211.312C976.039 211.313 976.039 211.313 976.03 211.314C976.02 211.314 976.02 211.314 976.01 211.315C976 211.316 976.001 211.316 975.991 211.316C975.981 211.317 975.981 211.317 975.971 211.318C975.962 211.318 975.962 211.318 975.952 211.319C975.942 211.319 975.942 211.319 975.932 211.32C975.923 211.321 975.923 211.321 975.913 211.321C975.903 211.322 975.903 211.322 975.893 211.323C975.884 211.323 975.884 211.323 975.874 211.324C975.864 211.325 975.864 211.325 975.855 211.325C975.845 211.326 975.845 211.326 975.835 211.327C975.825 211.327 975.825 211.327 975.816 211.328C975.806 211.329 975.806 211.329 975.796 211.329C975.786 211.33 975.787 211.33 975.777 211.33C975.767 211.331 975.767 211.331 975.757 211.332C975.748 211.332 975.748 211.332 975.738 211.333C975.728 211.334 975.728 211.334 975.718 211.334C975.709 211.335 975.709 211.335 975.699 211.336C975.689 211.336 975.689 211.336 975.679 211.337C975.67 211.338 975.67 211.338 975.66 211.338C975.65 211.339 975.65 211.339 975.641 211.34C975.631 211.34 975.631 211.34 975.621 211.341C975.611 211.342 975.611 211.342 975.602 211.342C975.592 211.343 975.592 211.343 975.582 211.343C975.572 211.344 975.573 211.344 975.563 211.345C975.553 211.345 975.553 211.345 975.543 211.346C975.534 211.347 975.534 211.347 975.524 211.347C975.514 211.348 975.514 211.348 975.504 211.349C975.495 211.349 975.495 211.349 975.485 211.35C975.475 211.351 975.475 211.351 975.465 211.351C975.456 211.352 975.456 211.352 975.446 211.353C975.436 211.353 975.436 211.353 975.427 211.354C975.417 211.354 975.417 211.354 975.407 211.355C975.397 211.356 975.397 211.356 975.388 211.356C975.378 211.357 975.378 211.357 975.368 211.358C975.358 211.358 975.359 211.358 975.349 211.359C975.339 211.36 975.339 211.36 975.329 211.36C975.32 211.361 975.32 211.361 975.31 211.362C975.3 211.362 975.3 211.362 975.29 211.363C975.281 211.364 975.281 211.364 975.271 211.364C975.261 211.365 975.261 211.365 975.251 211.366C975.242 211.366 975.242 211.366 975.232 211.367C975.222 211.367 975.222 211.367 975.213 211.368C975.203 211.369 975.203 211.369 975.193 211.369C975.183 211.37 975.183 211.37 975.174 211.371C975.164 211.371 975.164 211.371 975.154 211.372C975.144 211.373 975.145 211.373 975.135 211.373C975.125 211.374 975.125 211.374 975.115 211.375C975.105 211.375 975.106 211.375 975.096 211.376C975.086 211.377 975.086 211.377 975.076 211.377C975.067 211.378 975.067 211.378 975.057 211.378C975.047 211.379 975.047 211.379 975.037 211.38C975.028 211.38 975.028 211.38 975.018 211.381C975.008 211.382 975.008 211.382 974.999 211.382C974.989 211.383 974.989 211.383 974.979 211.384C974.969 211.384 974.969 211.384 974.96 211.385C974.95 211.386 974.95 211.386 974.94 211.386C974.93 211.387 974.931 211.387 974.921 211.388C974.911 211.388 974.911 211.388 974.901 211.389C974.891 211.39 974.892 211.39 974.882 211.39C974.872 211.391 974.872 211.391 974.862 211.391C974.853 211.392 974.853 211.392 974.843 211.393C974.833 211.393 974.833 211.393 974.823 211.394C974.814 211.395 974.814 211.395 974.804 211.395C974.794 211.396 974.794 211.396 974.785 211.397C974.775 211.397 974.775 211.397 974.765 211.398C974.755 211.399 974.755 211.399 974.746 211.399C974.736 211.4 974.736 211.4 974.726 211.401C974.716 211.401 974.717 211.401 974.707 211.402C974.697 211.402 974.697 211.402 974.687 211.403C974.677 211.404 974.678 211.404 974.668 211.404C974.658 211.405 974.658 211.405 974.648 211.406C974.639 211.406 974.639 211.406 974.629 211.407C974.619 211.408 974.619 211.408 974.609 211.408C974.6 211.409 974.6 211.409 974.59 211.41C974.58 211.41 974.58 211.41 974.571 211.411C974.561 211.412 974.561 211.412 974.551 211.412C974.541 211.413 974.541 211.413 974.532 211.414C974.522 211.414 974.522 211.414 974.512 211.415C974.502 211.415 974.503 211.415 974.493 211.416C974.483 211.417 974.483 211.417 974.473 211.417C974.463 211.418 974.464 211.418 974.454 211.419C974.444 211.419 974.444 211.419 974.434 211.42C974.425 211.421 974.425 211.421 974.415 211.421C974.405 211.422 974.405 211.422 974.395 211.423C974.386 211.423 974.386 211.423 974.376 211.424C974.366 211.425 974.366 211.425 974.357 211.425C974.347 211.426 974.347 211.426 974.337 211.426C974.327 211.427 974.327 211.427 974.318 211.428C974.308 211.428 974.308 211.428 974.298 211.429C974.288 211.43 974.289 211.43 974.279 211.43C974.269 211.431 974.269 211.431 974.259 211.432C974.249 211.432 974.25 211.432 974.24 211.433C974.23 211.434 974.23 211.434 974.22 211.434C974.211 211.435 974.211 211.435 974.201 211.436C974.191 211.436 974.191 211.436 974.181 211.437C974.172 211.438 974.172 211.437 974.162 211.438C974.152 211.439 974.152 211.439 974.143 211.439C974.133 211.44 974.133 211.44 974.123 211.441C974.113 211.441 974.113 211.441 974.104 211.442C974.094 211.443 974.094 211.443 974.084 211.443C974.074 211.444 974.075 211.444 974.065 211.445C974.055 211.445 974.055 211.445 974.045 211.446C974.035 211.447 974.036 211.447 974.026 211.447C974.016 211.448 974.016 211.448 974.006 211.449C973.997 211.449 973.997 211.449 973.987 211.45C973.977 211.45 973.977 211.45 973.967 211.451C973.958 211.452 973.958 211.452 973.948 211.452C973.938 211.453 973.938 211.453 973.929 211.454C973.919 211.454 973.919 211.454 973.909 211.455C973.899 211.456 973.899 211.456 973.89 211.456C973.88 211.457 973.88 211.457 973.87 211.458C973.86 211.458 973.861 211.458 973.851 211.459C973.841 211.46 973.841 211.46 973.831 211.46C973.821 211.461 973.822 211.461 973.812 211.461C973.802 211.462 973.802 211.462 973.792 211.463C973.783 211.463 973.783 211.463 973.773 211.464C973.763 211.465 973.763 211.465 973.753 211.465C973.744 211.466 973.744 211.466 973.734 211.467C973.724 211.467 973.724 211.467 973.715 211.468C973.705 211.469 973.705 211.469 973.695 211.469C973.584 211.477 973.183 211.503 973.073 211.511C972.962 211.518 972.561 211.545 972.45 211.552C972.339 211.56 971.938 211.586 971.827 211.594C971.717 211.601 971.316 211.628 971.205 211.635L971.471 215.626ZM974.363 212.877L966.727 248.238L970.637 249.082L978.273 213.721L974.363 212.877ZM968.608 246.662L946.03 247.492L946.177 251.489L968.755 250.659L968.608 246.662ZM946.035 247.491C934.91 247.875 925.899 247.101 918.938 245.234C911.978 243.368 907.223 240.452 904.371 236.666L901.176 239.072C904.743 243.809 910.419 247.091 917.902 249.098C925.386 251.105 934.83 251.88 946.172 251.489L946.035 247.491ZM904.37 236.664C900.799 231.936 899.791 224.305 902.076 213.204L898.158 212.397C895.795 223.875 896.557 232.956 901.177 239.074L904.37 236.664ZM902.073 213.218L925.813 101.821L921.901 100.987L898.161 212.384L902.073 213.218ZM923.857 99.4043H898.623V103.404H923.857V99.4043ZM1055.34 2.29297V0.292969H1053.72L1053.39 1.87627L1055.34 2.29297ZM1107.3 2.29297L1109.26 2.70967L1109.78 0.292969H1107.3V2.29297ZM1075.26 152.703L1073.31 152.286L1073.31 152.291L1075.26 152.703ZM1073.44 189.559L1075.38 189.088L1075.37 189.036L1075.35 188.984L1073.44 189.559ZM1154.29 189.559L1152.67 188.381L1152.64 188.418L1152.62 188.455L1154.29 189.559ZM1168.07 152.703L1166.11 152.286L1166.11 152.291L1168.07 152.703ZM1200.11 2.29297V0.292969H1198.49L1198.15 1.87627L1200.11 2.29297ZM1252.07 2.29297L1254.03 2.70967L1254.54 0.292969H1252.07V2.29297ZM1220.03 152.703L1218.07 152.286L1218.07 152.287L1220.03 152.703ZM1194.96 213.465L1196.54 214.694L1196.54 214.686L1194.96 213.465ZM1022.47 213.465L1020.58 214.115L1020.58 214.127L1020.59 214.14L1022.47 213.465ZM1023.3 152.703L1021.34 152.286L1021.34 152.287L1023.3 152.703ZM1055.34 4.29297H1107.3V0.292969H1055.34V4.29297ZM1105.35 1.87627L1073.31 152.286L1077.22 153.12L1109.26 2.70967L1105.35 1.87627ZM1073.31 152.291C1069.76 169.151 1069.04 181.868 1071.52 190.133L1075.35 188.984C1073.18 181.754 1073.69 169.901 1077.22 153.115L1073.31 152.291ZM1071.49 190.029C1073.28 197.417 1077.47 203.027 1083.99 206.736C1090.43 210.404 1099.04 212.145 1109.63 212.145V208.145C1099.41 208.145 1091.58 206.454 1085.96 203.26C1080.42 200.107 1076.91 195.424 1075.38 189.088L1071.49 190.029ZM1109.63 212.145C1130.8 212.145 1146.41 205.092 1155.96 190.662L1152.62 188.455C1144.01 201.473 1129.85 208.145 1109.63 208.145V212.145ZM1155.9 190.736C1161.8 182.646 1166.46 170.029 1170.02 153.115L1166.11 152.291C1162.59 169.023 1158.07 180.977 1152.67 188.381L1155.9 190.736ZM1170.02 153.12L1202.06 2.70967L1198.15 1.87627L1166.11 152.286L1170.02 153.12ZM1200.11 4.29297H1252.07V0.292969H1200.11V4.29297ZM1250.11 1.87627L1218.07 152.286L1221.99 153.12L1254.03 2.70967L1250.11 1.87627ZM1218.07 152.287C1212.58 178.126 1204.31 198.064 1193.38 212.244L1196.54 214.686C1207.97 199.868 1216.42 179.299 1221.99 153.119L1218.07 152.287ZM1193.38 212.236C1173.16 238.188 1142.28 251.309 1100.33 251.309V255.309C1143.16 255.309 1175.37 241.866 1196.54 214.694L1193.38 212.236ZM1100.33 251.309C1058.29 251.309 1033.45 238.171 1024.35 212.79L1020.59 214.14C1030.53 241.884 1057.6 255.309 1100.33 255.309V251.309ZM1024.36 212.815C1019.56 198.827 1019.75 179.002 1025.26 153.119L1021.34 152.287C1015.78 178.423 1015.42 199.105 1020.58 214.115L1024.36 212.815ZM1025.26 153.12L1057.3 2.70967L1053.39 1.87627L1021.34 152.286L1025.26 153.12ZM1294.24 189.227L1296.23 189.41L1296.43 187.227H1294.24V189.227ZM1297.06 207.156L1298.7 206.007L1298.68 205.982L1298.66 205.956L1297.06 207.156ZM1361.47 200.018L1363.43 200.447L1363.43 200.436L1363.43 200.425L1361.47 200.018ZM1311.01 173.621L1310.5 175.555L1310.51 175.558L1310.52 175.561L1311.01 173.621ZM1271.83 154.529L1273.32 153.205L1273.31 153.193L1273.3 153.182L1271.83 154.529ZM1266.18 121.99L1268.14 122.418L1268.14 122.405L1266.18 121.99ZM1294.9 78.9922L1296.12 80.5799L1296.12 80.5787L1294.9 78.9922ZM1406.46 74.5098L1405.28 76.1184L1405.29 76.1253L1406.46 74.5098ZM1421.07 121.16V123.16H1422.86L1423.06 121.389L1421.07 121.16ZM1373.76 121.16L1371.77 120.979L1371.57 123.16H1373.76V121.16ZM1371.6 106.717L1373.34 105.736L1373.33 105.71L1373.31 105.683L1371.6 106.717ZM1323.96 101.902L1322.89 100.21L1322.88 100.216L1322.87 100.221L1323.96 101.902ZM1315.16 113.191L1317.11 113.629L1317.11 113.611L1317.12 113.593L1315.16 113.191ZM1319.64 124.979L1320.69 123.28L1320.67 123.263L1320.64 123.248L1319.64 124.979ZM1366.12 138.094L1366.61 136.153L1366.59 136.149L1366.57 136.145L1366.12 138.094ZM1404.14 158.182L1405.69 156.916L1405.68 156.906L1405.67 156.896L1404.14 158.182ZM1410.95 192.215L1412.9 192.637L1412.9 192.628L1410.95 192.215ZM1381.56 236.209L1382.73 237.833L1382.74 237.828L1381.56 236.209ZM1256.88 235.213L1255.4 236.558L1255.41 236.565L1255.42 236.572L1256.88 235.213ZM1246.26 189.227V187.227H1244.63L1244.3 188.819L1246.26 189.227ZM1292.25 189.043C1291.46 197.556 1292.33 204.187 1295.46 208.356L1298.66 205.956C1296.47 203.042 1295.46 197.72 1296.23 189.41L1292.25 189.043ZM1295.42 208.305C1297.97 211.936 1302.05 214.503 1307.38 216.163C1312.71 217.822 1319.42 218.619 1327.44 218.619V214.619C1319.64 214.619 1313.37 213.839 1308.57 212.344C1303.77 210.849 1300.58 208.686 1298.7 206.007L1295.42 208.305ZM1327.44 218.619C1336.92 218.619 1344.92 217.211 1351.35 214.289L1349.69 210.648C1343.94 213.26 1336.56 214.619 1327.44 214.619V218.619ZM1351.35 214.289C1357.89 211.315 1362.05 206.711 1363.43 200.447L1359.52 199.588C1358.46 204.391 1355.32 208.089 1349.69 210.648L1351.35 214.289ZM1363.43 200.425C1364.04 197.512 1363.99 194.795 1363.16 192.355C1362.32 189.896 1360.72 187.868 1358.49 186.271L1356.16 189.526C1357.8 190.696 1358.83 192.071 1359.37 193.651C1359.92 195.251 1360.02 197.211 1359.52 199.61L1363.43 200.425ZM1358.49 186.271C1357.3 185.424 1355.41 184.534 1352.98 183.586C1350.5 182.621 1347.31 181.54 1343.43 180.343C1335.66 177.948 1325.01 175.06 1311.49 171.681L1310.52 175.561C1324.01 178.934 1334.58 181.801 1342.25 184.165C1346.09 185.348 1349.17 186.397 1351.52 187.313C1353.92 188.247 1355.41 188.99 1356.16 189.526L1358.49 186.271ZM1311.51 171.687C1292.22 166.615 1279.66 160.373 1273.32 153.205L1270.33 155.854C1277.49 163.959 1291.05 170.445 1310.5 175.555L1311.51 171.687ZM1273.3 153.182C1267.05 146.318 1265.11 136.238 1268.14 122.418L1264.23 121.563C1261.05 136.076 1262.88 147.689 1270.35 155.877L1273.3 153.182ZM1268.14 122.405C1271.57 106.229 1280.83 92.2892 1296.12 80.5799L1293.69 77.4044C1277.76 89.6014 1267.88 104.327 1264.23 121.576L1268.14 122.405ZM1296.12 80.5787C1311.42 68.8338 1330.72 62.8965 1354.17 62.8965V58.8965C1330.03 58.8965 1309.82 65.023 1293.68 77.4057L1296.12 80.5787ZM1354.17 62.8965C1376.52 62.8965 1393.46 67.3927 1405.28 76.1184L1407.65 72.9011C1394.89 63.4758 1376.98 58.8965 1354.17 58.8965V62.8965ZM1405.29 76.1253C1416.74 84.4857 1421.59 99.1452 1419.09 120.932L1423.06 121.389C1425.65 98.9043 1420.76 82.4635 1407.64 72.8942L1405.29 76.1253ZM1421.07 119.16H1373.76V123.16H1421.07V119.16ZM1375.75 121.341C1376.32 115.042 1375.61 109.768 1373.34 105.736L1369.86 107.697C1371.58 110.749 1372.3 115.104 1371.77 120.979L1375.75 121.341ZM1373.31 105.683C1368.88 98.343 1359.76 95.0879 1347.03 95.0879V99.0879C1359.32 99.0879 1366.57 102.252 1369.89 107.75L1373.31 105.683ZM1347.03 95.0879C1336.6 95.0879 1328.45 96.7024 1322.89 100.21L1325.02 103.594C1329.64 100.683 1336.88 99.0879 1347.03 99.0879V95.0879ZM1322.87 100.221C1317.6 103.618 1314.22 107.784 1313.2 112.79L1317.12 113.593C1317.86 109.966 1320.35 106.606 1325.04 103.583L1322.87 100.221ZM1313.2 112.753C1312.54 115.727 1312.57 118.484 1313.49 120.916C1314.43 123.376 1316.2 125.299 1318.64 126.709L1320.64 123.248C1318.87 122.223 1317.79 120.964 1317.23 119.495C1316.66 117.998 1316.56 116.079 1317.11 113.629L1313.2 112.753ZM1318.58 126.677C1319.8 127.436 1321.72 128.245 1324.18 129.116C1326.69 130 1329.89 130.992 1333.79 132.091C1341.58 134.29 1352.21 136.941 1365.67 140.043L1366.57 136.145C1353.14 133.049 1342.58 130.415 1334.87 128.242C1331.02 127.155 1327.91 126.189 1325.51 125.344C1323.08 124.486 1321.52 123.794 1320.69 123.28L1318.58 126.677ZM1365.64 140.035C1383.27 144.414 1395.47 150.964 1402.61 159.468L1405.67 156.896C1397.76 147.47 1384.62 140.628 1366.61 136.153L1365.64 140.035ZM1402.59 159.447C1409.55 167.964 1411.77 178.657 1408.99 191.801L1412.9 192.628C1415.88 178.546 1413.56 166.551 1405.69 156.916L1402.59 159.447ZM1408.99 191.792C1405.23 209.211 1395.73 223.461 1380.39 234.59L1382.74 237.828C1398.83 226.157 1408.92 211.078 1412.9 192.637L1408.99 191.792ZM1380.4 234.585C1365.14 245.543 1343.8 251.143 1316.15 251.143V255.143C1344.28 255.143 1366.55 249.453 1382.73 237.833L1380.4 234.585ZM1316.15 251.143C1287.88 251.143 1268.84 245.181 1258.35 233.854L1255.42 236.572C1267.06 249.151 1287.54 255.143 1316.15 255.143V251.143ZM1258.37 233.868C1247.91 222.361 1244.45 207.72 1248.22 189.634L1244.3 188.819C1240.32 207.921 1243.94 223.937 1255.4 236.558L1258.37 233.868ZM1246.26 191.227H1294.24V187.227H1246.26V191.227Z" fill="black"/>
</svg>
