<svg width="89" height="54" viewBox="0 0 89 54" fill="none" xmlns="http://www.w3.org/2000/svg">
<g clip-path="url(#clip0)">
<path d="M0 0C12.4108 0 24.7081 0 37.1256 0C37.1256 3.26764 37.1256 6.46819 37.1256 9.81635C28.6825 9.81635 20.2661 9.81635 11.7162 9.81635C11.7162 13.9898 11.7162 18.0224 11.7162 22.216C19.017 22.216 26.3179 22.216 33.7457 22.216C33.7457 25.289 33.7457 28.201 33.7457 31.2808C26.4382 31.2808 19.1373 31.2808 11.6494 31.2808C11.6494 38.7085 11.6494 45.9819 11.6494 53.3894C7.67495 53.3894 3.88757 53.3894 0.00667968 53.3894C0 35.6354 0 17.915 0 0Z" fill="white"/>
<path d="M73.8572 26.8926C73.4297 28.7043 73.1759 30.5293 72.568 32.2202C71.7798 34.4075 69.9362 35.2999 67.7052 35.2999C65.4609 35.2999 63.7308 34.3203 62.8758 32.1598C61.5132 28.711 61.4931 25.2152 62.8691 21.7664C63.7241 19.6193 65.4675 18.6329 67.7119 18.6329C69.9362 18.6329 71.7865 19.5186 72.5881 21.6926C73.1826 23.3298 73.4364 25.0944 73.8572 26.8926ZM65.02 27.0872C65.2271 28.3084 65.2939 29.7778 65.7748 31.0929C66.0219 31.7572 67.0239 32.5758 67.6652 32.5557C68.3999 32.5288 69.4954 31.8109 69.7559 31.1265C70.7578 28.4761 70.7912 25.6715 69.8628 22.9943C69.6089 22.2562 68.4534 21.3705 67.7319 21.3974C67.0039 21.4175 65.9819 22.3434 65.6679 23.1151C65.1937 24.249 65.2337 25.5909 65.02 27.0872Z" fill="white"/>
<path d="M80.2362 45.0425C80.2362 47.7935 80.2362 50.5445 80.2362 53.4095C79.281 53.4095 78.4861 53.4095 77.5576 53.4095C77.5576 49.0012 77.5576 44.6265 77.5576 40.2517C79.9623 39.6143 80.2963 39.7351 81.5721 41.7547C82.9682 43.9622 84.3709 46.163 85.7736 48.3638C85.827 48.4443 85.9272 48.4913 86.2278 48.7194C86.2278 45.7671 86.2278 42.9826 86.2278 40.0974C87.2498 40.0974 88.0581 40.0974 89.0066 40.0974C89.0066 44.5057 89.0066 48.914 89.0066 53.3357C87.183 53.7987 85.8471 53.6108 84.8652 51.7053C83.6495 49.3501 82.0731 47.1896 80.6503 44.9486C80.5033 44.9821 80.3698 45.0156 80.2362 45.0425Z" fill="white"/>
<path d="M50.9125 53.4297C50.9125 51.4973 50.9125 49.7259 50.9125 47.827C49.0222 47.827 47.232 47.827 45.2615 47.827C45.2615 49.6655 45.2615 51.4838 45.2615 53.4028C44.2262 53.4028 43.3645 53.4028 42.3625 53.4028C42.3625 49.008 42.3625 44.5862 42.3625 40.084C43.2509 40.084 44.1126 40.084 45.168 40.084C45.168 41.6608 45.168 43.251 45.168 44.9687C47.1385 44.9687 48.922 44.9687 50.8791 44.9687C50.8791 43.3516 50.8791 41.7614 50.8791 40.084C51.9078 40.084 52.7762 40.084 53.7714 40.084C53.7714 44.4923 53.7714 48.914 53.7714 53.4297C52.8496 53.4297 51.9813 53.4297 50.9125 53.4297Z" fill="white"/>
<path d="M61.9071 46.6327C61.9873 42.372 64.7527 39.4935 68.6803 39.5741C72.4877 39.6546 75.1396 42.6136 75.1329 46.7937C75.1329 50.9471 72.1938 54.1006 68.4265 53.9933C64.5322 53.8859 61.827 50.8263 61.9071 46.6327ZM72.2272 46.7468C72.1003 45.0693 71.8665 43.3986 70.1966 42.4592C68.7404 41.6339 66.81 42.0499 65.8281 43.3181C64.4788 45.0559 64.5122 48.6255 65.8815 50.2291C66.9436 51.4704 68.8339 51.826 70.2768 50.9672C71.8598 50.0345 72.127 48.4376 72.2272 46.7468Z" fill="white"/>
<path d="M29.2436 49.1556C30.0518 49.1556 30.8734 49.1556 31.695 49.1556C32.7771 51.3563 34.4136 52.1816 36.4509 51.3765C36.9853 51.1618 37.6466 50.5378 37.7067 50.0412C37.7602 49.5716 37.2057 48.7664 36.7181 48.5517C35.5158 48.0216 34.1932 47.7599 32.9308 47.3708C30.4392 46.6126 29.4106 45.3578 29.5575 43.298C29.6978 41.3991 31.3343 39.7955 33.6856 39.7149C35.1818 39.6613 36.7716 39.9162 38.1743 40.4329C39.5303 40.9361 40.1982 42.2244 40.1515 43.8549C38.8423 43.9085 37.5798 44.4722 36.7782 42.7276C36.2906 41.6675 33.9461 41.5668 33.0176 42.325C32.1158 43.0631 32.2828 44.2507 33.4451 44.66C34.6942 45.1029 36.0034 45.3646 37.2792 45.7269C39.5904 46.3844 40.7126 47.7062 40.6458 49.6655C40.579 51.7522 39.2163 53.4229 36.9185 53.6645C35.262 53.839 33.4918 53.7249 31.8887 53.2955C29.9449 52.7788 29.1367 51.2356 29.2436 49.1556Z" fill="white"/>
<path d="M52.5625 19.2167C52.5625 22.2562 52.5625 25.3024 52.5625 28.4292C53.2639 28.5365 53.845 28.6237 54.5397 28.7311C54.5397 29.4759 54.5397 30.2274 54.5397 31.0795C53.9519 31.1735 53.3707 31.2607 52.636 31.3747C52.636 32.455 52.636 33.5487 52.636 34.7833C51.634 34.7833 50.779 34.7833 49.6969 34.7833C49.6969 33.703 49.6969 32.5758 49.6969 31.2808C47.3924 31.2808 45.315 31.2808 43.1775 31.2808C42.7901 29.6772 42.8302 28.3889 43.8455 27.1073C45.4687 25.0676 47.0384 22.9674 48.4545 20.7734C49.4297 19.2704 50.5519 18.5793 52.5625 19.2167ZM49.5566 23.001C48.0737 25.0273 46.8714 26.6846 45.5488 28.4896C47.1119 28.4896 48.3009 28.4896 49.5566 28.4896C49.5566 26.7652 49.5566 25.1615 49.5566 23.001Z" fill="white"/>
<path d="M28.4824 53.3022C25.7971 53.8255 25.7905 53.7987 24.7217 51.4302C24.5547 51.0544 24.0871 50.5982 23.7264 50.5646C22.4573 50.4573 21.1681 50.4438 19.9057 50.5713C19.5182 50.6116 18.9505 51.1685 18.8703 51.5711C18.4562 53.6913 17.1069 53.8188 15.1898 53.3156C15.5505 52.3427 15.8979 51.3832 16.2652 50.4371C17.4809 47.2701 18.6633 44.0897 19.9591 40.963C20.1461 40.5201 20.9009 40.0504 21.3886 40.0572C22.1567 40.0572 23.4125 40.245 23.6062 40.7147C25.3296 44.8546 26.8726 49.075 28.4824 53.3022ZM21.796 43.1638C21.1013 45.1767 20.5803 46.673 20.0326 48.2497C21.3084 48.2497 22.3772 48.2497 23.5995 48.2497C23.0184 46.6126 22.4907 45.123 21.796 43.1638Z" fill="white"/>
<path d="M56.6836 40.0303C57.6388 40.0303 58.4604 40.0303 59.4289 40.0303C59.4289 44.452 59.4289 48.8603 59.4289 53.423C58.5606 53.423 57.6722 53.423 56.6836 53.423C56.6836 48.9811 56.6836 44.6064 56.6836 40.0303Z" fill="white"/>
<path d="M59.8365 34.8705C58.7878 34.8705 57.8192 34.8705 56.7238 34.8705C56.7238 33.8708 56.7238 32.8643 56.7238 31.7237C57.719 31.7237 58.721 31.7237 59.8365 31.7237C59.8365 32.7637 59.8365 33.7768 59.8365 34.8705Z" fill="white"/>
</g>
<defs>
<clipPath id="clip0">
<rect width="89" height="54" fill="white"/>
</clipPath>
</defs>
</svg>
