<svg width="36" height="36" viewBox="0 0 36 36" fill="none" xmlns="http://www.w3.org/2000/svg">
<path fill-rule="evenodd" clip-rule="evenodd" d="M17.8536 0C7.99331 0 0 7.99331 0 17.8536C0 27.7138 7.99331 35.7071 17.8536 35.7071C27.7138 35.7071 35.7071 27.7138 35.7071 17.8536C35.7071 7.99331 27.7138 0 17.8536 0ZM13.9286 8.38916C14.9442 8.34294 15.2688 8.33164 17.8548 8.33164H17.8518C20.4386 8.33164 20.762 8.34294 21.7777 8.38916C22.7914 8.43559 23.4837 8.59607 24.0907 8.83154C24.7176 9.07455 25.2472 9.39989 25.7769 9.92955C26.3066 10.4588 26.6319 10.9901 26.8759 11.6163C27.11 12.2218 27.2707 12.9137 27.3183 13.9274C27.3639 14.9431 27.3758 15.2676 27.3758 17.8536C27.3758 20.4396 27.3639 20.7634 27.3183 21.7791C27.2707 22.7924 27.11 23.4845 26.8759 24.0901C26.6319 24.7162 26.3066 25.2475 25.7769 25.7767C25.2478 26.3064 24.7174 26.6325 24.0913 26.8757C23.4855 27.1112 22.7927 27.2717 21.7791 27.3181C20.7634 27.3643 20.4398 27.3756 17.8536 27.3756C15.2678 27.3756 14.9434 27.3643 13.9278 27.3181C12.9143 27.2717 12.2221 27.1112 11.6163 26.8757C10.9904 26.6325 10.4592 26.3064 9.93012 25.7767C9.40066 25.2475 9.07532 24.7162 8.83192 24.0899C8.59664 23.4845 8.43616 22.7926 8.38954 21.7789C8.34352 20.7632 8.33201 20.4396 8.33201 17.8536C8.33201 15.2676 8.34391 14.9429 8.38934 13.9272C8.43497 12.9139 8.59565 12.2218 8.83172 11.6161C9.07572 10.9901 9.40105 10.4588 9.93071 9.92955C10.46 9.40008 10.9912 9.07475 11.6175 8.83154C12.2229 8.59607 12.9149 8.43559 13.9286 8.38916Z" fill="white"/>
<path fill-rule="evenodd" clip-rule="evenodd" d="M17.0007 10.0475C17.1665 10.0473 17.345 10.0474 17.5375 10.0475L17.8549 10.0475C20.3973 10.0475 20.6986 10.0567 21.7026 10.1023C22.631 10.1448 23.1348 10.2999 23.4705 10.4302C23.9148 10.6028 24.2316 10.8091 24.5647 11.1424C24.898 11.4756 25.1043 11.793 25.2773 12.2374C25.4076 12.5727 25.5629 13.0765 25.6052 14.0049C25.6508 15.0087 25.6607 15.3102 25.6607 17.8514C25.6607 20.3926 25.6508 20.6941 25.6052 21.6979C25.5627 22.6263 25.4076 23.1302 25.2773 23.4654C25.1047 23.9098 24.898 24.2262 24.5647 24.5593C24.2314 24.8925 23.915 25.0988 23.4705 25.2714C23.1352 25.4024 22.631 25.5571 21.7026 25.5995C20.6988 25.6452 20.3973 25.6551 17.8549 25.6551C15.3123 25.6551 15.011 25.6452 14.0072 25.5995C13.0788 25.5567 12.5749 25.4016 12.2391 25.2712C11.7947 25.0986 11.4773 24.8923 11.1441 24.5591C10.8108 24.2258 10.6045 23.9092 10.4315 23.4646C10.3012 23.1294 10.1458 22.6255 10.1036 21.6971C10.058 20.6933 10.0488 20.3918 10.0488 17.849C10.0488 15.3063 10.058 15.0063 10.1036 14.0025C10.146 13.0742 10.3012 12.5703 10.4315 12.2346C10.6041 11.7903 10.8108 11.4729 11.1441 11.1396C11.4773 10.8063 11.7947 10.6 12.2391 10.427C12.5747 10.2961 13.0788 10.1414 14.0072 10.0987C14.8856 10.0591 15.226 10.0471 17.0007 10.0452V10.0475ZM22.9381 11.6288C22.3072 11.6288 21.7954 12.14 21.7954 12.771C21.7954 13.4019 22.3072 13.9137 22.9381 13.9137C23.5689 13.9137 24.0807 13.4019 24.0807 12.771C24.0807 12.1402 23.5689 11.6284 22.9381 11.6284V11.6288ZM12.965 17.8537C12.965 15.1532 15.1545 12.9637 17.8549 12.9637H17.8547C20.5552 12.9637 22.7441 15.1532 22.7441 17.8537C22.7441 20.5542 20.5554 22.7426 17.8549 22.7426C15.1545 22.7426 12.965 20.5542 12.965 17.8537Z" fill="white"/>
<path d="M17.8537 14.6799C19.6065 14.6799 21.0277 16.1009 21.0277 17.8539C21.0277 19.6068 19.6065 21.0279 17.8537 21.0279C16.1006 21.0279 14.6797 19.6068 14.6797 17.8539C14.6797 16.1009 16.1006 14.6799 17.8537 14.6799Z" fill="white"/>
</svg>
