<svg viewBox="0 0 1368 256" fill="none" xmlns="http://www.w3.org/2000/svg">
<path d="M144.34 44.793H96.6934L81.4199 116.844H129.066C141.13 116.844 151.146 113.911 159.115 108.045C167.084 102.179 172.396 92.8822 175.053 80.1543C177.82 67.4264 176.381 58.3509 170.736 52.9277C165.202 47.5046 156.404 44.793 144.34 44.793ZM124.418 159.012H72.4551L53.8613 247H3.06055L55.0234 2.29297H161.605C186.176 2.29297 204.382 8.60156 216.225 21.2188C228.178 33.8359 231.387 53.3704 225.854 79.8223C219.656 108.709 207.979 129.129 190.824 141.082C173.669 153.035 151.534 159.012 124.418 159.012ZM343.227 159.012C339.906 160.893 336.586 162.443 333.266 163.66C329.945 164.767 325.518 165.818 319.984 166.814L309.027 168.807C298.624 170.577 290.987 172.736 286.117 175.281C277.927 179.598 272.891 186.294 271.01 195.369C269.239 203.449 270.18 209.314 273.832 212.967C277.595 216.508 282.686 218.279 289.105 218.279C299.288 218.279 309.304 215.291 319.154 209.314C329.005 203.338 335.811 192.436 339.574 176.609L343.227 159.012ZM319.154 136.932C328.23 135.825 334.815 134.441 338.91 132.781C346.215 129.904 350.531 125.421 351.859 119.334C353.409 111.919 351.915 106.827 347.377 104.061C342.839 101.183 335.59 99.7441 325.629 99.7441C314.451 99.7441 305.928 102.511 300.062 108.045C295.967 112.14 292.592 117.674 289.936 124.646H244.281C248.708 108.82 255.902 95.8151 265.863 85.6328C281.801 69.6953 304.988 61.7266 335.424 61.7266C355.235 61.7266 372.003 65.6556 385.727 73.5137C399.451 81.3717 403.988 96.2025 399.34 118.006L381.576 201.014C380.359 206.769 379.031 213.742 377.592 221.932C376.596 228.13 376.596 232.335 377.592 234.549C378.699 236.762 380.635 238.589 383.402 240.027L382.074 247H330.609C329.945 243.348 329.669 239.917 329.779 236.707C329.89 233.497 330.222 229.845 330.775 225.75C322.696 232.833 313.897 238.865 304.379 243.846C292.868 249.712 280.694 252.645 267.855 252.645C251.475 252.645 238.913 247.996 230.17 238.699C221.537 229.292 219.047 216.01 222.699 198.855C227.458 176.609 239.467 160.506 258.725 150.545C269.239 145.122 283.904 141.248 302.719 138.924L319.154 136.932ZM557.885 62.0586L547.592 110.535C544.714 110.203 542.113 109.982 539.789 109.871C537.465 109.76 535.583 109.705 534.145 109.705C515.108 109.705 500.997 115.903 491.811 128.299C486.719 135.271 482.624 146.007 479.525 160.506L461.264 247H413.617L451.967 66.043H497.123L490.482 97.5859C500.333 85.5221 508.412 77.2767 514.721 72.8496C525.235 65.4342 537.576 61.7266 551.742 61.7266C552.628 61.7266 553.347 61.7819 553.9 61.8926C554.564 61.8926 555.893 61.9479 557.885 62.0586ZM558.881 101.404L566.02 67.7031H591.254L602.045 17.2344H648.861L638.07 67.7031H667.455L660.316 101.404H630.932L610.512 197.029C608.962 204.445 608.907 209.093 610.346 210.975C611.895 212.745 617.484 213.631 627.113 213.631C628.552 213.631 630.046 213.631 631.596 213.631C633.256 213.52 634.916 213.41 636.576 213.299L628.939 248.66L606.361 249.49C583.894 250.265 569.451 246.391 563.031 237.869C558.936 232.446 558.051 224.09 560.375 212.801L584.115 101.404H558.881ZM849.74 125.145L823.842 247H775.365L798.607 136.932C800.71 127.413 800.987 120.109 799.438 115.018C796.781 105.721 788.923 101.072 775.863 101.072C759.815 101.072 747.364 107.879 738.51 121.492C733.861 128.686 730.375 137.872 728.051 149.051L707.299 247H660.15L698.5 66.375H744.154L738.51 92.7715C746.589 83.4746 753.783 76.7786 760.092 72.6836C771.381 65.3789 784.496 61.7266 799.438 61.7266C818.142 61.7266 832.364 66.6517 842.104 76.502C851.954 86.2415 854.499 102.456 849.74 125.145ZM925.277 138.426H998.822C1000.7 125.919 998.878 116.456 993.344 110.037C987.921 103.507 980.173 100.242 970.102 100.242C959.145 100.242 949.903 103.673 942.377 110.535C934.962 117.397 929.262 126.694 925.277 138.426ZM1041.49 96.4238C1046.36 107.16 1048.29 119.611 1047.3 133.777C1046.86 142.078 1044.86 154.031 1041.32 169.637H917.475C914.265 187.788 917.253 200.516 926.439 207.82C931.973 212.358 939.333 214.627 948.52 214.627C958.259 214.627 966.781 211.86 974.086 206.326C977.96 203.338 981.778 199.188 985.541 193.875H1033.85C1030.31 204.611 1022.4 215.512 1010.11 226.58C990.854 244.178 967.279 252.977 939.389 252.977C916.368 252.977 897.608 245.561 883.109 230.73C868.721 215.9 865.069 191.772 872.152 158.348C878.793 127.026 891.798 103.009 911.166 86.2969C930.645 69.5846 953.057 61.2285 978.402 61.2285C993.454 61.2285 1006.4 64.0508 1017.25 69.6953C1028.21 75.3398 1036.29 84.2493 1041.49 96.4238ZM1200.7 62.0586L1190.4 110.535C1187.53 110.203 1184.93 109.982 1182.6 109.871C1180.28 109.76 1178.4 109.705 1176.96 109.705C1157.92 109.705 1143.81 115.903 1134.62 128.299C1129.53 135.271 1125.44 146.007 1122.34 160.506L1104.08 247H1056.43L1094.78 66.043H1139.94L1133.29 97.5859C1143.15 85.5221 1151.22 77.2767 1157.53 72.8496C1168.05 65.4342 1180.39 61.7266 1194.55 61.7266C1195.44 61.7266 1196.16 61.7819 1196.71 61.8926C1197.38 61.8926 1198.71 61.9479 1200.7 62.0586ZM1238.38 189.227C1237.61 197.638 1238.55 203.615 1241.21 207.156C1245.63 213.465 1255.76 216.619 1271.59 216.619C1280.88 216.619 1288.57 215.236 1294.66 212.469C1300.75 209.702 1304.4 205.551 1305.62 200.018C1306.73 194.705 1305.34 190.665 1301.47 187.898C1297.6 185.132 1282.16 180.372 1255.15 173.621C1235.78 168.53 1222.72 162.166 1215.97 154.529C1209.11 147.003 1207.23 136.157 1210.33 121.99C1213.87 105.278 1223.44 90.9453 1239.05 78.9922C1254.76 66.9284 1274.52 60.8965 1298.31 60.8965C1320.89 60.8965 1338.32 65.4342 1350.61 74.5098C1362.89 83.4746 1367.76 99.0247 1365.22 121.16H1317.9C1318.46 115.073 1317.74 110.258 1315.75 106.717C1311.87 100.298 1303.68 97.0879 1291.18 97.0879C1280.88 97.0879 1273.19 98.6927 1268.1 101.902C1263.12 105.112 1260.19 108.875 1259.3 113.191C1258.08 118.615 1259.58 122.544 1263.78 124.979C1267.88 127.524 1283.37 131.896 1310.27 138.094C1328.09 142.521 1340.76 149.217 1348.29 158.182C1355.7 167.257 1357.97 178.602 1355.09 192.215C1351.22 210.145 1341.42 224.809 1325.71 236.209C1309.99 247.498 1288.19 253.143 1260.3 253.143C1231.85 253.143 1212.1 247.166 1201.03 235.213C1190.07 223.149 1186.53 207.82 1190.4 189.227H1238.38Z" fill="black"/>
<path d="M96.6934 44.793V42.793H95.0729L94.7368 44.3782L96.6934 44.793ZM81.4199 116.844L79.4634 116.429L78.9515 118.844H81.4199V116.844ZM175.053 80.1543L173.098 79.7294L173.097 79.7376L173.095 79.7457L175.053 80.1543ZM170.736 52.9277L169.336 54.3562L169.344 54.3631L169.351 54.3699L170.736 52.9277ZM72.4551 159.012V157.012H70.8336L70.4983 158.598L72.4551 159.012ZM53.8613 247V249H55.4829L55.8181 247.414L53.8613 247ZM3.06055 247L1.10417 246.585L0.591258 249H3.06055V247ZM55.0234 2.29297V0.292969H53.4035L53.0671 1.87754L55.0234 2.29297ZM216.225 21.2188L214.766 22.5875L214.773 22.5942L216.225 21.2188ZM225.854 79.8223L227.809 80.2418L227.811 80.2318L225.854 79.8223ZM144.34 42.793H96.6934V46.793H144.34V42.793ZM94.7368 44.3782L79.4634 116.429L83.3764 117.258L98.6499 45.2077L94.7368 44.3782ZM81.4199 118.844H129.066V114.844H81.4199V118.844ZM129.066 118.844C141.461 118.844 151.919 115.826 160.301 109.656L157.93 106.434C150.374 111.996 140.799 114.844 129.066 114.844V118.844ZM160.301 109.656C168.777 103.416 174.286 93.6182 177.011 80.5629L173.095 79.7457C170.507 92.1461 165.391 100.942 157.93 106.434L160.301 109.656ZM177.007 80.5792C179.821 67.6355 178.534 57.6459 172.122 51.4855L169.351 54.3699C174.228 59.0559 175.818 67.2174 173.098 79.7294L177.007 80.5792ZM172.136 51.4993C166.066 45.5506 156.644 42.793 144.34 42.793V46.793C156.163 46.793 164.339 49.4585 169.336 54.3562L172.136 51.4993ZM124.418 157.012H72.4551V161.012H124.418V157.012ZM70.4983 158.598L51.9045 246.586L55.8181 247.414L74.4119 159.425L70.4983 158.598ZM53.8613 245H3.06055V249H53.8613V245ZM5.01693 247.415L56.9798 2.7084L53.0671 1.87754L1.10417 246.585L5.01693 247.415ZM55.0234 4.29297H161.605V0.292969H55.0234V4.29297ZM161.605 4.29297C185.86 4.29297 203.438 10.518 214.766 22.5875L217.683 19.85C205.326 6.68509 186.492 0.292969 161.605 0.292969V4.29297ZM214.773 22.5942C226.066 34.5152 229.373 53.2339 223.896 79.4127L227.811 80.2318C233.402 53.5069 230.289 33.1567 217.677 19.8433L214.773 22.5942ZM223.898 79.4027C217.762 107.999 206.275 127.878 189.681 139.441L191.968 142.723C209.683 130.379 221.549 109.419 227.809 80.2418L223.898 79.4027ZM189.681 139.441C172.948 151.1 151.246 157.012 124.418 157.012V161.012C151.822 161.012 174.39 154.97 191.968 142.723L189.681 139.441ZM343.227 159.012L345.185 159.418L346.082 155.095L342.241 157.272L343.227 159.012ZM333.266 163.66L333.898 165.558L333.926 165.548L333.954 165.538L333.266 163.66ZM319.984 166.814L319.63 164.846L319.627 164.847L319.984 166.814ZM309.027 168.807L309.363 170.778L309.374 170.776L309.385 170.774L309.027 168.807ZM286.117 175.281L285.191 173.509L285.185 173.512L286.117 175.281ZM271.01 195.369L272.963 195.797L272.966 195.786L272.968 195.775L271.01 195.369ZM273.832 212.967L272.418 214.381L272.439 214.402L272.461 214.423L273.832 212.967ZM339.574 176.609L341.52 177.072L341.527 177.044L341.532 177.016L339.574 176.609ZM319.154 136.932L319.395 138.917L319.396 138.917L319.154 136.932ZM338.91 132.781L338.177 130.92L338.168 130.924L338.159 130.928L338.91 132.781ZM351.859 119.334L353.813 119.76L353.815 119.752L353.817 119.743L351.859 119.334ZM347.377 104.061L346.306 105.75L346.321 105.759L346.336 105.768L347.377 104.061ZM300.062 108.045L298.69 106.59L298.669 106.61L298.648 106.631L300.062 108.045ZM289.936 124.646V126.646H291.314L291.805 125.358L289.936 124.646ZM244.281 124.646L242.355 124.108L241.645 126.646H244.281V124.646ZM265.863 85.6328L264.449 84.2186L264.441 84.2264L264.434 84.2342L265.863 85.6328ZM399.34 118.006L401.296 118.424L401.296 118.423L399.34 118.006ZM381.576 201.014L379.62 200.595L379.619 200.6L381.576 201.014ZM377.592 221.932L375.622 221.586L375.619 221.6L375.617 221.614L377.592 221.932ZM377.592 234.549L375.768 235.37L375.785 235.407L375.803 235.443L377.592 234.549ZM383.402 240.027L385.367 240.402L385.646 238.94L384.325 238.253L383.402 240.027ZM382.074 247V249H383.729L384.039 247.374L382.074 247ZM330.609 247L328.642 247.358L328.94 249H330.609V247ZM330.775 225.75L332.757 226.018L333.473 220.726L329.457 224.246L330.775 225.75ZM304.379 243.846L305.287 245.628L305.297 245.623L305.306 245.618L304.379 243.846ZM230.17 238.699L228.696 240.051L228.705 240.06L228.713 240.069L230.17 238.699ZM222.699 198.855L220.743 198.437L220.743 198.439L222.699 198.855ZM258.725 150.545L257.808 148.767L257.806 148.768L258.725 150.545ZM302.719 138.924L302.478 136.938L302.474 136.939L302.719 138.924ZM342.241 157.272C339.008 159.103 335.787 160.605 332.577 161.782L333.954 165.538C337.385 164.28 340.804 162.683 344.213 160.752L342.241 157.272ZM332.633 161.763C329.441 162.827 325.119 163.858 319.63 164.846L320.339 168.783C325.918 167.779 330.449 166.707 333.898 165.558L332.633 161.763ZM319.627 164.847L308.67 166.839L309.385 170.774L320.342 168.782L319.627 164.847ZM308.692 166.835C298.235 168.615 290.346 170.814 285.191 173.509L287.044 177.054C291.628 174.657 299.012 172.54 309.363 170.778L308.692 166.835ZM285.185 173.512C276.466 178.107 271.054 185.304 269.051 194.963L272.968 195.775C274.729 187.284 279.389 181.088 287.05 177.051L285.185 173.512ZM269.056 194.941C267.23 203.271 268.045 210.008 272.418 214.381L275.246 211.553C272.315 208.621 271.247 203.626 272.963 195.797L269.056 194.941ZM272.461 214.423C276.68 218.394 282.306 220.279 289.105 220.279V216.279C283.066 216.279 278.51 214.623 275.203 211.51L272.461 214.423ZM289.105 220.279C299.7 220.279 310.071 217.165 320.192 211.024L318.117 207.605C308.537 213.417 298.876 216.279 289.105 216.279V220.279ZM320.192 211.024C330.66 204.673 337.685 193.202 341.52 177.072L337.628 176.147C333.938 191.67 327.349 202.003 318.117 207.605L320.192 211.024ZM341.532 177.016L345.185 159.418L341.268 158.605L337.616 176.203L341.532 177.016ZM319.396 138.917C328.502 137.806 335.308 136.4 339.662 134.635L338.159 130.928C334.322 132.483 327.958 133.843 318.912 134.946L319.396 138.917ZM339.643 134.642C347.386 131.592 352.306 126.67 353.813 119.76L349.905 118.908C348.757 124.172 345.043 128.216 338.177 130.92L339.643 134.642ZM353.817 119.743C354.632 115.842 354.691 112.359 353.82 109.391C352.933 106.367 351.111 103.995 348.418 102.353L346.336 105.768C348.181 106.893 349.375 108.45 349.982 110.517C350.605 112.641 350.636 115.41 349.902 118.925L353.817 119.743ZM348.448 102.372C343.417 99.1813 335.693 97.7441 325.629 97.7441V101.744C335.487 101.744 342.261 103.185 346.306 105.75L348.448 102.372ZM325.629 97.7441C314.139 97.7441 305.05 100.59 298.69 106.59L301.435 109.5C306.807 104.432 314.762 101.744 325.629 101.744V97.7441ZM298.648 106.631C294.305 110.974 290.795 116.771 288.067 123.934L291.805 125.358C294.388 118.576 297.63 113.306 301.477 109.459L298.648 106.631ZM289.936 122.646H244.281V126.646H289.936V122.646ZM246.207 125.185C250.558 109.632 257.601 96.9387 267.293 87.0314L264.434 84.2342C254.204 94.6915 246.859 108.007 242.355 124.108L246.207 125.185ZM267.277 87.047C282.724 71.601 305.327 63.7266 335.424 63.7266V59.7266C304.648 59.7266 280.878 67.7896 264.449 84.2186L267.277 87.047ZM335.424 63.7266C354.973 63.7266 371.379 67.6031 384.733 75.2493L386.72 71.778C372.626 63.7081 355.497 59.7266 335.424 59.7266V63.7266ZM384.733 75.2493C391.163 78.9311 395.394 84.1969 397.51 91.1154C399.646 98.0945 399.666 106.883 397.384 117.589L401.296 118.423C403.662 107.325 403.738 97.7968 401.335 89.9451C398.914 82.0329 394.014 75.9543 386.72 71.778L384.733 75.2493ZM397.384 117.587L379.62 200.595L383.532 201.432L401.296 118.424L397.384 117.587ZM379.619 200.6C378.396 206.385 377.063 213.381 375.622 221.586L379.562 222.278C380.998 214.102 382.322 207.153 383.533 201.428L379.619 200.6ZM375.617 221.614C375.11 224.772 374.845 227.487 374.845 229.734C374.845 231.943 375.098 233.881 375.768 235.37L379.416 233.728C379.089 233.003 378.845 231.732 378.845 229.734C378.845 227.776 379.078 225.289 379.566 222.249L375.617 221.614ZM375.803 235.443C377.142 238.122 379.437 240.219 382.48 241.802L384.325 238.253C381.834 236.958 380.255 235.402 379.381 233.654L375.803 235.443ZM381.438 239.653L380.11 246.626L384.039 247.374L385.367 240.402L381.438 239.653ZM382.074 245H330.609V249H382.074V245ZM332.577 246.642C331.935 243.109 331.673 239.823 331.778 236.776L327.78 236.638C327.664 240.011 327.956 243.586 328.642 247.358L332.577 246.642ZM331.778 236.776C331.886 233.649 332.211 230.065 332.757 226.018L328.793 225.482C328.233 229.626 327.894 233.346 327.78 236.638L331.778 236.776ZM329.457 224.246C321.497 231.225 312.829 237.167 303.452 242.074L305.306 245.618C314.965 240.564 323.895 234.442 332.094 227.254L329.457 224.246ZM303.471 242.064C292.24 247.787 280.376 250.645 267.855 250.645V254.645C281.012 254.645 293.497 251.636 305.287 245.628L303.471 242.064ZM267.855 250.645C251.862 250.645 239.892 246.118 231.627 237.329L228.713 240.069C237.935 249.875 251.089 254.645 267.855 254.645V250.645ZM231.644 237.347C223.599 228.581 221.083 216.05 224.655 199.272L220.743 198.439C217.01 215.971 219.475 230.002 228.696 240.051L231.644 237.347ZM224.655 199.274C229.296 177.58 240.946 161.992 259.643 152.321L257.806 148.768C237.987 159.019 225.621 175.639 220.743 198.437L224.655 199.274ZM259.641 152.322C269.858 147.053 284.259 143.219 302.964 140.909L302.474 136.939C283.548 139.277 268.62 143.191 257.808 148.767L259.641 152.322ZM302.959 140.909L319.395 138.917L318.914 134.946L302.478 136.938L302.959 140.909ZM557.885 62.0586L559.841 62.474L560.326 60.1911L557.996 60.0617L557.885 62.0586ZM547.592 110.535L547.363 112.522L549.17 112.731L549.548 110.951L547.592 110.535ZM491.811 128.299L490.204 127.108L490.199 127.114L490.195 127.119L491.811 128.299ZM479.525 160.506L477.57 160.088L477.569 160.093L479.525 160.506ZM461.264 247V249H462.885L463.221 247.413L461.264 247ZM413.617 247L411.661 246.585L411.149 249H413.617V247ZM451.967 66.043V64.043H450.346L450.01 65.6283L451.967 66.043ZM497.123 66.043L499.08 66.455L499.588 64.043H497.123V66.043ZM490.482 97.5859L488.525 97.1739L492.032 98.8509L490.482 97.5859ZM514.721 72.8496L515.87 74.4867L515.873 74.484L514.721 72.8496ZM553.9 61.8926L553.508 63.8537L553.702 63.8926H553.9V61.8926ZM555.928 61.6432L545.635 110.12L549.548 110.951L559.841 62.474L555.928 61.6432ZM547.821 108.548C544.909 108.212 542.262 107.987 539.884 107.873L539.694 111.869C541.964 111.977 544.519 112.194 547.363 112.522L547.821 108.548ZM539.884 107.873C537.545 107.762 535.628 107.705 534.145 107.705V111.705C535.538 111.705 537.385 111.759 539.694 111.869L539.884 107.873ZM534.145 107.705C514.64 107.705 499.856 114.084 490.204 127.108L493.417 129.49C502.138 117.722 515.576 111.705 534.145 111.705V107.705ZM490.195 127.119C484.86 134.427 480.691 145.484 477.57 160.088L481.481 160.924C484.558 146.531 488.579 136.116 493.426 129.478L490.195 127.119ZM477.569 160.093L459.307 246.587L463.221 247.413L481.482 160.919L477.569 160.093ZM461.264 245H413.617V249H461.264V245ZM415.574 247.415L453.923 66.4576L450.01 65.6283L411.661 246.585L415.574 247.415ZM451.967 68.043H497.123V64.043H451.967V68.043ZM495.166 65.6309L488.525 97.1739L492.44 97.998L499.08 66.455L495.166 65.6309ZM492.032 98.8509C501.859 86.8154 509.796 78.7488 515.87 74.4867L513.572 71.2125C507.028 75.8046 498.807 84.2289 488.933 96.321L492.032 98.8509ZM515.873 74.484C526.016 67.3306 537.945 63.7266 551.742 63.7266V59.7266C537.206 59.7266 524.454 63.5379 513.568 71.2152L515.873 74.484ZM551.742 63.7266C552.561 63.7266 553.135 63.7791 553.508 63.8537L554.293 59.9314C553.559 59.7847 552.694 59.7266 551.742 59.7266V63.7266ZM553.9 63.8926C554.5 63.8926 555.772 63.9443 557.774 64.0555L557.996 60.0617C556.013 59.9515 554.629 59.8926 553.9 59.8926V63.8926ZM558.881 101.404L556.924 100.99L556.413 103.404H558.881V101.404ZM566.02 67.7031V65.7031H564.399L564.063 67.2887L566.02 67.7031ZM591.254 67.7031V69.7031H592.871L593.21 68.1213L591.254 67.7031ZM602.045 17.2344V15.2344H600.427L600.089 16.8162L602.045 17.2344ZM648.861 17.2344L650.817 17.6526L651.334 15.2344H648.861V17.2344ZM638.07 67.7031L636.115 67.2849L635.597 69.7031H638.07V67.7031ZM667.455 67.7031L669.412 68.1176L669.923 65.7031H667.455V67.7031ZM660.316 101.404V103.404H661.937L662.273 101.819L660.316 101.404ZM630.932 101.404V99.4043H629.314L628.976 100.987L630.932 101.404ZM610.512 197.029L608.556 196.612L608.554 196.62L610.512 197.029ZM610.346 210.975L608.757 212.19L608.797 212.242L608.841 212.292L610.346 210.975ZM631.596 213.631V215.631H631.662L631.729 215.626L631.596 213.631ZM636.576 213.299L638.531 213.721L639.091 211.127L636.443 211.303L636.576 213.299ZM628.939 248.66L629.013 250.659L630.566 250.602L630.894 249.082L628.939 248.66ZM606.361 249.49L606.43 251.489L606.435 251.489L606.361 249.49ZM563.031 237.869L564.629 236.666L564.627 236.664L563.031 237.869ZM560.375 212.801L558.419 212.384L558.416 212.397L560.375 212.801ZM584.115 101.404L586.071 101.821L586.586 99.4043H584.115V101.404ZM560.837 101.819L567.976 68.1176L564.063 67.2887L556.924 100.99L560.837 101.819ZM566.02 69.7031H591.254V65.7031H566.02V69.7031ZM593.21 68.1213L604.001 17.6526L600.089 16.8162L589.298 67.2849L593.21 68.1213ZM602.045 19.2344H648.861V15.2344H602.045V19.2344ZM646.906 16.8162L636.115 67.2849L640.026 68.1213L650.817 17.6526L646.906 16.8162ZM638.07 69.7031H667.455V65.7031H638.07V69.7031ZM665.498 67.2887L658.36 100.99L662.273 101.819L669.412 68.1176L665.498 67.2887ZM660.316 99.4043H630.932V103.404H660.316V99.4043ZM628.976 100.987L608.556 196.612L612.468 197.447L632.888 101.822L628.976 100.987ZM608.554 196.62C607.767 200.386 607.338 203.545 607.308 206.053C607.28 208.459 607.606 210.684 608.757 212.19L611.934 209.76C611.647 209.384 611.281 208.343 611.308 206.101C611.333 203.961 611.707 201.088 612.469 197.438L608.554 196.62ZM608.841 212.292C609.542 213.093 610.536 213.627 611.568 214.011C612.629 214.406 613.915 214.709 615.387 214.942C618.332 215.409 622.256 215.631 627.113 215.631V211.631C622.342 211.631 618.657 211.41 616.013 210.991C614.69 210.782 613.686 210.532 612.963 210.262C612.21 209.982 611.924 209.741 611.851 209.658L608.841 212.292ZM627.113 215.631C627.116 215.631 627.119 215.631 627.122 215.631C627.125 215.631 627.127 215.631 627.13 215.631C627.133 215.631 627.136 215.631 627.139 215.631C627.141 215.631 627.144 215.631 627.147 215.631C627.15 215.631 627.153 215.631 627.155 215.631C627.158 215.631 627.161 215.631 627.164 215.631C627.167 215.631 627.17 215.631 627.172 215.631C627.175 215.631 627.178 215.631 627.181 215.631C627.184 215.631 627.186 215.631 627.189 215.631C627.192 215.631 627.195 215.631 627.198 215.631C627.2 215.631 627.203 215.631 627.206 215.631C627.209 215.631 627.212 215.631 627.215 215.631C627.217 215.631 627.22 215.631 627.223 215.631C627.226 215.631 627.229 215.631 627.231 215.631C627.234 215.631 627.237 215.631 627.24 215.631C627.243 215.631 627.246 215.631 627.248 215.631C627.251 215.631 627.254 215.631 627.257 215.631C627.26 215.631 627.262 215.631 627.265 215.631C627.268 215.631 627.271 215.631 627.274 215.631C627.277 215.631 627.279 215.631 627.282 215.631C627.285 215.631 627.288 215.631 627.291 215.631C627.293 215.631 627.296 215.631 627.299 215.631C627.302 215.631 627.305 215.631 627.308 215.631C627.31 215.631 627.313 215.631 627.316 215.631C627.319 215.631 627.322 215.631 627.324 215.631C627.327 215.631 627.33 215.631 627.333 215.631C627.336 215.631 627.339 215.631 627.341 215.631C627.344 215.631 627.347 215.631 627.35 215.631C627.353 215.631 627.355 215.631 627.358 215.631C627.361 215.631 627.364 215.631 627.367 215.631C627.37 215.631 627.372 215.631 627.375 215.631C627.378 215.631 627.381 215.631 627.384 215.631C627.387 215.631 627.389 215.631 627.392 215.631C627.395 215.631 627.398 215.631 627.401 215.631C627.403 215.631 627.406 215.631 627.409 215.631C627.412 215.631 627.415 215.631 627.418 215.631C627.42 215.631 627.423 215.631 627.426 215.631C627.429 215.631 627.432 215.631 627.435 215.631C627.437 215.631 627.44 215.631 627.443 215.631C627.446 215.631 627.449 215.631 627.452 215.631C627.454 215.631 627.457 215.631 627.46 215.631C627.463 215.631 627.466 215.631 627.468 215.631C627.471 215.631 627.474 215.631 627.477 215.631C627.48 215.631 627.483 215.631 627.485 215.631C627.488 215.631 627.491 215.631 627.494 215.631C627.497 215.631 627.5 215.631 627.502 215.631C627.505 215.631 627.508 215.631 627.511 215.631C627.514 215.631 627.517 215.631 627.519 215.631C627.522 215.631 627.525 215.631 627.528 215.631C627.531 215.631 627.534 215.631 627.536 215.631C627.539 215.631 627.542 215.631 627.545 215.631C627.548 215.631 627.551 215.631 627.553 215.631C627.556 215.631 627.559 215.631 627.562 215.631C627.565 215.631 627.568 215.631 627.57 215.631C627.573 215.631 627.576 215.631 627.579 215.631C627.582 215.631 627.585 215.631 627.587 215.631C627.59 215.631 627.593 215.631 627.596 215.631C627.599 215.631 627.602 215.631 627.604 215.631C627.607 215.631 627.61 215.631 627.613 215.631C627.616 215.631 627.619 215.631 627.621 215.631C627.624 215.631 627.627 215.631 627.63 215.631C627.633 215.631 627.636 215.631 627.638 215.631C627.641 215.631 627.644 215.631 627.647 215.631C627.65 215.631 627.653 215.631 627.655 215.631C627.658 215.631 627.661 215.631 627.664 215.631C627.667 215.631 627.67 215.631 627.672 215.631C627.675 215.631 627.678 215.631 627.681 215.631C627.684 215.631 627.687 215.631 627.689 215.631C627.692 215.631 627.695 215.631 627.698 215.631C627.701 215.631 627.704 215.631 627.707 215.631C627.709 215.631 627.712 215.631 627.715 215.631C627.718 215.631 627.721 215.631 627.724 215.631C627.726 215.631 627.729 215.631 627.732 215.631C627.735 215.631 627.738 215.631 627.741 215.631C627.743 215.631 627.746 215.631 627.749 215.631C627.752 215.631 627.755 215.631 627.758 215.631C627.76 215.631 627.763 215.631 627.766 215.631C627.769 215.631 627.772 215.631 627.775 215.631C627.778 215.631 627.78 215.631 627.783 215.631C627.786 215.631 627.789 215.631 627.792 215.631C627.795 215.631 627.797 215.631 627.8 215.631C627.803 215.631 627.806 215.631 627.809 215.631C627.812 215.631 627.815 215.631 627.817 215.631C627.82 215.631 627.823 215.631 627.826 215.631C627.829 215.631 627.832 215.631 627.834 215.631C627.837 215.631 627.84 215.631 627.843 215.631C627.846 215.631 627.849 215.631 627.852 215.631C627.854 215.631 627.857 215.631 627.86 215.631C627.863 215.631 627.866 215.631 627.869 215.631C627.871 215.631 627.874 215.631 627.877 215.631C627.88 215.631 627.883 215.631 627.886 215.631C627.889 215.631 627.891 215.631 627.894 215.631C627.897 215.631 627.9 215.631 627.903 215.631C627.906 215.631 627.908 215.631 627.911 215.631C627.914 215.631 627.917 215.631 627.92 215.631C627.923 215.631 627.926 215.631 627.928 215.631C627.931 215.631 627.934 215.631 627.937 215.631C627.94 215.631 627.943 215.631 627.946 215.631C627.948 215.631 627.951 215.631 627.954 215.631C627.957 215.631 627.96 215.631 627.963 215.631C627.966 215.631 627.968 215.631 627.971 215.631C627.974 215.631 627.977 215.631 627.98 215.631C627.983 215.631 627.985 215.631 627.988 215.631C627.991 215.631 627.994 215.631 627.997 215.631C628 215.631 628.003 215.631 628.005 215.631C628.008 215.631 628.011 215.631 628.014 215.631C628.017 215.631 628.02 215.631 628.023 215.631C628.025 215.631 628.028 215.631 628.031 215.631C628.034 215.631 628.037 215.631 628.04 215.631C628.043 215.631 628.045 215.631 628.048 215.631C628.051 215.631 628.054 215.631 628.057 215.631C628.06 215.631 628.063 215.631 628.065 215.631C628.068 215.631 628.071 215.631 628.074 215.631C628.077 215.631 628.08 215.631 628.083 215.631C628.085 215.631 628.088 215.631 628.091 215.631C628.094 215.631 628.097 215.631 628.1 215.631C628.103 215.631 628.105 215.631 628.108 215.631C628.111 215.631 628.114 215.631 628.117 215.631C628.12 215.631 628.123 215.631 628.125 215.631C628.128 215.631 628.131 215.631 628.134 215.631C628.137 215.631 628.14 215.631 628.143 215.631C628.146 215.631 628.148 215.631 628.151 215.631C628.154 215.631 628.157 215.631 628.16 215.631C628.163 215.631 628.166 215.631 628.168 215.631C628.171 215.631 628.174 215.631 628.177 215.631C628.18 215.631 628.183 215.631 628.186 215.631C628.188 215.631 628.191 215.631 628.194 215.631C628.197 215.631 628.2 215.631 628.203 215.631C628.206 215.631 628.208 215.631 628.211 215.631C628.214 215.631 628.217 215.631 628.22 215.631C628.223 215.631 628.226 215.631 628.229 215.631C628.231 215.631 628.234 215.631 628.237 215.631C628.24 215.631 628.243 215.631 628.246 215.631C628.249 215.631 628.251 215.631 628.254 215.631C628.257 215.631 628.26 215.631 628.263 215.631C628.266 215.631 628.269 215.631 628.272 215.631C628.274 215.631 628.277 215.631 628.28 215.631C628.283 215.631 628.286 215.631 628.289 215.631C628.292 215.631 628.294 215.631 628.297 215.631C628.3 215.631 628.303 215.631 628.306 215.631C628.309 215.631 628.312 215.631 628.315 215.631C628.317 215.631 628.32 215.631 628.323 215.631C628.326 215.631 628.329 215.631 628.332 215.631C628.335 215.631 628.338 215.631 628.34 215.631C628.343 215.631 628.346 215.631 628.349 215.631C628.352 215.631 628.355 215.631 628.358 215.631C628.361 215.631 628.363 215.631 628.366 215.631C628.369 215.631 628.372 215.631 628.375 215.631C628.378 215.631 628.381 215.631 628.383 215.631C628.386 215.631 628.389 215.631 628.392 215.631C628.395 215.631 628.398 215.631 628.401 215.631C628.404 215.631 628.406 215.631 628.409 215.631C628.412 215.631 628.415 215.631 628.418 215.631C628.421 215.631 628.424 215.631 628.427 215.631C628.429 215.631 628.432 215.631 628.435 215.631C628.438 215.631 628.441 215.631 628.444 215.631C628.447 215.631 628.45 215.631 628.452 215.631C628.455 215.631 628.458 215.631 628.461 215.631C628.464 215.631 628.467 215.631 628.47 215.631C628.473 215.631 628.475 215.631 628.478 215.631C628.481 215.631 628.484 215.631 628.487 215.631C628.49 215.631 628.493 215.631 628.496 215.631C628.499 215.631 628.501 215.631 628.504 215.631C628.507 215.631 628.51 215.631 628.513 215.631C628.516 215.631 628.519 215.631 628.522 215.631C628.524 215.631 628.527 215.631 628.53 215.631C628.533 215.631 628.536 215.631 628.539 215.631C628.542 215.631 628.545 215.631 628.547 215.631C628.55 215.631 628.553 215.631 628.556 215.631C628.559 215.631 628.562 215.631 628.565 215.631C628.568 215.631 628.571 215.631 628.573 215.631C628.576 215.631 628.579 215.631 628.582 215.631C628.585 215.631 628.588 215.631 628.591 215.631C628.594 215.631 628.596 215.631 628.599 215.631C628.602 215.631 628.605 215.631 628.608 215.631C628.611 215.631 628.614 215.631 628.617 215.631C628.62 215.631 628.622 215.631 628.625 215.631C628.628 215.631 628.631 215.631 628.634 215.631C628.637 215.631 628.64 215.631 628.643 215.631C628.646 215.631 628.648 215.631 628.651 215.631C628.654 215.631 628.657 215.631 628.66 215.631C628.663 215.631 628.666 215.631 628.669 215.631C628.671 215.631 628.674 215.631 628.677 215.631C628.68 215.631 628.683 215.631 628.686 215.631C628.689 215.631 628.692 215.631 628.695 215.631C628.697 215.631 628.7 215.631 628.703 215.631C628.706 215.631 628.709 215.631 628.712 215.631C628.715 215.631 628.718 215.631 628.721 215.631C628.723 215.631 628.726 215.631 628.729 215.631C628.732 215.631 628.735 215.631 628.738 215.631C628.741 215.631 628.744 215.631 628.747 215.631C628.749 215.631 628.752 215.631 628.755 215.631C628.758 215.631 628.761 215.631 628.764 215.631C628.767 215.631 628.77 215.631 628.773 215.631C628.776 215.631 628.778 215.631 628.781 215.631C628.784 215.631 628.787 215.631 628.79 215.631C628.793 215.631 628.796 215.631 628.799 215.631C628.802 215.631 628.804 215.631 628.807 215.631C628.81 215.631 628.813 215.631 628.816 215.631C628.819 215.631 628.822 215.631 628.825 215.631C628.828 215.631 628.83 215.631 628.833 215.631C628.836 215.631 628.839 215.631 628.842 215.631C628.845 215.631 628.848 215.631 628.851 215.631C628.854 215.631 628.857 215.631 628.859 215.631C628.862 215.631 628.865 215.631 628.868 215.631C628.871 215.631 628.874 215.631 628.877 215.631C628.88 215.631 628.883 215.631 628.886 215.631C628.888 215.631 628.891 215.631 628.894 215.631C628.897 215.631 628.9 215.631 628.903 215.631C628.906 215.631 628.909 215.631 628.912 215.631C628.915 215.631 628.917 215.631 628.92 215.631C628.923 215.631 628.926 215.631 628.929 215.631C628.932 215.631 628.935 215.631 628.938 215.631C628.941 215.631 628.944 215.631 628.946 215.631C628.949 215.631 628.952 215.631 628.955 215.631C628.958 215.631 628.961 215.631 628.964 215.631C628.967 215.631 628.97 215.631 628.973 215.631C628.975 215.631 628.978 215.631 628.981 215.631C628.984 215.631 628.987 215.631 628.99 215.631C628.993 215.631 628.996 215.631 628.999 215.631C629.002 215.631 629.004 215.631 629.007 215.631C629.01 215.631 629.013 215.631 629.016 215.631C629.019 215.631 629.022 215.631 629.025 215.631C629.028 215.631 629.031 215.631 629.033 215.631C629.036 215.631 629.039 215.631 629.042 215.631C629.045 215.631 629.048 215.631 629.051 215.631C629.054 215.631 629.057 215.631 629.06 215.631C629.063 215.631 629.065 215.631 629.068 215.631C629.071 215.631 629.074 215.631 629.077 215.631C629.08 215.631 629.083 215.631 629.086 215.631C629.089 215.631 629.092 215.631 629.095 215.631C629.097 215.631 629.1 215.631 629.103 215.631C629.106 215.631 629.109 215.631 629.112 215.631C629.115 215.631 629.118 215.631 629.121 215.631C629.124 215.631 629.127 215.631 629.129 215.631C629.132 215.631 629.135 215.631 629.138 215.631C629.141 215.631 629.144 215.631 629.147 215.631C629.15 215.631 629.153 215.631 629.156 215.631C629.159 215.631 629.161 215.631 629.164 215.631C629.167 215.631 629.17 215.631 629.173 215.631C629.176 215.631 629.179 215.631 629.182 215.631C629.185 215.631 629.188 215.631 629.191 215.631C629.193 215.631 629.196 215.631 629.199 215.631C629.202 215.631 629.205 215.631 629.208 215.631C629.211 215.631 629.214 215.631 629.217 215.631C629.22 215.631 629.223 215.631 629.226 215.631C629.228 215.631 629.231 215.631 629.234 215.631C629.237 215.631 629.24 215.631 629.243 215.631C629.246 215.631 629.249 215.631 629.252 215.631C629.255 215.631 629.258 215.631 629.26 215.631C629.263 215.631 629.266 215.631 629.269 215.631C629.272 215.631 629.275 215.631 629.278 215.631C629.281 215.631 629.284 215.631 629.287 215.631C629.29 215.631 629.293 215.631 629.295 215.631C629.298 215.631 629.301 215.631 629.304 215.631C629.307 215.631 629.31 215.631 629.313 215.631C629.316 215.631 629.319 215.631 629.322 215.631C629.325 215.631 629.328 215.631 629.331 215.631C629.333 215.631 629.336 215.631 629.339 215.631C629.342 215.631 629.345 215.631 629.348 215.631C629.351 215.631 629.354 215.631 629.357 215.631C629.36 215.631 629.363 215.631 629.366 215.631C629.368 215.631 629.371 215.631 629.374 215.631C629.377 215.631 629.38 215.631 629.383 215.631C629.386 215.631 629.389 215.631 629.392 215.631C629.395 215.631 629.398 215.631 629.401 215.631C629.404 215.631 629.406 215.631 629.409 215.631C629.412 215.631 629.415 215.631 629.418 215.631C629.421 215.631 629.424 215.631 629.427 215.631C629.43 215.631 629.433 215.631 629.436 215.631C629.439 215.631 629.442 215.631 629.444 215.631C629.447 215.631 629.45 215.631 629.453 215.631C629.456 215.631 629.459 215.631 629.462 215.631C629.465 215.631 629.468 215.631 629.471 215.631C629.474 215.631 629.477 215.631 629.48 215.631C629.482 215.631 629.485 215.631 629.488 215.631C629.491 215.631 629.494 215.631 629.497 215.631C629.5 215.631 629.503 215.631 629.506 215.631C629.509 215.631 629.512 215.631 629.515 215.631C629.518 215.631 629.521 215.631 629.523 215.631C629.526 215.631 629.529 215.631 629.532 215.631C629.535 215.631 629.538 215.631 629.541 215.631C629.544 215.631 629.547 215.631 629.55 215.631C629.553 215.631 629.556 215.631 629.559 215.631C629.562 215.631 629.564 215.631 629.567 215.631C629.57 215.631 629.573 215.631 629.576 215.631C629.579 215.631 629.582 215.631 629.585 215.631C629.588 215.631 629.591 215.631 629.594 215.631C629.597 215.631 629.6 215.631 629.603 215.631C629.606 215.631 629.608 215.631 629.611 215.631C629.614 215.631 629.617 215.631 629.62 215.631C629.623 215.631 629.626 215.631 629.629 215.631C629.632 215.631 629.635 215.631 629.638 215.631C629.641 215.631 629.644 215.631 629.647 215.631C629.65 215.631 629.652 215.631 629.655 215.631C629.658 215.631 629.661 215.631 629.664 215.631C629.667 215.631 629.67 215.631 629.673 215.631C629.676 215.631 629.679 215.631 629.682 215.631C629.685 215.631 629.688 215.631 629.691 215.631C629.694 215.631 629.696 215.631 629.699 215.631C629.702 215.631 629.705 215.631 629.708 215.631C629.711 215.631 629.714 215.631 629.717 215.631C629.72 215.631 629.723 215.631 629.726 215.631C629.729 215.631 629.732 215.631 629.735 215.631C629.738 215.631 629.741 215.631 629.743 215.631C629.746 215.631 629.749 215.631 629.752 215.631C629.755 215.631 629.758 215.631 629.761 215.631C629.764 215.631 629.767 215.631 629.77 215.631C629.773 215.631 629.776 215.631 629.779 215.631C629.782 215.631 629.785 215.631 629.788 215.631C629.791 215.631 629.793 215.631 629.796 215.631C629.799 215.631 629.802 215.631 629.805 215.631C629.808 215.631 629.811 215.631 629.814 215.631C629.817 215.631 629.82 215.631 629.823 215.631C629.826 215.631 629.829 215.631 629.832 215.631C629.835 215.631 629.838 215.631 629.841 215.631C629.843 215.631 629.846 215.631 629.849 215.631C629.852 215.631 629.855 215.631 629.858 215.631C629.861 215.631 629.864 215.631 629.867 215.631C629.87 215.631 629.873 215.631 629.876 215.631C629.879 215.631 629.882 215.631 629.885 215.631C629.888 215.631 629.891 215.631 629.894 215.631C629.897 215.631 629.899 215.631 629.902 215.631C629.905 215.631 629.908 215.631 629.911 215.631C629.914 215.631 629.917 215.631 629.92 215.631C629.923 215.631 629.926 215.631 629.929 215.631C629.932 215.631 629.935 215.631 629.938 215.631C629.941 215.631 629.944 215.631 629.947 215.631C629.95 215.631 629.953 215.631 629.955 215.631C629.958 215.631 629.961 215.631 629.964 215.631C629.967 215.631 629.97 215.631 629.973 215.631C629.976 215.631 629.979 215.631 629.982 215.631C629.985 215.631 629.988 215.631 629.991 215.631C629.994 215.631 629.997 215.631 630 215.631C630.003 215.631 630.006 215.631 630.009 215.631C630.012 215.631 630.014 215.631 630.017 215.631C630.02 215.631 630.023 215.631 630.026 215.631C630.029 215.631 630.032 215.631 630.035 215.631C630.038 215.631 630.041 215.631 630.044 215.631C630.047 215.631 630.05 215.631 630.053 215.631C630.056 215.631 630.059 215.631 630.062 215.631C630.065 215.631 630.068 215.631 630.071 215.631C630.074 215.631 630.076 215.631 630.079 215.631C630.082 215.631 630.085 215.631 630.088 215.631C630.091 215.631 630.094 215.631 630.097 215.631C630.1 215.631 630.103 215.631 630.106 215.631C630.109 215.631 630.112 215.631 630.115 215.631C630.118 215.631 630.121 215.631 630.124 215.631C630.127 215.631 630.13 215.631 630.133 215.631C630.136 215.631 630.139 215.631 630.142 215.631C630.144 215.631 630.147 215.631 630.15 215.631C630.153 215.631 630.156 215.631 630.159 215.631C630.162 215.631 630.165 215.631 630.168 215.631C630.171 215.631 630.174 215.631 630.177 215.631C630.18 215.631 630.183 215.631 630.186 215.631C630.189 215.631 630.192 215.631 630.195 215.631C630.198 215.631 630.201 215.631 630.204 215.631C630.207 215.631 630.21 215.631 630.213 215.631C630.216 215.631 630.218 215.631 630.221 215.631C630.224 215.631 630.227 215.631 630.23 215.631C630.233 215.631 630.236 215.631 630.239 215.631C630.242 215.631 630.245 215.631 630.248 215.631C630.251 215.631 630.254 215.631 630.257 215.631C630.26 215.631 630.263 215.631 630.266 215.631C630.269 215.631 630.272 215.631 630.275 215.631C630.278 215.631 630.281 215.631 630.284 215.631C630.287 215.631 630.29 215.631 630.293 215.631C630.296 215.631 630.298 215.631 630.301 215.631C630.304 215.631 630.307 215.631 630.31 215.631C630.313 215.631 630.316 215.631 630.319 215.631C630.322 215.631 630.325 215.631 630.328 215.631C630.331 215.631 630.334 215.631 630.337 215.631C630.34 215.631 630.343 215.631 630.346 215.631C630.349 215.631 630.352 215.631 630.355 215.631C630.358 215.631 630.361 215.631 630.364 215.631C630.367 215.631 630.37 215.631 630.373 215.631C630.376 215.631 630.379 215.631 630.382 215.631C630.385 215.631 630.388 215.631 630.39 215.631C630.393 215.631 630.396 215.631 630.399 215.631C630.402 215.631 630.405 215.631 630.408 215.631C630.411 215.631 630.414 215.631 630.417 215.631C630.42 215.631 630.423 215.631 630.426 215.631C630.429 215.631 630.432 215.631 630.435 215.631C630.438 215.631 630.441 215.631 630.444 215.631C630.447 215.631 630.45 215.631 630.453 215.631C630.456 215.631 630.459 215.631 630.462 215.631C630.465 215.631 630.468 215.631 630.471 215.631C630.474 215.631 630.477 215.631 630.48 215.631C630.483 215.631 630.486 215.631 630.489 215.631C630.492 215.631 630.495 215.631 630.497 215.631C630.5 215.631 630.503 215.631 630.506 215.631C630.509 215.631 630.512 215.631 630.515 215.631C630.518 215.631 630.521 215.631 630.524 215.631C630.527 215.631 630.53 215.631 630.533 215.631C630.536 215.631 630.539 215.631 630.542 215.631C630.545 215.631 630.548 215.631 630.551 215.631C630.554 215.631 630.557 215.631 630.56 215.631C630.563 215.631 630.566 215.631 630.569 215.631C630.572 215.631 630.575 215.631 630.578 215.631C630.581 215.631 630.584 215.631 630.587 215.631C630.59 215.631 630.593 215.631 630.596 215.631C630.599 215.631 630.602 215.631 630.605 215.631C630.608 215.631 630.611 215.631 630.614 215.631C630.617 215.631 630.62 215.631 630.623 215.631C630.626 215.631 630.629 215.631 630.632 215.631C630.634 215.631 630.637 215.631 630.64 215.631C630.643 215.631 630.646 215.631 630.649 215.631C630.652 215.631 630.655 215.631 630.658 215.631C630.661 215.631 630.664 215.631 630.667 215.631C630.67 215.631 630.673 215.631 630.676 215.631C630.679 215.631 630.682 215.631 630.685 215.631C630.688 215.631 630.691 215.631 630.694 215.631C630.697 215.631 630.7 215.631 630.703 215.631C630.706 215.631 630.709 215.631 630.712 215.631C630.715 215.631 630.718 215.631 630.721 215.631C630.724 215.631 630.727 215.631 630.73 215.631C630.733 215.631 630.736 215.631 630.739 215.631C630.742 215.631 630.745 215.631 630.748 215.631C630.751 215.631 630.754 215.631 630.757 215.631C630.76 215.631 630.763 215.631 630.766 215.631C630.769 215.631 630.772 215.631 630.775 215.631C630.778 215.631 630.781 215.631 630.784 215.631C630.787 215.631 630.79 215.631 630.793 215.631C630.796 215.631 630.799 215.631 630.802 215.631C630.805 215.631 630.808 215.631 630.811 215.631C630.814 215.631 630.817 215.631 630.82 215.631C630.823 215.631 630.826 215.631 630.829 215.631C630.832 215.631 630.835 215.631 630.838 215.631C630.841 215.631 630.844 215.631 630.847 215.631C630.85 215.631 630.852 215.631 630.855 215.631C630.858 215.631 630.861 215.631 630.864 215.631C630.867 215.631 630.87 215.631 630.873 215.631C630.876 215.631 630.879 215.631 630.882 215.631C630.885 215.631 630.888 215.631 630.891 215.631C630.894 215.631 630.897 215.631 630.9 215.631C630.903 215.631 630.906 215.631 630.909 215.631C630.912 215.631 630.915 215.631 630.918 215.631C630.921 215.631 630.924 215.631 630.927 215.631C630.93 215.631 630.933 215.631 630.936 215.631C630.939 215.631 630.942 215.631 630.945 215.631C630.948 215.631 630.951 215.631 630.954 215.631C630.957 215.631 630.96 215.631 630.963 215.631C630.966 215.631 630.969 215.631 630.972 215.631C630.975 215.631 630.978 215.631 630.981 215.631C630.984 215.631 630.987 215.631 630.99 215.631C630.993 215.631 630.996 215.631 630.999 215.631C631.002 215.631 631.005 215.631 631.008 215.631C631.011 215.631 631.014 215.631 631.017 215.631C631.02 215.631 631.023 215.631 631.026 215.631C631.029 215.631 631.032 215.631 631.035 215.631C631.038 215.631 631.041 215.631 631.044 215.631C631.047 215.631 631.05 215.631 631.053 215.631C631.056 215.631 631.059 215.631 631.062 215.631C631.065 215.631 631.068 215.631 631.071 215.631C631.074 215.631 631.077 215.631 631.08 215.631C631.083 215.631 631.086 215.631 631.089 215.631C631.092 215.631 631.095 215.631 631.098 215.631C631.101 215.631 631.104 215.631 631.107 215.631C631.11 215.631 631.113 215.631 631.116 215.631C631.119 215.631 631.122 215.631 631.125 215.631C631.128 215.631 631.131 215.631 631.134 215.631C631.137 215.631 631.14 215.631 631.143 215.631C631.146 215.631 631.149 215.631 631.152 215.631C631.155 215.631 631.158 215.631 631.161 215.631C631.164 215.631 631.167 215.631 631.17 215.631C631.173 215.631 631.176 215.631 631.179 215.631C631.182 215.631 631.185 215.631 631.188 215.631C631.191 215.631 631.194 215.631 631.197 215.631C631.2 215.631 631.203 215.631 631.206 215.631C631.209 215.631 631.212 215.631 631.216 215.631C631.219 215.631 631.222 215.631 631.225 215.631C631.228 215.631 631.231 215.631 631.234 215.631C631.237 215.631 631.24 215.631 631.243 215.631C631.246 215.631 631.249 215.631 631.252 215.631C631.255 215.631 631.258 215.631 631.261 215.631C631.264 215.631 631.267 215.631 631.27 215.631C631.273 215.631 631.276 215.631 631.279 215.631C631.282 215.631 631.285 215.631 631.288 215.631C631.291 215.631 631.294 215.631 631.297 215.631C631.3 215.631 631.303 215.631 631.306 215.631C631.309 215.631 631.312 215.631 631.315 215.631C631.318 215.631 631.321 215.631 631.324 215.631C631.327 215.631 631.33 215.631 631.333 215.631C631.336 215.631 631.339 215.631 631.342 215.631C631.345 215.631 631.348 215.631 631.351 215.631C631.354 215.631 631.357 215.631 631.36 215.631C631.363 215.631 631.366 215.631 631.369 215.631C631.372 215.631 631.375 215.631 631.378 215.631C631.381 215.631 631.384 215.631 631.387 215.631C631.39 215.631 631.393 215.631 631.396 215.631C631.399 215.631 631.402 215.631 631.405 215.631C631.408 215.631 631.411 215.631 631.414 215.631C631.417 215.631 631.42 215.631 631.423 215.631C631.426 215.631 631.429 215.631 631.432 215.631C631.436 215.631 631.439 215.631 631.442 215.631C631.445 215.631 631.448 215.631 631.451 215.631C631.454 215.631 631.457 215.631 631.46 215.631C631.463 215.631 631.466 215.631 631.469 215.631C631.472 215.631 631.475 215.631 631.478 215.631C631.481 215.631 631.484 215.631 631.487 215.631C631.49 215.631 631.493 215.631 631.496 215.631C631.499 215.631 631.502 215.631 631.505 215.631C631.508 215.631 631.511 215.631 631.514 215.631C631.517 215.631 631.52 215.631 631.523 215.631C631.526 215.631 631.529 215.631 631.532 215.631C631.535 215.631 631.538 215.631 631.541 215.631C631.544 215.631 631.547 215.631 631.55 215.631C631.553 215.631 631.556 215.631 631.559 215.631C631.562 215.631 631.565 215.631 631.568 215.631C631.571 215.631 631.575 215.631 631.578 215.631C631.581 215.631 631.584 215.631 631.587 215.631C631.59 215.631 631.593 215.631 631.596 215.631V211.631C631.593 211.631 631.59 211.631 631.587 211.631C631.584 211.631 631.581 211.631 631.578 211.631C631.575 211.631 631.571 211.631 631.568 211.631C631.565 211.631 631.562 211.631 631.559 211.631C631.556 211.631 631.553 211.631 631.55 211.631C631.547 211.631 631.544 211.631 631.541 211.631C631.538 211.631 631.535 211.631 631.532 211.631C631.529 211.631 631.526 211.631 631.523 211.631C631.52 211.631 631.517 211.631 631.514 211.631C631.511 211.631 631.508 211.631 631.505 211.631C631.502 211.631 631.499 211.631 631.496 211.631C631.493 211.631 631.49 211.631 631.487 211.631C631.484 211.631 631.481 211.631 631.478 211.631C631.475 211.631 631.472 211.631 631.469 211.631C631.466 211.631 631.463 211.631 631.46 211.631C631.457 211.631 631.454 211.631 631.451 211.631C631.448 211.631 631.445 211.631 631.442 211.631C631.439 211.631 631.436 211.631 631.432 211.631C631.429 211.631 631.426 211.631 631.423 211.631C631.42 211.631 631.417 211.631 631.414 211.631C631.411 211.631 631.408 211.631 631.405 211.631C631.402 211.631 631.399 211.631 631.396 211.631C631.393 211.631 631.39 211.631 631.387 211.631C631.384 211.631 631.381 211.631 631.378 211.631C631.375 211.631 631.372 211.631 631.369 211.631C631.366 211.631 631.363 211.631 631.36 211.631C631.357 211.631 631.354 211.631 631.351 211.631C631.348 211.631 631.345 211.631 631.342 211.631C631.339 211.631 631.336 211.631 631.333 211.631C631.33 211.631 631.327 211.631 631.324 211.631C631.321 211.631 631.318 211.631 631.315 211.631C631.312 211.631 631.309 211.631 631.306 211.631C631.303 211.631 631.3 211.631 631.297 211.631C631.294 211.631 631.291 211.631 631.288 211.631C631.285 211.631 631.282 211.631 631.279 211.631C631.276 211.631 631.273 211.631 631.27 211.631C631.267 211.631 631.264 211.631 631.261 211.631C631.258 211.631 631.255 211.631 631.252 211.631C631.249 211.631 631.246 211.631 631.243 211.631C631.24 211.631 631.237 211.631 631.234 211.631C631.231 211.631 631.228 211.631 631.225 211.631C631.222 211.631 631.219 211.631 631.216 211.631C631.212 211.631 631.209 211.631 631.206 211.631C631.203 211.631 631.2 211.631 631.197 211.631C631.194 211.631 631.191 211.631 631.188 211.631C631.185 211.631 631.182 211.631 631.179 211.631C631.176 211.631 631.173 211.631 631.17 211.631C631.167 211.631 631.164 211.631 631.161 211.631C631.158 211.631 631.155 211.631 631.152 211.631C631.149 211.631 631.146 211.631 631.143 211.631C631.14 211.631 631.137 211.631 631.134 211.631C631.131 211.631 631.128 211.631 631.125 211.631C631.122 211.631 631.119 211.631 631.116 211.631C631.113 211.631 631.11 211.631 631.107 211.631C631.104 211.631 631.101 211.631 631.098 211.631C631.095 211.631 631.092 211.631 631.089 211.631C631.086 211.631 631.083 211.631 631.08 211.631C631.077 211.631 631.074 211.631 631.071 211.631C631.068 211.631 631.065 211.631 631.062 211.631C631.059 211.631 631.056 211.631 631.053 211.631C631.05 211.631 631.047 211.631 631.044 211.631C631.041 211.631 631.038 211.631 631.035 211.631C631.032 211.631 631.029 211.631 631.026 211.631C631.023 211.631 631.02 211.631 631.017 211.631C631.014 211.631 631.011 211.631 631.008 211.631C631.005 211.631 631.002 211.631 630.999 211.631C630.996 211.631 630.993 211.631 630.99 211.631C630.987 211.631 630.984 211.631 630.981 211.631C630.978 211.631 630.975 211.631 630.972 211.631C630.969 211.631 630.966 211.631 630.963 211.631C630.96 211.631 630.957 211.631 630.954 211.631C630.951 211.631 630.948 211.631 630.945 211.631C630.942 211.631 630.939 211.631 630.936 211.631C630.933 211.631 630.93 211.631 630.927 211.631C630.924 211.631 630.921 211.631 630.918 211.631C630.915 211.631 630.912 211.631 630.909 211.631C630.906 211.631 630.903 211.631 630.9 211.631C630.897 211.631 630.894 211.631 630.891 211.631C630.888 211.631 630.885 211.631 630.882 211.631C630.879 211.631 630.876 211.631 630.873 211.631C630.87 211.631 630.867 211.631 630.864 211.631C630.861 211.631 630.858 211.631 630.855 211.631C630.852 211.631 630.85 211.631 630.847 211.631C630.844 211.631 630.841 211.631 630.838 211.631C630.835 211.631 630.832 211.631 630.829 211.631C630.826 211.631 630.823 211.631 630.82 211.631C630.817 211.631 630.814 211.631 630.811 211.631C630.808 211.631 630.805 211.631 630.802 211.631C630.799 211.631 630.796 211.631 630.793 211.631C630.79 211.631 630.787 211.631 630.784 211.631C630.781 211.631 630.778 211.631 630.775 211.631C630.772 211.631 630.769 211.631 630.766 211.631C630.763 211.631 630.76 211.631 630.757 211.631C630.754 211.631 630.751 211.631 630.748 211.631C630.745 211.631 630.742 211.631 630.739 211.631C630.736 211.631 630.733 211.631 630.73 211.631C630.727 211.631 630.724 211.631 630.721 211.631C630.718 211.631 630.715 211.631 630.712 211.631C630.709 211.631 630.706 211.631 630.703 211.631C630.7 211.631 630.697 211.631 630.694 211.631C630.691 211.631 630.688 211.631 630.685 211.631C630.682 211.631 630.679 211.631 630.676 211.631C630.673 211.631 630.67 211.631 630.667 211.631C630.664 211.631 630.661 211.631 630.658 211.631C630.655 211.631 630.652 211.631 630.649 211.631C630.646 211.631 630.643 211.631 630.64 211.631C630.637 211.631 630.634 211.631 630.632 211.631C630.629 211.631 630.626 211.631 630.623 211.631C630.62 211.631 630.617 211.631 630.614 211.631C630.611 211.631 630.608 211.631 630.605 211.631C630.602 211.631 630.599 211.631 630.596 211.631C630.593 211.631 630.59 211.631 630.587 211.631C630.584 211.631 630.581 211.631 630.578 211.631C630.575 211.631 630.572 211.631 630.569 211.631C630.566 211.631 630.563 211.631 630.56 211.631C630.557 211.631 630.554 211.631 630.551 211.631C630.548 211.631 630.545 211.631 630.542 211.631C630.539 211.631 630.536 211.631 630.533 211.631C630.53 211.631 630.527 211.631 630.524 211.631C630.521 211.631 630.518 211.631 630.515 211.631C630.512 211.631 630.509 211.631 630.506 211.631C630.503 211.631 630.5 211.631 630.497 211.631C630.495 211.631 630.492 211.631 630.489 211.631C630.486 211.631 630.483 211.631 630.48 211.631C630.477 211.631 630.474 211.631 630.471 211.631C630.468 211.631 630.465 211.631 630.462 211.631C630.459 211.631 630.456 211.631 630.453 211.631C630.45 211.631 630.447 211.631 630.444 211.631C630.441 211.631 630.438 211.631 630.435 211.631C630.432 211.631 630.429 211.631 630.426 211.631C630.423 211.631 630.42 211.631 630.417 211.631C630.414 211.631 630.411 211.631 630.408 211.631C630.405 211.631 630.402 211.631 630.399 211.631C630.396 211.631 630.393 211.631 630.39 211.631C630.388 211.631 630.385 211.631 630.382 211.631C630.379 211.631 630.376 211.631 630.373 211.631C630.37 211.631 630.367 211.631 630.364 211.631C630.361 211.631 630.358 211.631 630.355 211.631C630.352 211.631 630.349 211.631 630.346 211.631C630.343 211.631 630.34 211.631 630.337 211.631C630.334 211.631 630.331 211.631 630.328 211.631C630.325 211.631 630.322 211.631 630.319 211.631C630.316 211.631 630.313 211.631 630.31 211.631C630.307 211.631 630.304 211.631 630.301 211.631C630.298 211.631 630.296 211.631 630.293 211.631C630.29 211.631 630.287 211.631 630.284 211.631C630.281 211.631 630.278 211.631 630.275 211.631C630.272 211.631 630.269 211.631 630.266 211.631C630.263 211.631 630.26 211.631 630.257 211.631C630.254 211.631 630.251 211.631 630.248 211.631C630.245 211.631 630.242 211.631 630.239 211.631C630.236 211.631 630.233 211.631 630.23 211.631C630.227 211.631 630.224 211.631 630.221 211.631C630.218 211.631 630.216 211.631 630.213 211.631C630.21 211.631 630.207 211.631 630.204 211.631C630.201 211.631 630.198 211.631 630.195 211.631C630.192 211.631 630.189 211.631 630.186 211.631C630.183 211.631 630.18 211.631 630.177 211.631C630.174 211.631 630.171 211.631 630.168 211.631C630.165 211.631 630.162 211.631 630.159 211.631C630.156 211.631 630.153 211.631 630.15 211.631C630.147 211.631 630.144 211.631 630.142 211.631C630.139 211.631 630.136 211.631 630.133 211.631C630.13 211.631 630.127 211.631 630.124 211.631C630.121 211.631 630.118 211.631 630.115 211.631C630.112 211.631 630.109 211.631 630.106 211.631C630.103 211.631 630.1 211.631 630.097 211.631C630.094 211.631 630.091 211.631 630.088 211.631C630.085 211.631 630.082 211.631 630.079 211.631C630.076 211.631 630.074 211.631 630.071 211.631C630.068 211.631 630.065 211.631 630.062 211.631C630.059 211.631 630.056 211.631 630.053 211.631C630.05 211.631 630.047 211.631 630.044 211.631C630.041 211.631 630.038 211.631 630.035 211.631C630.032 211.631 630.029 211.631 630.026 211.631C630.023 211.631 630.02 211.631 630.017 211.631C630.014 211.631 630.012 211.631 630.009 211.631C630.006 211.631 630.003 211.631 630 211.631C629.997 211.631 629.994 211.631 629.991 211.631C629.988 211.631 629.985 211.631 629.982 211.631C629.979 211.631 629.976 211.631 629.973 211.631C629.97 211.631 629.967 211.631 629.964 211.631C629.961 211.631 629.958 211.631 629.955 211.631C629.953 211.631 629.95 211.631 629.947 211.631C629.944 211.631 629.941 211.631 629.938 211.631C629.935 211.631 629.932 211.631 629.929 211.631C629.926 211.631 629.923 211.631 629.92 211.631C629.917 211.631 629.914 211.631 629.911 211.631C629.908 211.631 629.905 211.631 629.902 211.631C629.899 211.631 629.897 211.631 629.894 211.631C629.891 211.631 629.888 211.631 629.885 211.631C629.882 211.631 629.879 211.631 629.876 211.631C629.873 211.631 629.87 211.631 629.867 211.631C629.864 211.631 629.861 211.631 629.858 211.631C629.855 211.631 629.852 211.631 629.849 211.631C629.846 211.631 629.843 211.631 629.841 211.631C629.838 211.631 629.835 211.631 629.832 211.631C629.829 211.631 629.826 211.631 629.823 211.631C629.82 211.631 629.817 211.631 629.814 211.631C629.811 211.631 629.808 211.631 629.805 211.631C629.802 211.631 629.799 211.631 629.796 211.631C629.793 211.631 629.791 211.631 629.788 211.631C629.785 211.631 629.782 211.631 629.779 211.631C629.776 211.631 629.773 211.631 629.77 211.631C629.767 211.631 629.764 211.631 629.761 211.631C629.758 211.631 629.755 211.631 629.752 211.631C629.749 211.631 629.746 211.631 629.743 211.631C629.741 211.631 629.738 211.631 629.735 211.631C629.732 211.631 629.729 211.631 629.726 211.631C629.723 211.631 629.72 211.631 629.717 211.631C629.714 211.631 629.711 211.631 629.708 211.631C629.705 211.631 629.702 211.631 629.699 211.631C629.696 211.631 629.694 211.631 629.691 211.631C629.688 211.631 629.685 211.631 629.682 211.631C629.679 211.631 629.676 211.631 629.673 211.631C629.67 211.631 629.667 211.631 629.664 211.631C629.661 211.631 629.658 211.631 629.655 211.631C629.652 211.631 629.65 211.631 629.647 211.631C629.644 211.631 629.641 211.631 629.638 211.631C629.635 211.631 629.632 211.631 629.629 211.631C629.626 211.631 629.623 211.631 629.62 211.631C629.617 211.631 629.614 211.631 629.611 211.631C629.608 211.631 629.606 211.631 629.603 211.631C629.6 211.631 629.597 211.631 629.594 211.631C629.591 211.631 629.588 211.631 629.585 211.631C629.582 211.631 629.579 211.631 629.576 211.631C629.573 211.631 629.57 211.631 629.567 211.631C629.564 211.631 629.562 211.631 629.559 211.631C629.556 211.631 629.553 211.631 629.55 211.631C629.547 211.631 629.544 211.631 629.541 211.631C629.538 211.631 629.535 211.631 629.532 211.631C629.529 211.631 629.526 211.631 629.523 211.631C629.521 211.631 629.518 211.631 629.515 211.631C629.512 211.631 629.509 211.631 629.506 211.631C629.503 211.631 629.5 211.631 629.497 211.631C629.494 211.631 629.491 211.631 629.488 211.631C629.485 211.631 629.482 211.631 629.48 211.631C629.477 211.631 629.474 211.631 629.471 211.631C629.468 211.631 629.465 211.631 629.462 211.631C629.459 211.631 629.456 211.631 629.453 211.631C629.45 211.631 629.447 211.631 629.444 211.631C629.442 211.631 629.439 211.631 629.436 211.631C629.433 211.631 629.43 211.631 629.427 211.631C629.424 211.631 629.421 211.631 629.418 211.631C629.415 211.631 629.412 211.631 629.409 211.631C629.406 211.631 629.404 211.631 629.401 211.631C629.398 211.631 629.395 211.631 629.392 211.631C629.389 211.631 629.386 211.631 629.383 211.631C629.38 211.631 629.377 211.631 629.374 211.631C629.371 211.631 629.368 211.631 629.366 211.631C629.363 211.631 629.36 211.631 629.357 211.631C629.354 211.631 629.351 211.631 629.348 211.631C629.345 211.631 629.342 211.631 629.339 211.631C629.336 211.631 629.333 211.631 629.331 211.631C629.328 211.631 629.325 211.631 629.322 211.631C629.319 211.631 629.316 211.631 629.313 211.631C629.31 211.631 629.307 211.631 629.304 211.631C629.301 211.631 629.298 211.631 629.295 211.631C629.293 211.631 629.29 211.631 629.287 211.631C629.284 211.631 629.281 211.631 629.278 211.631C629.275 211.631 629.272 211.631 629.269 211.631C629.266 211.631 629.263 211.631 629.26 211.631C629.258 211.631 629.255 211.631 629.252 211.631C629.249 211.631 629.246 211.631 629.243 211.631C629.24 211.631 629.237 211.631 629.234 211.631C629.231 211.631 629.228 211.631 629.226 211.631C629.223 211.631 629.22 211.631 629.217 211.631C629.214 211.631 629.211 211.631 629.208 211.631C629.205 211.631 629.202 211.631 629.199 211.631C629.196 211.631 629.193 211.631 629.191 211.631C629.188 211.631 629.185 211.631 629.182 211.631C629.179 211.631 629.176 211.631 629.173 211.631C629.17 211.631 629.167 211.631 629.164 211.631C629.161 211.631 629.159 211.631 629.156 211.631C629.153 211.631 629.15 211.631 629.147 211.631C629.144 211.631 629.141 211.631 629.138 211.631C629.135 211.631 629.132 211.631 629.129 211.631C629.127 211.631 629.124 211.631 629.121 211.631C629.118 211.631 629.115 211.631 629.112 211.631C629.109 211.631 629.106 211.631 629.103 211.631C629.1 211.631 629.097 211.631 629.095 211.631C629.092 211.631 629.089 211.631 629.086 211.631C629.083 211.631 629.08 211.631 629.077 211.631C629.074 211.631 629.071 211.631 629.068 211.631C629.065 211.631 629.063 211.631 629.06 211.631C629.057 211.631 629.054 211.631 629.051 211.631C629.048 211.631 629.045 211.631 629.042 211.631C629.039 211.631 629.036 211.631 629.033 211.631C629.031 211.631 629.028 211.631 629.025 211.631C629.022 211.631 629.019 211.631 629.016 211.631C629.013 211.631 629.01 211.631 629.007 211.631C629.004 211.631 629.002 211.631 628.999 211.631C628.996 211.631 628.993 211.631 628.99 211.631C628.987 211.631 628.984 211.631 628.981 211.631C628.978 211.631 628.975 211.631 628.973 211.631C628.97 211.631 628.967 211.631 628.964 211.631C628.961 211.631 628.958 211.631 628.955 211.631C628.952 211.631 628.949 211.631 628.946 211.631C628.944 211.631 628.941 211.631 628.938 211.631C628.935 211.631 628.932 211.631 628.929 211.631C628.926 211.631 628.923 211.631 628.92 211.631C628.917 211.631 628.915 211.631 628.912 211.631C628.909 211.631 628.906 211.631 628.903 211.631C628.9 211.631 628.897 211.631 628.894 211.631C628.891 211.631 628.888 211.631 628.886 211.631C628.883 211.631 628.88 211.631 628.877 211.631C628.874 211.631 628.871 211.631 628.868 211.631C628.865 211.631 628.862 211.631 628.859 211.631C628.857 211.631 628.854 211.631 628.851 211.631C628.848 211.631 628.845 211.631 628.842 211.631C628.839 211.631 628.836 211.631 628.833 211.631C628.83 211.631 628.828 211.631 628.825 211.631C628.822 211.631 628.819 211.631 628.816 211.631C628.813 211.631 628.81 211.631 628.807 211.631C628.804 211.631 628.802 211.631 628.799 211.631C628.796 211.631 628.793 211.631 628.79 211.631C628.787 211.631 628.784 211.631 628.781 211.631C628.778 211.631 628.776 211.631 628.773 211.631C628.77 211.631 628.767 211.631 628.764 211.631C628.761 211.631 628.758 211.631 628.755 211.631C628.752 211.631 628.749 211.631 628.747 211.631C628.744 211.631 628.741 211.631 628.738 211.631C628.735 211.631 628.732 211.631 628.729 211.631C628.726 211.631 628.723 211.631 628.721 211.631C628.718 211.631 628.715 211.631 628.712 211.631C628.709 211.631 628.706 211.631 628.703 211.631C628.7 211.631 628.697 211.631 628.695 211.631C628.692 211.631 628.689 211.631 628.686 211.631C628.683 211.631 628.68 211.631 628.677 211.631C628.674 211.631 628.671 211.631 628.669 211.631C628.666 211.631 628.663 211.631 628.66 211.631C628.657 211.631 628.654 211.631 628.651 211.631C628.648 211.631 628.646 211.631 628.643 211.631C628.64 211.631 628.637 211.631 628.634 211.631C628.631 211.631 628.628 211.631 628.625 211.631C628.622 211.631 628.62 211.631 628.617 211.631C628.614 211.631 628.611 211.631 628.608 211.631C628.605 211.631 628.602 211.631 628.599 211.631C628.596 211.631 628.594 211.631 628.591 211.631C628.588 211.631 628.585 211.631 628.582 211.631C628.579 211.631 628.576 211.631 628.573 211.631C628.571 211.631 628.568 211.631 628.565 211.631C628.562 211.631 628.559 211.631 628.556 211.631C628.553 211.631 628.55 211.631 628.547 211.631C628.545 211.631 628.542 211.631 628.539 211.631C628.536 211.631 628.533 211.631 628.53 211.631C628.527 211.631 628.524 211.631 628.522 211.631C628.519 211.631 628.516 211.631 628.513 211.631C628.51 211.631 628.507 211.631 628.504 211.631C628.501 211.631 628.499 211.631 628.496 211.631C628.493 211.631 628.49 211.631 628.487 211.631C628.484 211.631 628.481 211.631 628.478 211.631C628.475 211.631 628.473 211.631 628.47 211.631C628.467 211.631 628.464 211.631 628.461 211.631C628.458 211.631 628.455 211.631 628.452 211.631C628.45 211.631 628.447 211.631 628.444 211.631C628.441 211.631 628.438 211.631 628.435 211.631C628.432 211.631 628.429 211.631 628.427 211.631C628.424 211.631 628.421 211.631 628.418 211.631C628.415 211.631 628.412 211.631 628.409 211.631C628.406 211.631 628.404 211.631 628.401 211.631C628.398 211.631 628.395 211.631 628.392 211.631C628.389 211.631 628.386 211.631 628.383 211.631C628.381 211.631 628.378 211.631 628.375 211.631C628.372 211.631 628.369 211.631 628.366 211.631C628.363 211.631 628.361 211.631 628.358 211.631C628.355 211.631 628.352 211.631 628.349 211.631C628.346 211.631 628.343 211.631 628.34 211.631C628.338 211.631 628.335 211.631 628.332 211.631C628.329 211.631 628.326 211.631 628.323 211.631C628.32 211.631 628.317 211.631 628.315 211.631C628.312 211.631 628.309 211.631 628.306 211.631C628.303 211.631 628.3 211.631 628.297 211.631C628.294 211.631 628.292 211.631 628.289 211.631C628.286 211.631 628.283 211.631 628.28 211.631C628.277 211.631 628.274 211.631 628.272 211.631C628.269 211.631 628.266 211.631 628.263 211.631C628.26 211.631 628.257 211.631 628.254 211.631C628.251 211.631 628.249 211.631 628.246 211.631C628.243 211.631 628.24 211.631 628.237 211.631C628.234 211.631 628.231 211.631 628.229 211.631C628.226 211.631 628.223 211.631 628.22 211.631C628.217 211.631 628.214 211.631 628.211 211.631C628.208 211.631 628.206 211.631 628.203 211.631C628.2 211.631 628.197 211.631 628.194 211.631C628.191 211.631 628.188 211.631 628.186 211.631C628.183 211.631 628.18 211.631 628.177 211.631C628.174 211.631 628.171 211.631 628.168 211.631C628.166 211.631 628.163 211.631 628.16 211.631C628.157 211.631 628.154 211.631 628.151 211.631C628.148 211.631 628.146 211.631 628.143 211.631C628.14 211.631 628.137 211.631 628.134 211.631C628.131 211.631 628.128 211.631 628.125 211.631C628.123 211.631 628.12 211.631 628.117 211.631C628.114 211.631 628.111 211.631 628.108 211.631C628.105 211.631 628.103 211.631 628.1 211.631C628.097 211.631 628.094 211.631 628.091 211.631C628.088 211.631 628.085 211.631 628.083 211.631C628.08 211.631 628.077 211.631 628.074 211.631C628.071 211.631 628.068 211.631 628.065 211.631C628.063 211.631 628.06 211.631 628.057 211.631C628.054 211.631 628.051 211.631 628.048 211.631C628.045 211.631 628.043 211.631 628.04 211.631C628.037 211.631 628.034 211.631 628.031 211.631C628.028 211.631 628.025 211.631 628.023 211.631C628.02 211.631 628.017 211.631 628.014 211.631C628.011 211.631 628.008 211.631 628.005 211.631C628.003 211.631 628 211.631 627.997 211.631C627.994 211.631 627.991 211.631 627.988 211.631C627.985 211.631 627.983 211.631 627.98 211.631C627.977 211.631 627.974 211.631 627.971 211.631C627.968 211.631 627.966 211.631 627.963 211.631C627.96 211.631 627.957 211.631 627.954 211.631C627.951 211.631 627.948 211.631 627.946 211.631C627.943 211.631 627.94 211.631 627.937 211.631C627.934 211.631 627.931 211.631 627.928 211.631C627.926 211.631 627.923 211.631 627.92 211.631C627.917 211.631 627.914 211.631 627.911 211.631C627.908 211.631 627.906 211.631 627.903 211.631C627.9 211.631 627.897 211.631 627.894 211.631C627.891 211.631 627.889 211.631 627.886 211.631C627.883 211.631 627.88 211.631 627.877 211.631C627.874 211.631 627.871 211.631 627.869 211.631C627.866 211.631 627.863 211.631 627.86 211.631C627.857 211.631 627.854 211.631 627.852 211.631C627.849 211.631 627.846 211.631 627.843 211.631C627.84 211.631 627.837 211.631 627.834 211.631C627.832 211.631 627.829 211.631 627.826 211.631C627.823 211.631 627.82 211.631 627.817 211.631C627.815 211.631 627.812 211.631 627.809 211.631C627.806 211.631 627.803 211.631 627.8 211.631C627.797 211.631 627.795 211.631 627.792 211.631C627.789 211.631 627.786 211.631 627.783 211.631C627.78 211.631 627.778 211.631 627.775 211.631C627.772 211.631 627.769 211.631 627.766 211.631C627.763 211.631 627.76 211.631 627.758 211.631C627.755 211.631 627.752 211.631 627.749 211.631C627.746 211.631 627.743 211.631 627.741 211.631C627.738 211.631 627.735 211.631 627.732 211.631C627.729 211.631 627.726 211.631 627.724 211.631C627.721 211.631 627.718 211.631 627.715 211.631C627.712 211.631 627.709 211.631 627.707 211.631C627.704 211.631 627.701 211.631 627.698 211.631C627.695 211.631 627.692 211.631 627.689 211.631C627.687 211.631 627.684 211.631 627.681 211.631C627.678 211.631 627.675 211.631 627.672 211.631C627.67 211.631 627.667 211.631 627.664 211.631C627.661 211.631 627.658 211.631 627.655 211.631C627.653 211.631 627.65 211.631 627.647 211.631C627.644 211.631 627.641 211.631 627.638 211.631C627.636 211.631 627.633 211.631 627.63 211.631C627.627 211.631 627.624 211.631 627.621 211.631C627.619 211.631 627.616 211.631 627.613 211.631C627.61 211.631 627.607 211.631 627.604 211.631C627.602 211.631 627.599 211.631 627.596 211.631C627.593 211.631 627.59 211.631 627.587 211.631C627.585 211.631 627.582 211.631 627.579 211.631C627.576 211.631 627.573 211.631 627.57 211.631C627.568 211.631 627.565 211.631 627.562 211.631C627.559 211.631 627.556 211.631 627.553 211.631C627.551 211.631 627.548 211.631 627.545 211.631C627.542 211.631 627.539 211.631 627.536 211.631C627.534 211.631 627.531 211.631 627.528 211.631C627.525 211.631 627.522 211.631 627.519 211.631C627.517 211.631 627.514 211.631 627.511 211.631C627.508 211.631 627.505 211.631 627.502 211.631C627.5 211.631 627.497 211.631 627.494 211.631C627.491 211.631 627.488 211.631 627.485 211.631C627.483 211.631 627.48 211.631 627.477 211.631C627.474 211.631 627.471 211.631 627.468 211.631C627.466 211.631 627.463 211.631 627.46 211.631C627.457 211.631 627.454 211.631 627.452 211.631C627.449 211.631 627.446 211.631 627.443 211.631C627.44 211.631 627.437 211.631 627.435 211.631C627.432 211.631 627.429 211.631 627.426 211.631C627.423 211.631 627.42 211.631 627.418 211.631C627.415 211.631 627.412 211.631 627.409 211.631C627.406 211.631 627.403 211.631 627.401 211.631C627.398 211.631 627.395 211.631 627.392 211.631C627.389 211.631 627.387 211.631 627.384 211.631C627.381 211.631 627.378 211.631 627.375 211.631C627.372 211.631 627.37 211.631 627.367 211.631C627.364 211.631 627.361 211.631 627.358 211.631C627.355 211.631 627.353 211.631 627.35 211.631C627.347 211.631 627.344 211.631 627.341 211.631C627.339 211.631 627.336 211.631 627.333 211.631C627.33 211.631 627.327 211.631 627.324 211.631C627.322 211.631 627.319 211.631 627.316 211.631C627.313 211.631 627.31 211.631 627.308 211.631C627.305 211.631 627.302 211.631 627.299 211.631C627.296 211.631 627.293 211.631 627.291 211.631C627.288 211.631 627.285 211.631 627.282 211.631C627.279 211.631 627.277 211.631 627.274 211.631C627.271 211.631 627.268 211.631 627.265 211.631C627.262 211.631 627.26 211.631 627.257 211.631C627.254 211.631 627.251 211.631 627.248 211.631C627.246 211.631 627.243 211.631 627.24 211.631C627.237 211.631 627.234 211.631 627.231 211.631C627.229 211.631 627.226 211.631 627.223 211.631C627.22 211.631 627.217 211.631 627.215 211.631C627.212 211.631 627.209 211.631 627.206 211.631C627.203 211.631 627.2 211.631 627.198 211.631C627.195 211.631 627.192 211.631 627.189 211.631C627.186 211.631 627.184 211.631 627.181 211.631C627.178 211.631 627.175 211.631 627.172 211.631C627.17 211.631 627.167 211.631 627.164 211.631C627.161 211.631 627.158 211.631 627.155 211.631C627.153 211.631 627.15 211.631 627.147 211.631C627.144 211.631 627.141 211.631 627.139 211.631C627.136 211.631 627.133 211.631 627.13 211.631C627.127 211.631 627.125 211.631 627.122 211.631C627.119 211.631 627.116 211.631 627.113 211.631V215.631ZM631.729 215.626C631.749 215.625 631.864 215.617 631.884 215.616C631.905 215.615 632.019 215.607 632.04 215.606C632.061 215.604 632.175 215.597 632.196 215.595C632.216 215.594 632.331 215.586 632.351 215.585C632.372 215.584 632.486 215.576 632.507 215.575C632.528 215.573 632.642 215.566 632.663 215.564C632.683 215.563 632.797 215.555 632.818 215.554C632.839 215.552 632.953 215.545 632.974 215.543C632.995 215.542 633.109 215.534 633.129 215.533C633.15 215.532 633.264 215.524 633.285 215.523C633.306 215.521 633.42 215.514 633.441 215.512C633.462 215.511 633.576 215.503 633.596 215.502C633.617 215.501 633.731 215.493 633.752 215.492C633.773 215.49 633.887 215.483 633.908 215.481C633.928 215.48 634.043 215.472 634.063 215.471C634.084 215.469 634.198 215.462 634.219 215.46C634.919 215.414 636.009 215.341 636.709 215.294L636.443 211.303C636.433 211.304 636.433 211.304 636.424 211.305C636.414 211.305 636.414 211.305 636.404 211.306C636.394 211.307 636.395 211.306 636.385 211.307C636.375 211.308 636.375 211.308 636.365 211.308C636.356 211.309 636.356 211.309 636.346 211.31C636.336 211.31 636.336 211.31 636.326 211.311C636.317 211.312 636.317 211.312 636.307 211.312C636.297 211.313 636.297 211.313 636.287 211.314C636.278 211.314 636.278 211.314 636.268 211.315C636.258 211.316 636.258 211.316 636.249 211.316C636.239 211.317 636.239 211.317 636.229 211.318C636.219 211.318 636.219 211.318 636.21 211.319C636.2 211.319 636.2 211.319 636.19 211.32C636.18 211.321 636.181 211.321 636.171 211.321C636.161 211.322 636.161 211.322 636.151 211.323C636.142 211.323 636.142 211.323 636.132 211.324C636.122 211.325 636.122 211.325 636.112 211.325C636.103 211.326 636.103 211.326 636.093 211.327C636.083 211.327 636.083 211.327 636.073 211.328C636.064 211.329 636.064 211.329 636.054 211.329C636.044 211.33 636.044 211.33 636.035 211.33C636.025 211.331 636.025 211.331 636.015 211.332C636.005 211.332 636.005 211.332 635.996 211.333C635.986 211.334 635.986 211.334 635.976 211.334C635.966 211.335 635.967 211.335 635.957 211.336C635.947 211.336 635.947 211.336 635.937 211.337C635.928 211.338 635.928 211.338 635.918 211.338C635.908 211.339 635.908 211.339 635.898 211.34C635.889 211.34 635.889 211.34 635.879 211.341C635.869 211.342 635.869 211.342 635.859 211.342C635.85 211.343 635.85 211.343 635.84 211.343C635.83 211.344 635.83 211.344 635.821 211.345C635.811 211.345 635.811 211.345 635.801 211.346C635.791 211.347 635.791 211.347 635.782 211.347C635.772 211.348 635.772 211.348 635.762 211.349C635.752 211.349 635.753 211.349 635.743 211.35C635.733 211.351 635.733 211.351 635.723 211.351C635.714 211.352 635.714 211.352 635.704 211.353C635.694 211.353 635.694 211.353 635.684 211.354C635.675 211.354 635.675 211.354 635.665 211.355C635.655 211.356 635.655 211.356 635.645 211.356C635.636 211.357 635.636 211.357 635.626 211.358C635.616 211.358 635.616 211.358 635.607 211.359C635.597 211.36 635.597 211.36 635.587 211.36C635.577 211.361 635.577 211.361 635.568 211.362C635.558 211.362 635.558 211.362 635.548 211.363C635.538 211.364 635.539 211.364 635.529 211.364C635.519 211.365 635.519 211.365 635.509 211.366C635.499 211.366 635.5 211.366 635.49 211.367C635.48 211.367 635.48 211.367 635.47 211.368C635.461 211.369 635.461 211.369 635.451 211.369C635.441 211.37 635.441 211.37 635.431 211.371C635.422 211.371 635.422 211.371 635.412 211.372C635.402 211.373 635.402 211.373 635.393 211.373C635.383 211.374 635.383 211.374 635.373 211.375C635.363 211.375 635.363 211.375 635.354 211.376C635.344 211.377 635.344 211.377 635.334 211.377C635.324 211.378 635.325 211.378 635.315 211.378C635.305 211.379 635.305 211.379 635.295 211.38C635.285 211.38 635.286 211.38 635.276 211.381C635.266 211.382 635.266 211.382 635.256 211.382C635.247 211.383 635.247 211.383 635.237 211.384C635.227 211.384 635.227 211.384 635.217 211.385C635.208 211.386 635.208 211.386 635.198 211.386C635.188 211.387 635.188 211.387 635.179 211.388C635.169 211.388 635.169 211.388 635.159 211.389C635.149 211.39 635.149 211.39 635.14 211.39C635.13 211.391 635.13 211.391 635.12 211.391C635.11 211.392 635.111 211.392 635.101 211.393C635.091 211.393 635.091 211.393 635.081 211.394C635.071 211.395 635.072 211.395 635.062 211.395C635.052 211.396 635.052 211.396 635.042 211.397C635.033 211.397 635.033 211.397 635.023 211.398C635.013 211.399 635.013 211.399 635.003 211.399C634.994 211.4 634.994 211.4 634.984 211.401C634.974 211.401 634.974 211.401 634.965 211.402C634.955 211.402 634.955 211.402 634.945 211.403C634.935 211.404 634.935 211.404 634.926 211.404C634.916 211.405 634.916 211.405 634.906 211.406C634.896 211.406 634.897 211.406 634.887 211.407C634.877 211.408 634.877 211.408 634.867 211.408C634.857 211.409 634.858 211.409 634.848 211.41C634.838 211.41 634.838 211.41 634.828 211.411C634.819 211.412 634.819 211.412 634.809 211.412C634.799 211.413 634.799 211.413 634.789 211.414C634.78 211.414 634.78 211.414 634.77 211.415C634.76 211.415 634.76 211.415 634.751 211.416C634.741 211.417 634.741 211.417 634.731 211.417C634.721 211.418 634.721 211.418 634.712 211.419C634.702 211.419 634.702 211.419 634.692 211.42C634.682 211.421 634.683 211.421 634.673 211.421C634.663 211.422 634.663 211.422 634.653 211.423C634.643 211.423 634.644 211.423 634.634 211.424C634.624 211.425 634.624 211.425 634.614 211.425C634.605 211.426 634.605 211.426 634.595 211.426C634.585 211.427 634.585 211.427 634.575 211.428C634.566 211.428 634.566 211.428 634.556 211.429C634.546 211.43 634.546 211.43 634.537 211.43C634.527 211.431 634.527 211.431 634.517 211.432C634.507 211.432 634.507 211.432 634.498 211.433C634.488 211.434 634.488 211.434 634.478 211.434C634.468 211.435 634.469 211.435 634.459 211.436C634.449 211.436 634.449 211.436 634.439 211.437C634.429 211.438 634.43 211.437 634.42 211.438C634.41 211.439 634.41 211.439 634.4 211.439C634.391 211.44 634.391 211.44 634.381 211.441C634.371 211.441 634.371 211.441 634.361 211.442C634.352 211.443 634.352 211.443 634.342 211.443C634.332 211.444 634.332 211.444 634.323 211.445C634.313 211.445 634.313 211.445 634.303 211.446C634.293 211.447 634.293 211.447 634.284 211.447C634.274 211.448 634.274 211.448 634.264 211.449C634.254 211.449 634.255 211.449 634.245 211.45C634.235 211.45 634.235 211.45 634.225 211.451C634.215 211.452 634.216 211.452 634.206 211.452C634.196 211.453 634.196 211.453 634.186 211.454C634.177 211.454 634.177 211.454 634.167 211.455C634.157 211.456 634.157 211.456 634.147 211.456C634.138 211.457 634.138 211.457 634.128 211.458C634.118 211.458 634.118 211.458 634.109 211.459C634.099 211.46 634.099 211.46 634.089 211.46C634.079 211.461 634.079 211.461 634.07 211.461C634.06 211.462 634.06 211.462 634.05 211.463C634.04 211.463 634.041 211.463 634.031 211.464C634.021 211.465 634.021 211.465 634.011 211.465C634.001 211.466 634.002 211.466 633.992 211.467C633.982 211.467 633.982 211.467 633.972 211.468C633.963 211.469 633.963 211.469 633.953 211.469C633.842 211.477 633.441 211.503 633.33 211.511C633.22 211.518 632.818 211.545 632.708 211.552C632.597 211.56 632.196 211.586 632.085 211.594C631.975 211.601 631.573 211.628 631.463 211.635L631.729 215.626ZM634.621 212.877L626.985 248.238L630.894 249.082L638.531 213.721L634.621 212.877ZM628.866 246.662L606.288 247.492L606.435 251.489L629.013 250.659L628.866 246.662ZM606.292 247.491C595.168 247.875 586.156 247.101 579.196 245.234C572.236 243.368 567.481 240.452 564.629 236.666L561.434 239.072C565.001 243.809 570.677 247.091 578.16 249.098C585.643 251.105 595.088 251.88 606.43 251.489L606.292 247.491ZM564.627 236.664C561.057 231.936 560.048 224.305 562.334 213.204L558.416 212.397C556.053 223.875 556.815 232.956 561.435 239.074L564.627 236.664ZM562.331 213.218L586.071 101.821L582.159 100.987L558.419 212.384L562.331 213.218ZM584.115 99.4043H558.881V103.404H584.115V99.4043ZM849.74 125.145L851.697 125.56L851.698 125.555L849.74 125.145ZM823.842 247V249H825.461L825.798 247.416L823.842 247ZM775.365 247L773.408 246.587L772.899 249H775.365V247ZM798.607 136.932L796.655 136.5L796.653 136.509L796.651 136.518L798.607 136.932ZM799.438 115.018L797.514 115.567L797.519 115.584L797.524 115.6L799.438 115.018ZM738.51 121.492L736.833 120.402L736.83 120.407L738.51 121.492ZM728.051 149.051L730.007 149.465L730.009 149.458L728.051 149.051ZM707.299 247V249H708.919L709.255 247.415L707.299 247ZM660.15 247L658.194 246.585L657.681 249H660.15V247ZM698.5 66.375V64.375H696.88L696.544 65.9596L698.5 66.375ZM744.154 66.375L746.11 66.7932L746.627 64.375H744.154V66.375ZM738.51 92.7715L736.554 92.3533L740.019 94.0834L738.51 92.7715ZM760.092 72.6836L759.005 71.0045L759.003 71.006L760.092 72.6836ZM842.104 76.502L840.681 77.9082L840.689 77.9162L840.697 77.9241L842.104 76.502ZM847.784 124.729L821.885 246.584L825.798 247.416L851.697 125.56L847.784 124.729ZM823.842 245H775.365V249H823.842V245ZM777.322 247.413L800.564 137.345L796.651 136.518L773.408 246.587L777.322 247.413ZM800.56 137.363C802.685 127.746 803.053 120.028 801.351 114.435L797.524 115.6C798.921 120.189 798.736 127.081 796.655 136.5L800.56 137.363ZM801.361 114.468C799.901 109.36 796.967 105.438 792.57 102.837C788.228 100.269 782.606 99.0723 775.863 99.0723V103.072C782.181 103.072 787.018 104.2 790.533 106.28C793.994 108.327 796.318 111.379 797.514 115.567L801.361 114.468ZM775.863 99.0723C759.129 99.0723 746.051 106.229 736.833 120.402L740.186 122.583C748.677 109.528 760.502 103.072 775.863 103.072V99.0723ZM736.83 120.407C732.011 127.864 728.451 137.3 726.093 148.644L730.009 149.458C732.299 138.445 735.711 129.508 740.19 122.578L736.83 120.407ZM726.094 148.636L705.342 246.585L709.255 247.415L730.007 149.465L726.094 148.636ZM707.299 245H660.15V249H707.299V245ZM662.107 247.415L700.456 66.7904L696.544 65.9596L658.194 246.585L662.107 247.415ZM698.5 68.375H744.154V64.375H698.5V68.375ZM742.199 65.9568L736.554 92.3533L740.466 93.1897L746.11 66.7932L742.199 65.9568ZM740.019 94.0834C748.044 84.85 755.096 78.3107 761.181 74.3612L759.003 71.006C752.47 75.2466 745.135 82.0992 737 91.4596L740.019 94.0834ZM761.178 74.3627C772.108 67.2904 784.837 63.7266 799.438 63.7266V59.7266C784.155 59.7266 770.653 63.4675 759.005 71.0045L761.178 74.3627ZM799.438 63.7266C817.8 63.7266 831.434 68.556 840.681 77.9082L843.526 75.0958C833.294 64.7474 818.483 59.7266 799.438 59.7266V63.7266ZM840.697 77.9241C849.808 86.9321 852.498 102.255 847.783 124.734L851.698 125.555C856.501 102.656 854.1 85.551 843.51 75.0798L840.697 77.9241ZM925.277 138.426L923.384 137.783L922.486 140.426H925.277V138.426ZM998.822 138.426V140.426H1000.54L1000.8 138.723L998.822 138.426ZM993.344 110.037L991.805 111.315L991.817 111.329L991.829 111.343L993.344 110.037ZM942.377 110.535L941.029 109.057L941.024 109.062L941.019 109.067L942.377 110.535ZM1041.49 96.4238L1039.65 97.2096L1039.66 97.2299L1039.67 97.25L1041.49 96.4238ZM1047.3 133.777L1045.3 133.637L1045.3 133.654L1045.3 133.671L1047.3 133.777ZM1041.32 169.637V171.637H1042.92L1043.27 170.079L1041.32 169.637ZM917.475 169.637V167.637H915.797L915.505 169.288L917.475 169.637ZM926.439 207.82L927.708 206.274L927.696 206.264L927.684 206.255L926.439 207.82ZM974.086 206.326L975.294 207.92L975.301 207.915L975.308 207.91L974.086 206.326ZM985.541 193.875V191.875H984.507L983.909 192.719L985.541 193.875ZM1033.85 193.875L1035.75 194.502L1036.62 191.875H1033.85V193.875ZM1010.11 226.58L1008.77 225.094L1008.76 225.104L1010.11 226.58ZM883.109 230.73L881.674 232.123L881.679 232.129L883.109 230.73ZM872.152 158.348L870.196 157.933L870.196 157.933L872.152 158.348ZM911.166 86.2969L909.864 84.779L909.859 84.7826L911.166 86.2969ZM1017.25 69.6953L1016.33 71.4695L1016.33 71.4733L1017.25 69.6953ZM925.277 140.426H998.822V136.426H925.277V140.426ZM1000.8 138.723C1002.72 125.928 1000.93 115.773 994.859 108.731L991.829 111.343C996.826 117.14 998.683 125.91 996.845 138.128L1000.8 138.723ZM994.882 108.759C989.007 101.685 980.645 98.2422 970.102 98.2422V102.242C979.701 102.242 986.834 105.329 991.805 111.315L994.882 108.759ZM970.102 98.2422C958.687 98.2422 948.953 101.833 941.029 109.057L943.724 112.013C950.853 105.514 959.602 102.242 970.102 102.242V98.2422ZM941.019 109.067C933.309 116.201 927.451 125.806 923.384 137.783L927.171 139.069C931.072 127.582 936.614 118.593 943.735 112.003L941.019 109.067ZM1039.67 97.25C1044.37 107.627 1046.28 119.734 1045.3 133.637L1049.29 133.918C1050.31 119.487 1048.34 106.692 1043.31 95.5976L1039.67 97.25ZM1045.3 133.671C1044.87 141.798 1042.91 153.618 1039.37 169.194L1043.27 170.079C1046.82 154.445 1048.84 142.358 1049.3 133.884L1045.3 133.671ZM1041.32 167.637H917.475V171.637H1041.32V167.637ZM915.505 169.288C912.246 187.717 915.151 201.399 925.195 209.386L927.684 206.255C919.355 199.632 916.284 187.858 919.444 169.985L915.505 169.288ZM925.171 209.367C931.154 214.273 939.004 216.627 948.52 216.627V212.627C939.662 212.627 932.793 210.444 927.708 206.274L925.171 209.367ZM948.52 216.627C958.666 216.627 967.619 213.735 975.294 207.92L972.878 204.732C965.944 209.985 957.852 212.627 948.52 212.627V216.627ZM975.308 207.91C979.381 204.768 983.331 200.456 987.173 195.031L983.909 192.719C980.225 197.919 976.539 201.908 972.864 204.743L975.308 207.91ZM985.541 195.875H1033.85V191.875H985.541V195.875ZM1031.95 193.248C1028.56 203.536 1020.91 214.159 1008.77 225.094L1011.45 228.066C1023.88 216.866 1032.06 205.686 1035.75 194.502L1031.95 193.248ZM1008.76 225.104C989.9 242.34 966.818 250.977 939.389 250.977V254.977C967.741 254.977 991.807 246.016 1011.46 228.056L1008.76 225.104ZM939.389 250.977C916.841 250.977 898.619 243.734 884.54 229.332L881.679 232.129C896.597 247.388 915.895 254.977 939.389 254.977V250.977ZM884.545 229.338C870.861 215.233 867.072 191.967 874.109 158.762L870.196 157.933C863.066 191.577 866.582 216.567 881.674 232.123L884.545 229.338ZM874.109 158.762C880.682 127.759 893.511 104.172 912.473 87.8111L909.859 84.7826C890.084 101.846 876.904 126.293 870.196 157.933L874.109 158.762ZM912.468 87.8148C931.59 71.4093 953.542 63.2285 978.402 63.2285V59.2285C952.573 59.2285 929.7 67.76 909.864 84.779L912.468 87.8148ZM978.402 63.2285C993.206 63.2285 1005.82 66.0037 1016.33 71.4694L1018.17 67.9212C1006.98 62.0978 993.703 59.2285 978.402 59.2285V63.2285ZM1016.33 71.4733C1026.85 76.8882 1034.62 85.4291 1039.65 97.2096L1043.33 95.638C1037.96 83.0696 1029.57 73.7915 1018.17 67.9174L1016.33 71.4733ZM1200.7 62.0586L1202.65 62.474L1203.14 60.1911L1200.81 60.0617L1200.7 62.0586ZM1190.4 110.535L1190.18 112.522L1191.98 112.731L1192.36 110.951L1190.4 110.535ZM1134.62 128.299L1133.02 127.108L1133.01 127.114L1133.01 127.119L1134.62 128.299ZM1122.34 160.506L1120.38 160.088L1120.38 160.093L1122.34 160.506ZM1104.08 247V249H1105.7L1106.03 247.413L1104.08 247ZM1056.43 247L1054.47 246.585L1053.96 249H1056.43V247ZM1094.78 66.043V64.043H1093.16L1092.82 65.6283L1094.78 66.043ZM1139.94 66.043L1141.89 66.455L1142.4 64.043H1139.94V66.043ZM1133.29 97.5859L1131.34 97.1739L1134.84 98.8509L1133.29 97.5859ZM1157.53 72.8496L1158.68 74.4867L1158.69 74.484L1157.53 72.8496ZM1196.71 61.8926L1196.32 63.8537L1196.51 63.8926H1196.71V61.8926ZM1198.74 61.6432L1188.45 110.12L1192.36 110.951L1202.65 62.474L1198.74 61.6432ZM1190.63 108.548C1187.72 108.212 1185.07 107.987 1182.7 107.873L1182.51 111.869C1184.78 111.977 1187.33 112.194 1190.18 112.522L1190.63 108.548ZM1182.7 107.873C1180.36 107.762 1178.44 107.705 1176.96 107.705V111.705C1178.35 111.705 1180.2 111.759 1182.51 111.869L1182.7 107.873ZM1176.96 107.705C1157.45 107.705 1142.67 114.084 1133.02 127.108L1136.23 129.49C1144.95 117.722 1158.39 111.705 1176.96 111.705V107.705ZM1133.01 127.119C1127.67 134.427 1123.5 145.484 1120.38 160.088L1124.29 160.924C1127.37 146.531 1131.39 136.116 1136.24 129.478L1133.01 127.119ZM1120.38 160.093L1102.12 246.587L1106.03 247.413L1124.29 160.919L1120.38 160.093ZM1104.08 245H1056.43V249H1104.08V245ZM1058.39 247.415L1096.74 66.4576L1092.82 65.6283L1054.47 246.585L1058.39 247.415ZM1094.78 68.043H1139.94V64.043H1094.78V68.043ZM1137.98 65.6309L1131.34 97.1739L1135.25 97.998L1141.89 66.455L1137.98 65.6309ZM1134.84 98.8509C1144.67 86.8154 1152.61 78.7488 1158.68 74.4867L1156.38 71.2125C1149.84 75.8046 1141.62 84.2289 1131.75 96.321L1134.84 98.8509ZM1158.69 74.484C1168.83 67.3306 1180.76 63.7266 1194.55 63.7266V59.7266C1180.02 59.7266 1167.27 63.5379 1156.38 71.2152L1158.69 74.484ZM1194.55 63.7266C1195.37 63.7266 1195.95 63.7791 1196.32 63.8537L1197.11 59.9314C1196.37 59.7847 1195.51 59.7266 1194.55 59.7266V63.7266ZM1196.71 63.8926C1197.31 63.8926 1198.58 63.9443 1200.59 64.0555L1200.81 60.0617C1198.83 59.9515 1197.44 59.8926 1196.71 59.8926V63.8926ZM1238.38 189.227L1240.37 189.41L1240.58 187.227H1238.38V189.227ZM1241.21 207.156L1242.84 206.007L1242.82 205.982L1242.81 205.956L1241.21 207.156ZM1305.62 200.018L1307.57 200.447L1307.57 200.436L1307.58 200.425L1305.62 200.018ZM1255.15 173.621L1254.64 175.555L1254.65 175.558L1254.67 175.561L1255.15 173.621ZM1215.97 154.529L1217.47 153.205L1217.46 153.193L1217.45 153.182L1215.97 154.529ZM1210.33 121.99L1212.28 122.418L1212.28 122.405L1210.33 121.99ZM1239.05 78.9922L1240.26 80.5799L1240.26 80.5787L1239.05 78.9922ZM1350.61 74.5098L1349.42 76.1184L1349.43 76.1253L1350.61 74.5098ZM1365.22 121.16V123.16H1367L1367.21 121.389L1365.22 121.16ZM1317.9 121.16L1315.91 120.979L1315.71 123.16H1317.9V121.16ZM1315.75 106.717L1317.49 105.736L1317.47 105.71L1317.46 105.683L1315.75 106.717ZM1268.1 101.902L1267.03 100.21L1267.02 100.216L1267.02 100.221L1268.1 101.902ZM1259.3 113.191L1261.25 113.629L1261.26 113.611L1261.26 113.593L1259.3 113.191ZM1263.78 124.979L1264.84 123.28L1264.81 123.263L1264.79 123.248L1263.78 124.979ZM1310.27 138.094L1310.75 136.153L1310.73 136.149L1310.72 136.145L1310.27 138.094ZM1348.29 158.182L1349.83 156.916L1349.83 156.906L1349.82 156.896L1348.29 158.182ZM1355.09 192.215L1357.05 192.637L1357.05 192.628L1355.09 192.215ZM1325.71 236.209L1326.87 237.833L1326.88 237.828L1325.71 236.209ZM1201.03 235.213L1199.55 236.558L1199.56 236.565L1199.56 236.572L1201.03 235.213ZM1190.4 189.227V187.227H1188.78L1188.45 188.819L1190.4 189.227ZM1236.39 189.043C1235.61 197.556 1236.48 204.187 1239.61 208.356L1242.81 205.956C1240.62 203.042 1239.61 197.72 1240.37 189.41L1236.39 189.043ZM1239.57 208.305C1242.12 211.936 1246.2 214.503 1251.53 216.163C1256.85 217.822 1263.56 218.619 1271.59 218.619V214.619C1263.79 214.619 1257.52 213.839 1252.72 212.344C1247.92 210.849 1244.72 208.686 1242.84 206.007L1239.57 208.305ZM1271.59 218.619C1281.06 218.619 1289.06 217.211 1295.49 214.289L1293.83 210.648C1288.09 213.26 1280.7 214.619 1271.59 214.619V218.619ZM1295.49 214.289C1302.03 211.315 1306.19 206.711 1307.57 200.447L1303.67 199.588C1302.61 204.391 1299.47 208.089 1293.83 210.648L1295.49 214.289ZM1307.58 200.425C1308.18 197.512 1308.14 194.795 1307.3 192.355C1306.46 189.896 1304.87 187.868 1302.63 186.271L1300.31 189.526C1301.94 190.696 1302.98 192.071 1303.52 193.651C1304.07 195.251 1304.16 197.211 1303.66 199.61L1307.58 200.425ZM1302.63 186.271C1301.45 185.424 1299.55 184.534 1297.12 183.586C1294.64 182.621 1291.46 181.54 1287.57 180.343C1279.8 177.948 1269.15 175.06 1255.64 171.681L1254.67 175.561C1268.15 178.934 1278.73 181.801 1286.39 184.165C1290.23 185.348 1293.32 186.397 1295.67 187.313C1298.07 188.247 1299.56 188.99 1300.31 189.526L1302.63 186.271ZM1255.66 171.687C1236.37 166.615 1223.81 160.373 1217.47 153.205L1214.47 155.854C1221.64 163.959 1235.2 170.445 1254.64 175.555L1255.66 171.687ZM1217.45 153.182C1211.19 146.318 1209.26 136.238 1212.28 122.418L1208.37 121.563C1205.2 136.076 1207.03 147.689 1214.49 155.877L1217.45 153.182ZM1212.28 122.405C1215.71 106.229 1224.98 92.2892 1240.26 80.5799L1237.83 77.4044C1221.91 89.6014 1212.02 104.327 1208.37 121.576L1212.28 122.405ZM1240.26 80.5787C1255.57 68.8338 1274.87 62.8965 1298.31 62.8965V58.8965C1274.17 58.8965 1253.96 65.023 1237.83 77.4057L1240.26 80.5787ZM1298.31 62.8965C1320.66 62.8965 1337.61 67.3927 1349.42 76.1184L1351.8 72.9011C1339.04 63.4758 1321.13 58.8965 1298.31 58.8965V62.8965ZM1349.43 76.1253C1360.89 84.4857 1365.74 99.1452 1363.23 120.932L1367.21 121.389C1369.79 98.9043 1364.9 82.4635 1351.79 72.8942L1349.43 76.1253ZM1365.22 119.16H1317.9V123.16H1365.22V119.16ZM1319.9 121.341C1320.47 115.042 1319.76 109.768 1317.49 105.736L1314 107.697C1315.72 110.749 1316.45 115.104 1315.91 120.979L1319.9 121.341ZM1317.46 105.683C1313.03 98.343 1303.9 95.0879 1291.18 95.0879V99.0879C1303.46 99.0879 1310.72 102.252 1314.03 107.75L1317.46 105.683ZM1291.18 95.0879C1280.74 95.0879 1272.6 96.7024 1267.03 100.21L1269.17 103.594C1273.78 100.683 1281.02 99.0879 1291.18 99.0879V95.0879ZM1267.02 100.221C1261.74 103.618 1258.37 107.784 1257.34 112.79L1261.26 113.593C1262 109.966 1264.49 106.606 1269.18 103.583L1267.02 100.221ZM1257.35 112.753C1256.68 115.727 1256.71 118.484 1257.64 120.916C1258.57 123.376 1260.35 125.299 1262.78 126.709L1264.79 123.248C1263.01 122.223 1261.94 120.964 1261.38 119.495C1260.81 117.998 1260.7 116.079 1261.25 113.629L1257.35 112.753ZM1262.73 126.677C1263.95 127.436 1265.86 128.245 1268.33 129.116C1270.83 130 1274.04 130.992 1277.93 132.091C1285.73 134.29 1296.36 136.941 1309.82 140.043L1310.72 136.145C1297.28 133.049 1286.72 130.415 1279.02 128.242C1275.17 127.155 1272.05 126.189 1269.66 125.344C1267.23 124.486 1265.67 123.794 1264.84 123.28L1262.73 126.677ZM1309.79 140.035C1327.41 144.414 1339.61 150.964 1346.75 159.468L1349.82 156.896C1341.9 147.47 1328.76 140.628 1310.75 136.153L1309.79 140.035ZM1346.74 159.447C1353.7 167.964 1355.91 178.657 1353.14 191.801L1357.05 192.628C1360.03 178.546 1357.71 166.551 1349.83 156.916L1346.74 159.447ZM1353.14 191.792C1349.37 209.211 1339.88 223.461 1324.53 234.59L1326.88 237.828C1342.97 226.157 1353.06 211.078 1357.05 192.637L1353.14 191.792ZM1324.54 234.585C1309.28 245.543 1287.95 251.143 1260.3 251.143V255.143C1288.43 255.143 1310.7 249.453 1326.87 237.833L1324.54 234.585ZM1260.3 251.143C1232.02 251.143 1212.98 245.181 1202.5 233.854L1199.56 236.572C1211.21 249.151 1231.69 255.143 1260.3 255.143V251.143ZM1202.51 233.868C1192.06 222.361 1188.59 207.72 1192.36 189.634L1188.45 188.819C1184.47 207.921 1188.09 223.937 1199.55 236.558L1202.51 233.868ZM1190.4 191.227H1238.38V187.227H1190.4V191.227Z" fill="#D8E3C3"/>
</svg>
