<svg viewBox="0 0 2471 325" fill="none" xmlns="http://www.w3.org/2000/svg">
<path d="M144.34 46.793H96.6934L81.4199 118.844H129.066C141.13 118.844 151.146 115.911 159.115 110.045C167.084 104.179 172.396 94.8822 175.053 82.1543C177.82 69.4264 176.381 60.3509 170.736 54.9277C165.202 49.5046 156.404 46.793 144.34 46.793ZM124.418 161.012H72.4551L53.8613 249H3.06055L55.0234 4.29297H161.605C186.176 4.29297 204.382 10.6016 216.225 23.2188C228.178 35.8359 231.387 55.3704 225.854 81.8223C219.656 110.709 207.979 131.129 190.824 143.082C173.669 155.035 151.534 161.012 124.418 161.012ZM368.627 64.0586L358.334 112.535C355.456 112.203 352.855 111.982 350.531 111.871C348.207 111.76 346.326 111.705 344.887 111.705C325.85 111.705 311.739 117.903 302.553 130.299C297.462 137.271 293.367 148.007 290.268 162.506L272.006 249H224.359L262.709 68.043H307.865L301.225 99.5859C311.075 87.5221 319.154 79.2767 325.463 74.8496C335.977 67.4342 348.318 63.7266 362.484 63.7266C363.37 63.7266 364.089 63.7819 364.643 63.8926C365.307 63.8926 366.635 63.9479 368.627 64.0586ZM448.979 46.4609H401L410.297 2.79883H458.275L448.979 46.4609ZM396.352 68.043H444.33L405.98 249H358.002L396.352 68.043ZM601.879 68.043H652.68L549.086 249H499.115L472.553 68.043H525.678L534.975 201.52L601.879 68.043ZM759.594 161.012C756.273 162.893 752.953 164.443 749.633 165.66C746.312 166.767 741.885 167.818 736.352 168.814L725.395 170.807C714.991 172.577 707.354 174.736 702.484 177.281C694.294 181.598 689.258 188.294 687.377 197.369C685.606 205.449 686.547 211.314 690.199 214.967C693.962 218.508 699.053 220.279 705.473 220.279C715.655 220.279 725.671 217.291 735.521 211.314C745.372 205.338 752.178 194.436 755.941 178.609L759.594 161.012ZM735.521 138.932C744.597 137.825 751.182 136.441 755.277 134.781C762.582 131.904 766.898 127.421 768.227 121.334C769.776 113.919 768.282 108.827 763.744 106.061C759.206 103.183 751.957 101.744 741.996 101.744C730.818 101.744 722.296 104.511 716.43 110.045C712.335 114.14 708.959 119.674 706.303 126.646H660.648C665.076 110.82 672.27 97.8151 682.23 87.6328C698.168 71.6953 721.355 63.7266 751.791 63.7266C771.602 63.7266 788.37 67.6556 802.094 75.5137C815.818 83.3717 820.355 98.2025 815.707 120.006L797.943 203.014C796.726 208.769 795.398 215.742 793.959 223.932C792.963 230.13 792.963 234.335 793.959 236.549C795.066 238.762 797.003 240.589 799.77 242.027L798.441 249H746.977C746.312 245.348 746.036 241.917 746.146 238.707C746.257 235.497 746.589 231.845 747.143 227.75C739.063 234.833 730.264 240.865 720.746 245.846C709.236 251.712 697.061 254.645 684.223 254.645C667.842 254.645 655.281 249.996 646.537 240.699C637.904 231.292 635.414 218.01 639.066 200.855C643.826 178.609 655.834 162.506 675.092 152.545C685.606 147.122 700.271 143.248 719.086 140.924L735.521 138.932ZM963.129 132.955C963.682 126.204 962.686 120.117 960.141 114.693C956.378 107.389 948.907 103.736 937.729 103.736C921.791 103.736 909.229 111.65 900.043 127.477C895.173 135.888 891.244 147.066 888.256 161.012C885.489 174.293 884.77 184.973 886.098 193.053C888.533 208.105 897.553 215.631 913.158 215.631C924.226 215.631 932.693 212.643 938.559 206.666C944.535 200.689 949.018 192.942 952.006 183.424H1000.32C996.221 197.812 988.142 211.425 976.078 224.264C956.82 244.96 932.637 255.309 903.529 255.309C874.421 255.309 854.831 246.676 844.76 229.41C834.799 212.145 832.751 189.732 838.617 162.174C845.147 131.074 857.82 106.891 876.635 89.625C895.561 72.3594 918.36 63.7266 945.033 63.7266C967.722 63.7266 985.209 68.8177 997.494 79C1009.78 89.1823 1014.48 107.167 1011.61 132.955H963.129ZM1019.57 283.697L1025.55 284.029C1030.09 284.251 1034.52 284.085 1038.83 283.531C1043.15 282.978 1046.97 281.705 1050.29 279.713C1053.5 277.831 1056.93 273.902 1060.58 267.926C1064.23 261.949 1065.95 258.297 1065.73 256.969L1039.5 68.043H1092.12L1103.25 201.52L1168.99 68.043H1219.29L1119.35 246.012C1100.09 280.322 1086.09 301.572 1077.35 309.762C1068.71 318.062 1053.94 322.213 1033.02 322.213C1028.82 322.213 1025.44 322.158 1022.89 322.047C1020.35 322.047 1016.59 321.881 1011.61 321.549L1019.57 283.697ZM1280.55 115.357L1286.36 112.203C1280.94 104.234 1277.18 96.0996 1275.07 87.7988C1272.97 79.498 1272.86 70.8652 1274.74 61.9004C1278.5 44.0814 1287.41 30.1914 1301.47 20.2305C1315.64 10.1589 1332.24 5.12305 1351.27 5.12305C1368.65 5.12305 1381.88 10.2695 1390.95 20.5625C1400.14 30.7448 1403.07 43.8047 1399.75 59.7422C1396.65 74.1302 1390.73 85.8066 1381.99 94.7715C1373.35 103.736 1361.62 112.037 1346.79 119.674L1372.36 162.506C1377.56 156.751 1381.93 150.497 1385.47 143.746C1389.12 136.995 1391.84 129.856 1393.61 122.33H1435.61C1431.74 137.161 1424.98 152.158 1415.36 167.32C1410.04 175.842 1402.3 185.25 1392.11 195.543L1425.32 249H1367.88L1355.26 228.248C1345.41 235.885 1336.55 241.529 1328.7 245.182C1314.75 251.712 1299.53 254.977 1283.04 254.977C1258.25 254.977 1240.43 247.672 1229.58 233.062C1218.74 218.453 1215.2 202.239 1218.96 184.42C1222.06 169.7 1228.37 157.083 1237.88 146.568C1247.51 136.054 1261.74 125.65 1280.55 115.357ZM1320.23 74.1855C1321.56 77.3952 1324.66 83.0951 1329.53 91.2852C1337.16 86.6367 1342.81 82.7077 1346.46 79.498C1353.21 73.5215 1357.31 67.0469 1358.74 60.0742C1359.85 54.9831 1359.13 50.4453 1356.59 46.4609C1354.15 42.4766 1349.56 40.4844 1342.81 40.4844C1338.6 40.4844 1334.45 41.6465 1330.36 43.9707C1324.05 47.4017 1320.12 52.8249 1318.57 60.2402C1317.68 64.6673 1318.24 69.3158 1320.23 74.1855ZM1294.83 215.299C1302.58 215.299 1310.27 213.528 1317.9 209.986C1325.54 206.334 1332.02 202.294 1337.33 197.867L1304.29 142.418C1290.79 150.276 1281.49 157.193 1276.4 163.17C1271.31 169.146 1267.99 175.732 1266.44 182.926C1264.78 191.005 1266.49 198.421 1271.59 205.172C1276.79 211.923 1284.54 215.299 1294.83 215.299ZM1600.96 46.793H1553.31L1538.04 118.844H1585.69C1597.75 118.844 1607.77 115.911 1615.74 110.045C1623.71 104.179 1629.02 94.8822 1631.67 82.1543C1634.44 69.4264 1633 60.3509 1627.36 54.9277C1621.82 49.5046 1613.02 46.793 1600.96 46.793ZM1581.04 161.012H1529.08L1510.48 249H1459.68L1511.64 4.29297H1618.23C1642.8 4.29297 1661 10.6016 1672.85 23.2188C1684.8 35.8359 1688.01 55.3704 1682.47 81.8223C1676.28 110.709 1664.6 131.129 1647.45 143.082C1630.29 155.035 1608.15 161.012 1581.04 161.012ZM1824.75 158.854C1828.62 140.702 1827.85 126.757 1822.43 117.018C1817.11 107.167 1807.54 102.242 1793.71 102.242C1779.87 102.242 1768.19 107.167 1758.68 117.018C1749.16 126.757 1742.46 140.702 1738.59 158.854C1734.71 177.005 1735.43 191.005 1740.75 200.855C1746.17 210.706 1755.8 215.631 1769.63 215.631C1783.47 215.631 1795.14 210.706 1804.66 200.855C1814.18 191.005 1820.88 177.005 1824.75 158.854ZM1761.33 255.309C1730.23 255.309 1709.04 245.901 1697.75 227.086C1686.57 208.16 1683.8 185.416 1689.45 158.854C1694.98 132.734 1707.43 110.1 1726.8 90.9531C1746.17 71.806 1771.4 62.2324 1802.5 62.2324C1833.6 62.2324 1854.74 71.806 1865.92 90.9531C1877.1 110.1 1879.92 132.734 1874.39 158.854C1868.74 185.416 1856.24 208.16 1836.87 227.086C1817.61 245.901 1792.43 255.309 1761.33 255.309ZM1937.64 249H1890.33L1942.29 4.29297H1989.6L1937.64 249ZM2075.6 46.4609H2027.62L2036.92 2.79883H2084.9L2075.6 46.4609ZM2022.97 68.043H2070.95L2032.6 249H1984.62L2022.97 68.043ZM2211.23 132.955C2211.79 126.204 2210.79 120.117 2208.25 114.693C2204.48 107.389 2197.01 103.736 2185.83 103.736C2169.9 103.736 2157.33 111.65 2148.15 127.477C2143.28 135.888 2139.35 147.066 2136.36 161.012C2133.59 174.293 2132.88 184.973 2134.2 193.053C2136.64 208.105 2145.66 215.631 2161.26 215.631C2172.33 215.631 2180.8 212.643 2186.66 206.666C2192.64 200.689 2197.12 192.942 2200.11 183.424H2248.42C2244.33 197.812 2236.25 211.425 2224.18 224.264C2204.93 244.96 2180.74 255.309 2151.63 255.309C2122.53 255.309 2102.94 246.676 2092.87 229.41C2082.9 212.145 2080.86 189.732 2086.72 162.174C2093.25 131.074 2105.93 106.891 2124.74 89.625C2143.67 72.3594 2166.47 63.7266 2193.14 63.7266C2215.83 63.7266 2233.31 68.8177 2245.6 79C2257.88 89.1823 2262.59 107.167 2259.71 132.955H2211.23ZM2267.68 283.697L2273.66 284.029C2278.19 284.251 2282.62 284.085 2286.94 283.531C2291.25 282.978 2295.07 281.705 2298.39 279.713C2301.6 277.831 2305.03 273.902 2308.69 267.926C2312.34 261.949 2314.05 258.297 2313.83 256.969L2287.6 68.043H2340.23L2351.35 201.52L2417.09 68.043H2467.4L2367.46 246.012C2348.2 280.322 2334.2 301.572 2325.45 309.762C2316.82 318.062 2302.04 322.213 2281.13 322.213C2276.92 322.213 2273.55 322.158 2271 322.047C2268.45 322.047 2264.69 321.881 2259.71 321.549L2267.68 283.697Z" fill="white"/>
<path d="M96.6934 46.793V44.793H95.0729L94.7368 46.3782L96.6934 46.793ZM81.4199 118.844L79.4634 118.429L78.9515 120.844H81.4199V118.844ZM175.053 82.1543L173.098 81.7294L173.097 81.7376L173.095 81.7457L175.053 82.1543ZM170.736 54.9277L169.336 56.3562L169.344 56.3631L169.351 56.3699L170.736 54.9277ZM72.4551 161.012V159.012H70.8336L70.4983 160.598L72.4551 161.012ZM53.8613 249V251H55.4829L55.8181 249.414L53.8613 249ZM3.06055 249L1.10417 248.585L0.591258 251H3.06055V249ZM55.0234 4.29297V2.29297H53.4035L53.0671 3.87754L55.0234 4.29297ZM216.225 23.2188L214.766 24.5875L214.773 24.5942L216.225 23.2188ZM225.854 81.8223L227.809 82.2418L227.811 82.2318L225.854 81.8223ZM144.34 44.793H96.6934V48.793H144.34V44.793ZM94.7368 46.3782L79.4634 118.429L83.3764 119.258L98.6499 47.2077L94.7368 46.3782ZM81.4199 120.844H129.066V116.844H81.4199V120.844ZM129.066 120.844C141.461 120.844 151.919 117.826 160.301 111.656L157.93 108.434C150.374 113.996 140.799 116.844 129.066 116.844V120.844ZM160.301 111.656C168.777 105.416 174.286 95.6182 177.011 82.5629L173.095 81.7457C170.507 94.1461 165.391 102.942 157.93 108.434L160.301 111.656ZM177.007 82.5792C179.821 69.6355 178.534 59.6459 172.122 53.4855L169.351 56.3699C174.228 61.0559 175.818 69.2174 173.098 81.7294L177.007 82.5792ZM172.136 53.4993C166.066 47.5506 156.644 44.793 144.34 44.793V48.793C156.163 48.793 164.339 51.4585 169.336 56.3562L172.136 53.4993ZM124.418 159.012H72.4551V163.012H124.418V159.012ZM70.4983 160.598L51.9045 248.586L55.8181 249.414L74.4119 161.425L70.4983 160.598ZM53.8613 247H3.06055V251H53.8613V247ZM5.01693 249.415L56.9798 4.7084L53.0671 3.87754L1.10417 248.585L5.01693 249.415ZM55.0234 6.29297H161.605V2.29297H55.0234V6.29297ZM161.605 6.29297C185.86 6.29297 203.438 12.518 214.766 24.5875L217.683 21.85C205.326 8.68509 186.492 2.29297 161.605 2.29297V6.29297ZM214.773 24.5942C226.066 36.5152 229.373 55.2339 223.896 81.4127L227.811 82.2318C233.402 55.5069 230.289 35.1567 217.677 21.8433L214.773 24.5942ZM223.898 81.4027C217.762 109.999 206.275 129.878 189.681 141.441L191.968 144.723C209.683 132.379 221.549 111.419 227.809 82.2418L223.898 81.4027ZM189.681 141.441C172.948 153.1 151.246 159.012 124.418 159.012V163.012C151.822 163.012 174.39 156.97 191.968 144.723L189.681 141.441ZM368.627 64.0586L370.583 64.474L371.068 62.1911L368.738 62.0617L368.627 64.0586ZM358.334 112.535L358.105 114.522L359.912 114.731L360.29 112.951L358.334 112.535ZM302.553 130.299L300.946 129.108L300.942 129.114L300.937 129.119L302.553 130.299ZM290.268 162.506L288.312 162.088L288.311 162.093L290.268 162.506ZM272.006 249V251H273.628L273.963 249.413L272.006 249ZM224.359 249L222.403 248.585L221.891 251H224.359V249ZM262.709 68.043V66.043H261.088L260.752 67.6283L262.709 68.043ZM307.865 68.043L309.822 68.455L310.33 66.043H307.865V68.043ZM301.225 99.5859L299.268 99.1739L302.774 100.851L301.225 99.5859ZM325.463 74.8496L326.612 76.4867L326.616 76.484L325.463 74.8496ZM364.643 63.8926L364.25 65.8537L364.445 65.8926H364.643V63.8926ZM366.671 63.6432L356.378 112.12L360.29 112.951L370.583 64.474L366.671 63.6432ZM358.563 110.548C355.651 110.212 353.005 109.987 350.626 109.873L350.436 113.869C352.706 113.977 355.261 114.194 358.105 114.522L358.563 110.548ZM350.626 109.873C348.287 109.762 346.37 109.705 344.887 109.705V113.705C346.281 113.705 348.127 113.759 350.436 113.869L350.626 109.873ZM344.887 109.705C325.382 109.705 310.598 116.084 300.946 129.108L304.16 131.49C312.88 119.722 326.318 113.705 344.887 113.705V109.705ZM300.937 129.119C295.602 136.427 291.433 147.484 288.312 162.088L292.223 162.924C295.3 148.531 299.321 138.116 304.168 131.478L300.937 129.119ZM288.311 162.093L270.049 248.587L273.963 249.413L292.224 162.919L288.311 162.093ZM272.006 247H224.359V251H272.006V247ZM226.316 249.415L264.666 68.4576L260.752 67.6283L222.403 248.585L226.316 249.415ZM262.709 70.043H307.865V66.043H262.709V70.043ZM305.908 67.6309L299.268 99.1739L303.182 99.998L309.822 68.455L305.908 67.6309ZM302.774 100.851C312.601 88.8154 320.538 80.7488 326.612 76.4867L324.314 73.2125C317.77 77.8046 309.549 86.2289 299.675 98.321L302.774 100.851ZM326.616 76.484C336.759 69.3306 348.687 65.7266 362.484 65.7266V61.7266C347.949 61.7266 335.196 65.5379 324.31 73.2152L326.616 76.484ZM362.484 65.7266C363.303 65.7266 363.877 65.7791 364.25 65.8537L365.035 61.9314C364.301 61.7847 363.436 61.7266 362.484 61.7266V65.7266ZM364.643 65.8926C365.242 65.8926 366.515 65.9443 368.516 66.0555L368.738 62.0617C366.755 61.9515 365.371 61.8926 364.643 61.8926V65.8926ZM448.979 46.4609V48.4609H450.597L450.935 46.8775L448.979 46.4609ZM401 46.4609L399.044 46.0444L398.529 48.4609H401V46.4609ZM410.297 2.79883V0.798828H408.678L408.341 2.38231L410.297 2.79883ZM458.275 2.79883L460.232 3.21535L460.746 0.798828H458.275V2.79883ZM396.352 68.043V66.043H394.731L394.395 67.6283L396.352 68.043ZM444.33 68.043L446.287 68.4576L446.798 66.043H444.33V68.043ZM405.98 249V251H407.601L407.937 249.415L405.98 249ZM358.002 249L356.045 248.585L355.534 251H358.002V249ZM448.979 44.4609H401V48.4609H448.979V44.4609ZM402.956 46.8775L412.253 3.21535L408.341 2.38231L399.044 46.0444L402.956 46.8775ZM410.297 4.79883H458.275V0.798828H410.297V4.79883ZM456.319 2.38231L447.022 46.0444L450.935 46.8775L460.232 3.21535L456.319 2.38231ZM396.352 70.043H444.33V66.043H396.352V70.043ZM442.374 67.6283L404.024 248.585L407.937 249.415L446.287 68.4576L442.374 67.6283ZM405.98 247H358.002V251H405.98V247ZM359.958 249.415L398.308 68.4576L394.395 67.6283L356.045 248.585L359.958 249.415ZM601.879 68.043V66.043H600.644L600.091 67.1468L601.879 68.043ZM652.68 68.043L654.415 69.0366L656.129 66.043H652.68V68.043ZM549.086 249V251H550.246L550.822 249.994L549.086 249ZM499.115 249L497.136 249.29L497.387 251H499.115V249ZM472.553 68.043V66.043H470.238L470.574 68.3334L472.553 68.043ZM525.678 68.043L527.673 67.904L527.543 66.043H525.678V68.043ZM534.975 201.52L532.979 201.658L533.487 208.95L536.763 202.416L534.975 201.52ZM601.879 70.043H652.68V66.043H601.879V70.043ZM650.944 67.0493L547.35 248.006L550.822 249.994L654.415 69.0366L650.944 67.0493ZM549.086 247H499.115V251H549.086V247ZM501.094 248.71L474.532 67.7525L470.574 68.3334L497.136 249.29L501.094 248.71ZM472.553 70.043H525.678V66.043H472.553V70.043ZM523.683 68.1819L532.979 201.658L536.97 201.381L527.673 67.904L523.683 68.1819ZM536.763 202.416L603.667 68.9392L600.091 67.1468L533.187 200.623L536.763 202.416ZM759.594 161.012L761.552 161.418L762.449 157.095L758.608 159.272L759.594 161.012ZM749.633 165.66L750.265 167.558L750.293 167.548L750.321 167.538L749.633 165.66ZM736.352 168.814L735.997 166.846L735.994 166.847L736.352 168.814ZM725.395 170.807L725.73 172.778L725.741 172.776L725.752 172.774L725.395 170.807ZM702.484 177.281L701.558 175.509L701.552 175.512L702.484 177.281ZM687.377 197.369L689.331 197.797L689.333 197.786L689.335 197.775L687.377 197.369ZM690.199 214.967L688.785 216.381L688.806 216.402L688.828 216.423L690.199 214.967ZM755.941 178.609L757.887 179.072L757.894 179.044L757.9 179.016L755.941 178.609ZM735.521 138.932L735.762 140.917L735.764 140.917L735.521 138.932ZM755.277 134.781L754.544 132.92L754.535 132.924L754.526 132.928L755.277 134.781ZM768.227 121.334L770.181 121.76L770.182 121.752L770.184 121.743L768.227 121.334ZM763.744 106.061L762.673 107.75L762.688 107.759L762.703 107.768L763.744 106.061ZM716.43 110.045L715.057 108.59L715.036 108.61L715.015 108.631L716.43 110.045ZM706.303 126.646V128.646H707.681L708.172 127.358L706.303 126.646ZM660.648 126.646L658.722 126.108L658.012 128.646H660.648V126.646ZM682.23 87.6328L680.816 86.2186L680.808 86.2264L680.801 86.2342L682.23 87.6328ZM815.707 120.006L817.663 120.424L817.663 120.423L815.707 120.006ZM797.943 203.014L795.988 202.595L795.987 202.6L797.943 203.014ZM793.959 223.932L791.989 223.586L791.987 223.6L791.984 223.614L793.959 223.932ZM793.959 236.549L792.135 237.37L792.152 237.407L792.17 237.443L793.959 236.549ZM799.77 242.027L801.734 242.402L802.013 240.94L800.692 240.253L799.77 242.027ZM798.441 249V251H800.096L800.406 249.374L798.441 249ZM746.977 249L745.009 249.358L745.307 251H746.977V249ZM747.143 227.75L749.125 228.018L749.84 222.726L745.824 226.246L747.143 227.75ZM720.746 245.846L721.654 247.628L721.664 247.623L721.673 247.618L720.746 245.846ZM646.537 240.699L645.064 242.051L645.072 242.06L645.08 242.069L646.537 240.699ZM639.066 200.855L637.111 200.437L637.11 200.439L639.066 200.855ZM675.092 152.545L674.175 150.767L674.173 150.768L675.092 152.545ZM719.086 140.924L718.845 138.938L718.841 138.939L719.086 140.924ZM758.608 159.272C755.375 161.103 752.154 162.605 748.944 163.782L750.321 167.538C753.752 166.28 757.172 164.683 760.58 162.752L758.608 159.272ZM749 163.763C745.808 164.827 741.486 165.858 735.997 166.846L736.706 170.783C742.285 169.779 746.817 168.707 750.265 167.558L749 163.763ZM735.994 166.847L725.037 168.839L725.752 172.774L736.709 170.782L735.994 166.847ZM725.059 168.835C714.602 170.615 706.713 172.814 701.558 175.509L703.411 179.054C707.995 176.657 715.38 174.54 725.73 172.778L725.059 168.835ZM701.552 175.512C692.833 180.107 687.421 187.304 685.419 196.963L689.335 197.775C691.096 189.284 695.756 183.088 703.417 179.051L701.552 175.512ZM685.423 196.941C683.598 205.271 684.412 212.008 688.785 216.381L691.613 213.553C688.682 210.621 687.615 205.626 689.331 197.797L685.423 196.941ZM688.828 216.423C693.047 220.394 698.673 222.279 705.473 222.279V218.279C699.433 218.279 694.877 216.623 691.57 213.51L688.828 216.423ZM705.473 222.279C716.067 222.279 726.438 219.165 736.559 213.024L734.484 209.605C724.904 215.417 715.243 218.279 705.473 218.279V222.279ZM736.559 213.024C747.028 206.673 754.052 195.202 757.887 179.072L753.996 178.147C750.305 193.67 743.716 204.003 734.484 209.605L736.559 213.024ZM757.9 179.016L761.552 161.418L757.635 160.605L753.983 178.203L757.9 179.016ZM735.764 140.917C744.869 139.806 751.675 138.4 756.029 136.635L754.526 132.928C750.689 134.483 744.325 135.843 735.279 136.946L735.764 140.917ZM756.01 136.642C763.753 133.592 768.673 128.67 770.181 121.76L766.273 120.908C765.124 126.172 761.411 130.216 754.544 132.92L756.01 136.642ZM770.184 121.743C770.999 117.842 771.058 114.359 770.187 111.391C769.3 108.367 767.478 105.995 764.785 104.353L762.703 107.768C764.548 108.893 765.742 110.45 766.349 112.517C766.972 114.641 767.003 117.41 766.269 120.925L770.184 121.743ZM764.815 104.372C759.785 101.181 752.06 99.7441 741.996 99.7441V103.744C751.854 103.744 758.628 105.185 762.673 107.75L764.815 104.372ZM741.996 99.7441C730.506 99.7441 721.417 102.59 715.057 108.59L717.802 111.5C723.174 106.432 731.129 103.744 741.996 103.744V99.7441ZM715.015 108.631C710.672 112.974 707.163 118.771 704.434 125.934L708.172 127.358C710.755 120.576 713.997 115.306 717.844 111.459L715.015 108.631ZM706.303 124.646H660.648V128.646H706.303V124.646ZM662.575 127.185C666.925 111.632 673.968 98.9387 683.66 89.0314L680.801 86.2342C670.571 96.6915 663.226 110.007 658.722 126.108L662.575 127.185ZM683.645 89.047C699.091 73.601 721.694 65.7266 751.791 65.7266V61.7266C721.016 61.7266 697.245 69.7896 680.816 86.2186L683.645 89.047ZM751.791 65.7266C771.341 65.7266 787.746 69.6031 801.1 77.2493L803.088 73.778C788.994 65.7081 771.864 61.7266 751.791 61.7266V65.7266ZM801.1 77.2493C807.53 80.9311 811.761 86.1969 813.878 93.1154C816.013 100.095 816.033 108.883 813.751 119.589L817.663 120.423C820.029 109.325 820.105 99.7968 817.703 91.9451C815.282 84.0329 810.381 77.9543 803.088 73.778L801.1 77.2493ZM813.751 119.587L795.988 202.595L799.899 203.432L817.663 120.424L813.751 119.587ZM795.987 202.6C794.763 208.385 793.43 215.381 791.989 223.586L795.929 224.278C797.365 216.102 798.689 209.153 799.9 203.428L795.987 202.6ZM791.984 223.614C791.477 226.772 791.212 229.487 791.212 231.734C791.212 233.943 791.465 235.881 792.135 237.37L795.783 235.728C795.457 235.003 795.212 233.732 795.212 231.734C795.212 229.776 795.445 227.289 795.934 224.249L791.984 223.614ZM792.17 237.443C793.51 240.122 795.804 242.219 798.847 243.802L800.692 240.253C798.201 238.958 796.622 237.402 795.748 235.654L792.17 237.443ZM797.805 241.653L796.477 248.626L800.406 249.374L801.734 242.402L797.805 241.653ZM798.441 247H746.977V251H798.441V247ZM748.944 248.642C748.302 245.109 748.04 241.823 748.145 238.776L744.148 238.638C744.031 242.011 744.323 245.586 745.009 249.358L748.944 248.642ZM748.145 238.776C748.253 235.649 748.578 232.065 749.125 228.018L745.161 227.482C744.601 231.626 744.261 235.346 744.148 238.638L748.145 238.776ZM745.824 226.246C737.864 233.225 729.196 239.167 719.819 244.074L721.673 247.618C731.332 242.564 740.262 236.442 748.461 229.254L745.824 226.246ZM719.838 244.064C708.607 249.787 696.743 252.645 684.223 252.645V256.645C697.379 256.645 709.864 253.636 721.654 247.628L719.838 244.064ZM684.223 252.645C668.229 252.645 656.259 248.118 647.994 239.329L645.08 242.069C654.302 251.875 667.456 256.645 684.223 256.645V252.645ZM648.011 239.347C639.967 230.581 637.45 218.05 641.023 201.272L637.11 200.439C633.378 217.971 635.842 232.002 645.064 242.051L648.011 239.347ZM641.022 201.274C645.663 179.58 657.314 163.992 676.011 154.321L674.173 150.768C654.354 161.019 641.988 177.639 637.111 200.437L641.022 201.274ZM676.009 154.322C686.225 149.053 700.627 145.219 719.331 142.909L718.841 138.939C699.915 141.277 684.987 145.191 674.175 150.767L676.009 154.322ZM719.327 142.909L735.762 140.917L735.281 136.946L718.845 138.938L719.327 142.909ZM963.129 132.955L961.136 132.792L960.958 134.955H963.129V132.955ZM960.141 114.693L961.951 113.844L961.935 113.81L961.919 113.777L960.141 114.693ZM900.043 127.477L898.313 126.473L898.312 126.474L900.043 127.477ZM888.256 161.012L886.3 160.593L886.298 160.604L888.256 161.012ZM886.098 193.053L888.072 192.733L888.071 192.728L886.098 193.053ZM938.559 206.666L937.144 205.252L937.138 205.258L937.131 205.265L938.559 206.666ZM952.006 183.424V181.424H950.538L950.098 182.825L952.006 183.424ZM1000.32 183.424L1002.24 183.971L1002.97 181.424H1000.32V183.424ZM976.078 224.264L974.621 222.894L974.614 222.901L976.078 224.264ZM844.76 229.41L843.027 230.41L843.032 230.418L844.76 229.41ZM838.617 162.174L840.573 162.59L840.575 162.585L838.617 162.174ZM876.635 89.625L875.287 88.1475L875.283 88.1514L876.635 89.625ZM997.494 79L998.77 77.4602L997.494 79ZM1011.61 132.955V134.955H1013.39L1013.59 133.177L1011.61 132.955ZM965.122 133.118C965.7 126.066 964.664 119.622 961.951 113.844L958.33 115.543C960.709 120.611 961.664 126.342 961.136 132.792L965.122 133.118ZM961.919 113.777C957.69 105.569 949.344 101.736 937.729 101.736V105.736C948.47 105.736 955.065 109.208 958.363 115.609L961.919 113.777ZM937.729 101.736C920.96 101.736 907.794 110.138 898.313 126.473L901.773 128.481C910.664 113.161 922.622 105.736 937.729 105.736V101.736ZM898.312 126.474C893.301 135.131 889.314 146.529 886.3 160.593L890.211 161.431C893.174 147.604 897.046 136.645 901.774 128.479L898.312 126.474ZM886.298 160.604C883.509 173.989 882.738 184.947 884.124 193.377L888.071 192.728C886.801 185 887.469 174.597 890.214 161.42L886.298 160.604ZM884.123 193.372C885.394 201.229 888.429 207.368 893.408 211.522C898.381 215.671 905.042 217.631 913.158 217.631V213.631C905.669 213.631 900.017 211.827 895.97 208.451C891.929 205.079 889.236 199.928 888.072 192.733L884.123 193.372ZM913.158 217.631C924.583 217.631 933.635 214.538 939.986 208.067L937.131 205.265C931.751 210.747 923.868 213.631 913.158 213.631V217.631ZM939.973 208.08C946.215 201.838 950.847 193.793 953.914 184.023L950.098 182.825C947.189 192.091 942.855 199.541 937.144 205.252L939.973 208.08ZM952.006 185.424H1000.32V181.424H952.006V185.424ZM998.393 182.876C994.4 196.907 986.504 210.247 974.621 222.894L977.536 225.633C989.779 212.603 998.043 198.717 1002.24 183.971L998.393 182.876ZM974.614 222.901C955.747 243.178 932.101 253.309 903.529 253.309V257.309C933.174 257.309 957.894 246.743 977.542 225.626L974.614 222.901ZM903.529 253.309C874.776 253.309 856.051 244.798 846.487 228.402L843.032 230.418C853.611 248.554 874.066 257.309 903.529 257.309V253.309ZM846.492 228.411C836.864 211.722 834.768 189.864 840.573 162.59L836.661 161.757C830.735 189.6 832.734 212.567 843.027 230.41L846.492 228.411ZM840.575 162.585C847.04 131.792 859.548 108.019 877.987 91.0986L875.283 88.1514C856.092 105.762 843.254 130.355 836.66 161.763L840.575 162.585ZM877.983 91.1025C896.524 74.188 918.836 65.7266 945.033 65.7266V61.7266C917.884 61.7266 894.597 70.5308 875.287 88.1475L877.983 91.1025ZM945.033 65.7266C967.449 65.7266 984.416 70.7585 996.218 80.5398L998.77 77.4602C986.002 66.8769 967.995 61.7266 945.033 61.7266V65.7266ZM996.218 80.5398C1007.72 90.0747 1012.47 107.185 1009.62 132.733L1013.59 133.177C1016.5 107.15 1011.84 88.2899 998.77 77.4602L996.218 80.5398ZM1011.61 130.955H963.129V134.955H1011.61V130.955ZM1019.57 283.697L1019.69 281.7L1017.97 281.605L1017.62 283.285L1019.57 283.697ZM1025.55 284.029L1025.44 286.026L1025.45 286.027L1025.55 284.029ZM1050.29 279.713L1049.28 277.987L1049.27 277.993L1049.26 277.998L1050.29 279.713ZM1065.73 256.969L1063.75 257.244L1063.75 257.271L1063.75 257.298L1065.73 256.969ZM1039.5 68.043V66.043H1037.2L1037.52 68.318L1039.5 68.043ZM1092.12 68.043L1094.12 67.8769L1093.96 66.043H1092.12V68.043ZM1103.25 201.52L1101.25 201.686L1101.85 208.876L1105.04 202.403L1103.25 201.52ZM1168.99 68.043V66.043H1167.74L1167.19 67.1593L1168.99 68.043ZM1219.29 68.043L1221.03 69.0223L1222.71 66.043H1219.29V68.043ZM1119.35 246.012L1117.61 245.032L1117.61 245.033L1119.35 246.012ZM1077.35 309.762L1075.98 308.302L1075.97 308.311L1075.96 308.32L1077.35 309.762ZM1022.89 322.047L1022.98 320.049L1022.94 320.047H1022.89V322.047ZM1011.61 321.549L1009.65 321.137L1009.17 323.391L1011.47 323.544L1011.61 321.549ZM1019.46 285.694L1025.44 286.026L1025.66 282.032L1019.69 281.7L1019.46 285.694ZM1025.45 286.027C1030.1 286.254 1034.65 286.084 1039.09 285.515L1038.58 281.547C1034.38 282.085 1030.07 282.248 1025.65 282.032L1025.45 286.027ZM1039.09 285.515C1043.64 284.931 1047.73 283.579 1051.32 281.428L1049.26 277.998C1046.2 279.831 1042.65 281.025 1038.58 281.547L1039.09 285.515ZM1051.3 281.438C1054.95 279.3 1058.59 275.019 1062.29 268.969L1058.87 266.883C1055.27 272.785 1052.05 276.363 1049.28 277.987L1051.3 281.438ZM1062.29 268.969C1064.13 265.956 1065.51 263.477 1066.42 261.554C1066.87 260.595 1067.22 259.729 1067.45 258.975C1067.65 258.284 1067.83 257.441 1067.7 256.64L1063.75 257.298C1063.73 257.161 1063.78 257.273 1063.61 257.826C1063.47 258.318 1063.2 258.987 1062.8 259.854C1061.98 261.583 1060.68 263.919 1058.87 266.883L1062.29 268.969ZM1067.71 256.694L1041.48 67.7679L1037.52 68.318L1063.75 257.244L1067.71 256.694ZM1039.5 70.043H1092.12V66.043H1039.5V70.043ZM1090.13 68.2091L1101.25 201.686L1105.24 201.353L1094.12 67.8769L1090.13 68.2091ZM1105.04 202.403L1170.78 68.9267L1167.19 67.1593L1101.45 200.636L1105.04 202.403ZM1168.99 70.043H1219.29V66.043H1168.99V70.043ZM1217.55 67.0637L1117.61 245.032L1121.09 246.991L1221.03 69.0223L1217.55 67.0637ZM1117.61 245.033C1107.99 262.166 1099.7 276.011 1092.74 286.581C1085.75 297.188 1080.17 304.378 1075.98 308.302L1078.71 311.221C1083.27 306.955 1089.06 299.426 1096.08 288.782C1103.11 278.102 1111.45 264.167 1121.09 246.991L1117.61 245.033ZM1075.96 308.32C1067.9 316.075 1053.78 320.213 1033.02 320.213V324.213C1054.1 324.213 1069.53 320.05 1078.73 311.203L1075.96 308.32ZM1033.02 320.213C1028.83 320.213 1025.49 320.158 1022.98 320.049L1022.81 324.045C1025.39 324.157 1028.8 324.213 1033.02 324.213V320.213ZM1022.89 320.047C1020.42 320.047 1016.71 319.885 1011.74 319.553L1011.47 323.544C1016.46 323.877 1020.28 324.047 1022.89 324.047V320.047ZM1013.56 321.961L1021.53 284.109L1017.62 283.285L1009.65 321.137L1013.56 321.961ZM1280.55 115.357L1279.6 113.6L1279.59 113.603L1280.55 115.357ZM1286.36 112.203L1287.32 113.961L1289.26 112.906L1288.01 111.078L1286.36 112.203ZM1274.74 61.9004L1272.78 61.4871L1272.78 61.4896L1274.74 61.9004ZM1301.47 20.2305L1302.63 21.8623L1302.63 21.8605L1301.47 20.2305ZM1390.95 20.5625L1389.45 21.8852L1389.46 21.8938L1389.47 21.9022L1390.95 20.5625ZM1399.75 59.7422L1401.71 60.1633L1401.71 60.1501L1399.75 59.7422ZM1381.99 94.7715L1380.55 93.375L1380.55 93.3842L1381.99 94.7715ZM1346.79 119.674L1345.88 117.896L1343.98 118.871L1345.07 120.699L1346.79 119.674ZM1372.36 162.506L1370.64 163.531L1372.03 165.854L1373.84 163.847L1372.36 162.506ZM1385.47 143.746L1383.71 142.794L1383.71 142.806L1383.7 142.817L1385.47 143.746ZM1393.61 122.33V120.33H1392.02L1391.66 121.872L1393.61 122.33ZM1435.61 122.33L1437.54 122.836L1438.2 120.33H1435.61V122.33ZM1415.36 167.32L1413.67 166.248L1413.66 166.255L1413.66 166.262L1415.36 167.32ZM1392.11 195.543L1390.69 194.136L1389.58 195.258L1390.41 196.598L1392.11 195.543ZM1425.32 249V251H1428.91L1427.02 247.945L1425.32 249ZM1367.88 249L1366.17 250.039L1366.75 251H1367.88V249ZM1355.26 228.248L1356.97 227.209L1355.8 225.295L1354.03 226.667L1355.26 228.248ZM1328.7 245.182L1327.85 243.368L1327.85 243.37L1328.7 245.182ZM1218.96 184.42L1220.92 184.833L1220.92 184.832L1218.96 184.42ZM1237.88 146.568L1236.41 145.218L1236.4 145.226L1237.88 146.568ZM1320.23 74.1855L1318.38 74.9428L1318.38 74.9503L1320.23 74.1855ZM1329.53 91.2852L1327.81 92.3073L1328.84 94.0443L1330.57 92.9936L1329.53 91.2852ZM1346.46 79.498L1347.78 81.0004L1347.78 80.9956L1346.46 79.498ZM1358.74 60.0742L1356.79 59.6494L1356.79 59.6597L1356.79 59.67L1358.74 60.0742ZM1356.59 46.4609L1354.88 47.5038L1354.89 47.5209L1354.9 47.5377L1356.59 46.4609ZM1330.36 43.9707L1331.31 45.7277L1331.33 45.719L1331.34 45.7101L1330.36 43.9707ZM1318.57 60.2402L1316.61 59.8312L1316.61 59.8396L1316.61 59.848L1318.57 60.2402ZM1317.9 209.986L1318.75 211.801L1318.76 211.796L1318.77 211.791L1317.9 209.986ZM1337.33 197.867L1338.61 199.404L1339.92 198.31L1339.05 196.843L1337.33 197.867ZM1304.29 142.418L1306.01 141.394L1305 139.694L1303.29 140.689L1304.29 142.418ZM1276.4 163.17L1277.92 164.467L1276.4 163.17ZM1266.44 182.926L1264.48 182.505L1264.48 182.514L1264.48 182.523L1266.44 182.926ZM1271.59 205.172L1269.99 206.376L1270 206.384L1270 206.393L1271.59 205.172ZM1281.5 117.115L1287.32 113.961L1285.41 110.445L1279.6 113.6L1281.5 117.115ZM1288.01 111.078C1282.71 103.278 1279.05 95.3555 1277.01 87.3077L1273.13 88.29C1275.3 96.8437 1279.17 105.191 1284.71 113.328L1288.01 111.078ZM1277.01 87.3077C1274.99 79.3226 1274.87 70.9991 1276.7 62.3112L1272.78 61.4896C1270.84 70.7313 1270.95 79.6735 1273.13 88.29L1277.01 87.3077ZM1276.7 62.3136C1280.36 44.9562 1289 31.5145 1302.63 21.8623L1300.31 18.5987C1285.82 28.8684 1276.64 43.2066 1272.78 61.4871L1276.7 62.3136ZM1302.63 21.8605C1316.42 12.0525 1332.61 7.12305 1351.27 7.12305V3.12305C1331.86 3.12305 1314.85 8.26517 1300.31 18.6004L1302.63 21.8605ZM1351.27 7.12305C1368.24 7.12305 1380.85 12.1323 1389.45 21.8852L1392.45 19.2398C1382.9 8.4068 1369.06 3.12305 1351.27 3.12305V7.12305ZM1389.47 21.9022C1398.14 31.5185 1401.01 43.889 1397.79 59.3343L1401.71 60.1501C1405.13 43.7204 1402.13 29.971 1392.44 19.2228L1389.47 21.9022ZM1397.79 59.3211C1394.76 73.4067 1388.99 84.7238 1380.55 93.3751L1383.42 96.1679C1392.47 86.8894 1398.54 74.8537 1401.71 60.1633L1397.79 59.3211ZM1380.55 93.3842C1372.11 102.147 1360.57 110.328 1345.88 117.896L1347.71 121.452C1362.67 113.747 1374.6 105.325 1383.43 96.1588L1380.55 93.3842ZM1345.07 120.699L1370.64 163.531L1374.07 161.481L1348.51 118.649L1345.07 120.699ZM1373.84 163.847C1379.15 157.969 1383.62 151.578 1387.24 144.675L1383.7 142.817C1380.24 149.417 1375.96 155.532 1370.87 161.165L1373.84 163.847ZM1387.23 144.698C1390.97 137.79 1393.74 130.485 1395.55 122.788L1391.66 121.872C1389.93 129.227 1387.28 136.2 1383.71 142.794L1387.23 144.698ZM1393.61 124.33H1435.61V120.33H1393.61V124.33ZM1433.67 121.825C1429.86 136.424 1423.2 151.231 1413.67 166.248L1417.04 168.392C1426.77 153.084 1433.61 137.898 1437.54 122.836L1433.67 121.825ZM1413.66 166.262C1408.45 174.617 1400.81 183.907 1390.69 194.136L1393.54 196.95C1403.78 186.593 1411.64 177.068 1417.05 168.378L1413.66 166.262ZM1390.41 196.598L1423.62 250.055L1427.02 247.945L1393.81 194.488L1390.41 196.598ZM1425.32 247H1367.88V251H1425.32V247ZM1369.58 247.961L1356.97 227.209L1353.55 229.287L1366.17 250.039L1369.58 247.961ZM1354.03 226.667C1344.25 234.249 1335.53 239.8 1327.85 243.368L1329.54 246.995C1337.58 243.259 1346.56 237.521 1356.48 229.829L1354.03 226.667ZM1327.85 243.37C1314.19 249.767 1299.26 252.977 1283.04 252.977V256.977C1299.8 256.977 1315.31 253.656 1329.54 246.993L1327.85 243.37ZM1283.04 252.977C1258.63 252.977 1241.53 245.801 1231.19 231.87L1227.98 234.255C1239.33 249.543 1257.86 256.977 1283.04 256.977V252.977ZM1231.19 231.87C1220.69 217.722 1217.27 202.092 1220.92 184.833L1217 184.007C1213.12 202.386 1216.79 219.185 1227.98 234.255L1231.19 231.87ZM1220.92 184.832C1223.95 170.437 1230.1 158.146 1239.37 147.911L1236.4 145.226C1226.63 156.019 1220.17 168.963 1217 184.008L1220.92 184.832ZM1239.36 147.919C1248.79 137.627 1262.8 127.347 1281.51 117.112L1279.59 113.603C1260.67 123.954 1246.24 134.481 1236.41 145.218L1239.36 147.919ZM1318.38 74.9503C1319.77 78.3124 1322.94 84.1298 1327.81 92.3073L1331.24 90.263C1326.37 82.0603 1323.34 76.478 1322.08 73.4208L1318.38 74.9503ZM1330.57 92.9936C1338.23 88.3259 1344 84.3256 1347.78 81.0004L1345.14 77.9957C1341.62 81.0898 1336.09 84.9475 1328.49 89.5768L1330.57 92.9936ZM1347.78 80.9956C1354.77 74.8097 1359.16 67.9756 1360.7 60.4784L1356.79 59.67C1355.45 66.1181 1351.65 72.2333 1345.13 78.0005L1347.78 80.9956ZM1360.7 60.4991C1361.9 54.9493 1361.13 49.8613 1358.27 45.3842L1354.9 47.5377C1357.13 51.0293 1357.8 55.0169 1356.79 59.6494L1360.7 60.4991ZM1358.29 45.418C1355.35 40.5979 1349.92 38.4844 1342.81 38.4844V42.4844C1349.2 42.4844 1352.96 44.3552 1354.88 47.5038L1358.29 45.418ZM1342.81 38.4844C1338.21 38.4844 1333.73 39.7571 1329.37 42.2313L1331.34 45.7101C1335.17 43.5358 1338.99 42.4844 1342.81 42.4844V38.4844ZM1329.4 42.2137C1322.54 45.9423 1318.27 51.8772 1316.61 59.8312L1320.53 60.6493C1321.96 53.7725 1325.55 48.8611 1331.31 45.7277L1329.4 42.2137ZM1316.61 59.848C1315.63 64.7212 1316.26 69.7706 1318.38 74.9428L1322.08 73.4283C1320.21 68.8609 1319.73 64.6134 1320.53 60.6325L1316.61 59.848ZM1294.83 217.299C1302.89 217.299 1310.87 215.454 1318.75 211.801L1317.06 208.172C1309.67 211.602 1302.26 213.299 1294.83 213.299V217.299ZM1318.77 211.791C1326.52 208.082 1333.14 203.958 1338.61 199.404L1336.05 196.331C1330.89 200.631 1324.56 204.586 1317.04 208.182L1318.77 211.791ZM1339.05 196.843L1306.01 141.394L1302.57 143.442L1335.61 198.891L1339.05 196.843ZM1303.29 140.689C1289.74 148.572 1280.2 155.627 1274.88 161.873L1277.92 164.467C1282.78 158.759 1291.84 151.98 1305.3 144.147L1303.29 140.689ZM1274.88 161.873C1269.59 168.084 1266.11 174.966 1264.48 182.505L1268.39 183.347C1269.87 176.498 1273.03 170.209 1277.92 164.467L1274.88 161.873ZM1264.48 182.523C1262.7 191.181 1264.56 199.179 1269.99 206.376L1273.18 203.968C1268.43 197.662 1266.86 190.829 1268.4 183.328L1264.48 182.523ZM1270 206.393C1275.66 213.739 1284.06 217.299 1294.83 217.299V213.299C1285.01 213.299 1277.91 210.107 1273.17 203.951L1270 206.393ZM1553.31 46.793V44.793H1551.69L1551.36 46.3782L1553.31 46.793ZM1538.04 118.844L1536.08 118.429L1535.57 120.844H1538.04V118.844ZM1631.67 82.1543L1629.72 81.7294L1629.72 81.7376L1629.72 81.7457L1631.67 82.1543ZM1627.36 54.9277L1625.96 56.3562L1625.96 56.3631L1625.97 56.3699L1627.36 54.9277ZM1529.08 161.012V159.012H1527.45L1527.12 160.598L1529.08 161.012ZM1510.48 249V251H1512.1L1512.44 249.414L1510.48 249ZM1459.68 249L1457.73 248.585L1457.21 251H1459.68V249ZM1511.64 4.29297V2.29297H1510.02L1509.69 3.87754L1511.64 4.29297ZM1672.85 23.2188L1671.39 24.5875L1671.39 24.5942L1672.85 23.2188ZM1682.47 81.8223L1684.43 82.2418L1684.43 82.2318L1682.47 81.8223ZM1600.96 44.793H1553.31V48.793H1600.96V44.793ZM1551.36 46.3782L1536.08 118.429L1540 119.258L1555.27 47.2077L1551.36 46.3782ZM1538.04 120.844H1585.69V116.844H1538.04V120.844ZM1585.69 120.844C1598.08 120.844 1608.54 117.826 1616.92 111.656L1614.55 108.434C1607 113.996 1597.42 116.844 1585.69 116.844V120.844ZM1616.92 111.656C1625.4 105.416 1630.91 95.6182 1633.63 82.5629L1629.72 81.7457C1627.13 94.1461 1622.01 102.942 1614.55 108.434L1616.92 111.656ZM1633.63 82.5792C1636.44 69.6355 1635.15 59.6459 1628.74 53.4855L1625.97 56.3699C1630.85 61.0559 1632.44 69.2174 1629.72 81.7294L1633.63 82.5792ZM1628.76 53.4993C1622.69 47.5506 1613.27 44.793 1600.96 44.793V48.793C1612.78 48.793 1620.96 51.4585 1625.96 56.3562L1628.76 53.4993ZM1581.04 159.012H1529.08V163.012H1581.04V159.012ZM1527.12 160.598L1508.53 248.586L1512.44 249.414L1531.03 161.425L1527.12 160.598ZM1510.48 247H1459.68V251H1510.48V247ZM1461.64 249.415L1513.6 4.7084L1509.69 3.87754L1457.73 248.585L1461.64 249.415ZM1511.64 6.29297H1618.23V2.29297H1511.64V6.29297ZM1618.23 6.29297C1642.48 6.29297 1660.06 12.518 1671.39 24.5875L1674.3 21.85C1661.95 8.68509 1643.11 2.29297 1618.23 2.29297V6.29297ZM1671.39 24.5942C1682.69 36.5152 1685.99 55.2339 1680.52 81.4127L1684.43 82.2318C1690.02 55.5069 1686.91 35.1567 1674.3 21.8433L1671.39 24.5942ZM1680.52 81.4027C1674.38 109.999 1662.9 129.878 1646.3 141.441L1648.59 144.723C1666.3 132.379 1678.17 111.419 1684.43 82.2418L1680.52 81.4027ZM1646.3 141.441C1629.57 153.1 1607.87 159.012 1581.04 159.012V163.012C1608.44 163.012 1631.01 156.97 1648.59 144.723L1646.3 141.441ZM1822.43 117.018L1820.67 117.967L1820.67 117.979L1820.68 117.991L1822.43 117.018ZM1758.68 117.018L1760.11 118.415L1760.11 118.407L1758.68 117.018ZM1740.75 200.855L1738.99 201.805L1738.99 201.812L1738.99 201.82L1740.75 200.855ZM1804.66 200.855L1803.22 199.466L1804.66 200.855ZM1697.75 227.086L1696.03 228.103L1696.03 228.115L1697.75 227.086ZM1689.45 158.854L1691.4 159.269L1691.4 159.268L1689.45 158.854ZM1726.8 90.9531L1725.39 89.5308L1726.8 90.9531ZM1865.92 90.9531L1867.65 89.9448L1865.92 90.9531ZM1874.39 158.854L1876.34 159.269L1876.35 159.268L1874.39 158.854ZM1836.87 227.086L1838.27 228.516L1838.27 228.516L1836.87 227.086ZM1826.71 159.271C1830.62 140.939 1829.94 126.41 1824.17 116.045L1820.68 117.991C1825.75 127.104 1826.63 140.466 1822.79 158.436L1826.71 159.271ZM1824.19 116.068C1818.44 105.408 1808.07 100.242 1793.71 100.242V104.242C1807.01 104.242 1815.79 108.927 1820.67 117.967L1824.19 116.068ZM1793.71 100.242C1779.33 100.242 1767.14 105.383 1757.24 115.628L1760.11 118.407C1769.25 108.951 1780.41 104.242 1793.71 104.242V100.242ZM1757.25 115.62C1747.38 125.711 1740.56 140.045 1736.63 158.436L1740.54 159.271C1744.37 141.36 1750.93 127.803 1760.11 118.415L1757.25 115.62ZM1736.63 158.436C1732.72 176.768 1733.34 191.338 1738.99 201.805L1742.51 199.906C1737.53 190.673 1736.71 177.241 1740.54 159.271L1736.63 158.436ZM1738.99 201.82C1744.86 212.466 1755.27 217.631 1769.63 217.631V213.631C1756.33 213.631 1747.48 208.946 1742.5 199.891L1738.99 201.82ZM1769.63 217.631C1784 217.631 1796.2 212.49 1806.1 202.245L1803.22 199.466C1794.09 208.922 1782.93 213.631 1769.63 213.631V217.631ZM1806.1 202.245C1815.96 192.046 1822.78 177.662 1826.71 159.271L1822.79 158.436C1818.97 176.347 1812.41 189.964 1803.22 199.466L1806.1 202.245ZM1761.33 253.309C1730.61 253.309 1710.25 244.036 1699.46 226.057L1696.03 228.115C1707.82 247.766 1729.85 257.309 1761.33 257.309V253.309ZM1699.47 226.069C1688.6 207.67 1685.84 185.462 1691.4 159.269L1687.49 158.438C1681.77 185.37 1684.54 208.65 1696.03 228.103L1699.47 226.069ZM1691.4 159.268C1696.85 133.539 1709.11 111.254 1728.21 92.3754L1725.39 89.5308C1705.75 108.947 1693.11 131.929 1687.49 158.439L1691.4 159.268ZM1728.21 92.3754C1747.15 73.6517 1771.85 64.2324 1802.5 64.2324V60.2324C1770.96 60.2324 1745.19 69.9602 1725.39 89.5308L1728.21 92.3754ZM1802.5 64.2324C1833.21 64.2324 1853.51 73.6615 1864.19 91.9615L1867.65 89.9448C1855.98 69.9504 1834 60.2324 1802.5 60.2324V64.2324ZM1864.19 91.9615C1875.07 110.595 1877.89 132.701 1872.43 158.439L1876.35 159.268C1881.96 132.767 1879.13 109.605 1867.65 89.9448L1864.19 91.9615ZM1872.43 158.438C1866.87 184.616 1854.56 207.006 1835.47 225.655L1838.27 228.516C1857.92 209.314 1870.62 186.217 1876.34 159.269L1872.43 158.438ZM1835.47 225.655C1816.65 244.049 1792 253.309 1761.33 253.309V257.309C1792.87 257.309 1818.58 247.754 1838.27 228.516L1835.47 225.655ZM1937.64 249V251H1939.26L1939.6 249.415L1937.64 249ZM1890.33 249L1888.37 248.585L1887.86 251H1890.33V249ZM1942.29 4.29297V2.29297H1940.67L1940.33 3.87754L1942.29 4.29297ZM1989.6 4.29297L1991.56 4.7084L1992.07 2.29297H1989.6V4.29297ZM1937.64 247H1890.33V251H1937.64V247ZM1892.28 249.415L1944.25 4.7084L1940.33 3.87754L1888.37 248.585L1892.28 249.415ZM1942.29 6.29297H1989.6V2.29297H1942.29V6.29297ZM1987.65 3.87754L1935.68 248.585L1939.6 249.415L1991.56 4.7084L1987.65 3.87754ZM2075.6 46.4609V48.4609H2077.22L2077.56 46.8775L2075.6 46.4609ZM2027.62 46.4609L2025.66 46.0444L2025.15 48.4609H2027.62V46.4609ZM2036.92 2.79883V0.798828H2035.3L2034.96 2.38231L2036.92 2.79883ZM2084.9 2.79883L2086.85 3.21535L2087.37 0.798828H2084.9V2.79883ZM2022.97 68.043V66.043H2021.35L2021.02 67.6283L2022.97 68.043ZM2070.95 68.043L2072.91 68.4576L2073.42 66.043H2070.95V68.043ZM2032.6 249V251H2034.22L2034.56 249.415L2032.6 249ZM1984.62 249L1982.67 248.585L1982.15 251H1984.62V249ZM2075.6 44.4609H2027.62V48.4609H2075.6V44.4609ZM2029.58 46.8775L2038.87 3.21535L2034.96 2.38231L2025.66 46.0444L2029.58 46.8775ZM2036.92 4.79883H2084.9V0.798828H2036.92V4.79883ZM2082.94 2.38231L2073.64 46.0444L2077.56 46.8775L2086.85 3.21535L2082.94 2.38231ZM2022.97 70.043H2070.95V66.043H2022.97V70.043ZM2068.99 67.6283L2030.65 248.585L2034.56 249.415L2072.91 68.4576L2068.99 67.6283ZM2032.6 247H1984.62V251H2032.6V247ZM1986.58 249.415L2024.93 68.4576L2021.02 67.6283L1982.67 248.585L1986.58 249.415ZM2211.23 132.955L2209.24 132.792L2209.06 134.955H2211.23V132.955ZM2208.25 114.693L2210.06 113.844L2210.04 113.81L2210.02 113.777L2208.25 114.693ZM2148.15 127.477L2146.42 126.473L2146.42 126.474L2148.15 127.477ZM2136.36 161.012L2134.41 160.593L2134.4 160.604L2136.36 161.012ZM2134.2 193.053L2136.18 192.733L2136.18 192.728L2134.2 193.053ZM2186.66 206.666L2185.25 205.252L2185.24 205.258L2185.24 205.265L2186.66 206.666ZM2200.11 183.424V181.424H2198.64L2198.2 182.825L2200.11 183.424ZM2248.42 183.424L2250.35 183.971L2251.07 181.424H2248.42V183.424ZM2224.18 224.264L2222.73 222.894L2222.72 222.901L2224.18 224.264ZM2092.87 229.41L2091.13 230.41L2091.14 230.418L2092.87 229.41ZM2086.72 162.174L2088.68 162.59L2088.68 162.585L2086.72 162.174ZM2124.74 89.625L2123.39 88.1475L2123.39 88.1514L2124.74 89.625ZM2245.6 79L2246.88 77.4602L2245.6 79ZM2259.71 132.955V134.955H2261.5L2261.7 133.177L2259.71 132.955ZM2213.23 133.118C2213.81 126.066 2212.77 119.622 2210.06 113.844L2206.44 115.543C2208.81 120.611 2209.77 126.342 2209.24 132.792L2213.23 133.118ZM2210.02 113.777C2205.8 105.569 2197.45 101.736 2185.83 101.736V105.736C2196.58 105.736 2203.17 109.208 2206.47 115.609L2210.02 113.777ZM2185.83 101.736C2169.07 101.736 2155.9 110.138 2146.42 126.473L2149.88 128.481C2158.77 113.161 2170.73 105.736 2185.83 105.736V101.736ZM2146.42 126.474C2141.41 135.131 2137.42 146.529 2134.41 160.593L2138.32 161.431C2141.28 147.604 2145.15 136.645 2149.88 128.479L2146.42 126.474ZM2134.4 160.604C2131.61 173.989 2130.84 184.947 2132.23 193.377L2136.18 192.728C2134.91 185 2135.57 174.597 2138.32 161.42L2134.4 160.604ZM2132.23 193.372C2133.5 201.229 2136.53 207.368 2141.51 211.522C2146.49 215.671 2153.15 217.631 2161.26 217.631V213.631C2153.77 213.631 2148.12 211.827 2144.08 208.451C2140.03 205.079 2137.34 199.928 2136.18 192.733L2132.23 193.372ZM2161.26 217.631C2172.69 217.631 2181.74 214.538 2188.09 208.067L2185.24 205.265C2179.86 210.747 2171.97 213.631 2161.26 213.631V217.631ZM2188.08 208.08C2194.32 201.838 2198.95 193.793 2202.02 184.023L2198.2 182.825C2195.29 192.091 2190.96 199.541 2185.25 205.252L2188.08 208.08ZM2200.11 185.424H2248.42V181.424H2200.11V185.424ZM2246.5 182.876C2242.5 196.907 2234.61 210.247 2222.73 222.894L2225.64 225.633C2237.88 212.603 2246.15 198.717 2250.35 183.971L2246.5 182.876ZM2222.72 222.901C2203.85 243.178 2180.21 253.309 2151.63 253.309V257.309C2181.28 257.309 2206 246.743 2225.65 225.626L2222.72 222.901ZM2151.63 253.309C2122.88 253.309 2104.16 244.798 2094.59 228.402L2091.14 230.418C2101.72 248.554 2122.17 257.309 2151.63 257.309V253.309ZM2094.6 228.411C2084.97 211.722 2082.87 189.864 2088.68 162.59L2084.77 161.757C2078.84 189.6 2080.84 212.567 2091.13 230.41L2094.6 228.411ZM2088.68 162.585C2095.15 131.792 2107.65 108.019 2126.09 91.0986L2123.39 88.1514C2104.2 105.762 2091.36 130.355 2084.77 161.763L2088.68 162.585ZM2126.09 91.1025C2144.63 74.188 2166.94 65.7266 2193.14 65.7266V61.7266C2165.99 61.7266 2142.7 70.5308 2123.39 88.1475L2126.09 91.1025ZM2193.14 65.7266C2215.55 65.7266 2232.52 70.7585 2244.32 80.5398L2246.88 77.4602C2234.11 66.8769 2216.1 61.7266 2193.14 61.7266V65.7266ZM2244.32 80.5398C2255.83 90.0747 2260.57 107.185 2257.72 132.733L2261.7 133.177C2264.6 107.15 2259.94 88.2899 2246.88 77.4602L2244.32 80.5398ZM2259.71 130.955H2211.23V134.955H2259.71V130.955ZM2267.68 283.697L2267.79 281.7L2266.08 281.605L2265.72 283.285L2267.68 283.697ZM2273.66 284.029L2273.55 286.026L2273.56 286.027L2273.66 284.029ZM2298.39 279.713L2297.38 277.987L2297.37 277.993L2297.36 277.998L2298.39 279.713ZM2313.83 256.969L2311.85 257.244L2311.85 257.271L2311.86 257.298L2313.83 256.969ZM2287.6 68.043V66.043H2285.3L2285.62 68.318L2287.6 68.043ZM2340.23 68.043L2342.22 67.8769L2342.07 66.043H2340.23V68.043ZM2351.35 201.52L2349.36 201.686L2349.96 208.876L2353.15 202.403L2351.35 201.52ZM2417.09 68.043V66.043H2415.85L2415.3 67.1593L2417.09 68.043ZM2467.4 68.043L2469.14 69.0223L2470.81 66.043H2467.4V68.043ZM2367.46 246.012L2365.71 245.032L2365.71 245.033L2367.46 246.012ZM2325.45 309.762L2324.09 308.302L2324.08 308.311L2324.07 308.32L2325.45 309.762ZM2271 322.047L2271.09 320.049L2271.04 320.047H2271V322.047ZM2259.71 321.549L2257.75 321.137L2257.28 323.391L2259.58 323.544L2259.71 321.549ZM2267.57 285.694L2273.55 286.026L2273.77 282.032L2267.79 281.7L2267.57 285.694ZM2273.56 286.027C2278.21 286.254 2282.75 286.084 2287.19 285.515L2286.68 281.547C2282.49 282.085 2278.18 282.248 2273.75 282.032L2273.56 286.027ZM2287.19 285.515C2291.75 284.931 2295.84 283.579 2299.42 281.428L2297.36 277.998C2294.31 279.831 2290.76 281.025 2286.68 281.547L2287.19 285.515ZM2299.4 281.438C2303.05 279.3 2306.69 275.019 2310.39 268.969L2306.98 266.883C2303.37 272.785 2300.15 276.363 2297.38 277.987L2299.4 281.438ZM2310.39 268.969C2312.23 265.956 2313.62 263.477 2314.52 261.554C2314.97 260.595 2315.32 259.729 2315.55 258.975C2315.76 258.284 2315.94 257.441 2315.8 256.64L2311.86 257.298C2311.84 257.161 2311.89 257.273 2311.72 257.826C2311.57 258.318 2311.31 258.987 2310.9 259.854C2310.09 261.583 2308.79 263.919 2306.98 266.883L2310.39 268.969ZM2315.81 256.694L2289.58 67.7679L2285.62 68.318L2311.85 257.244L2315.81 256.694ZM2287.6 70.043H2340.23V66.043H2287.6V70.043ZM2338.24 68.2091L2349.36 201.686L2353.34 201.353L2342.22 67.8769L2338.24 68.2091ZM2353.15 202.403L2418.89 68.9267L2415.3 67.1593L2349.56 200.636L2353.15 202.403ZM2417.09 70.043H2467.4V66.043H2417.09V70.043ZM2465.65 67.0637L2365.71 245.032L2369.2 246.991L2469.14 69.0223L2465.65 67.0637ZM2365.71 245.033C2356.09 262.166 2347.81 276.011 2340.84 286.581C2333.85 297.188 2328.27 304.378 2324.09 308.302L2326.82 311.221C2331.38 306.955 2337.17 299.426 2344.18 288.782C2351.22 278.102 2359.56 264.167 2369.2 246.991L2365.71 245.033ZM2324.07 308.32C2316 316.075 2301.88 320.213 2281.13 320.213V324.213C2302.21 324.213 2317.64 320.05 2326.84 311.203L2324.07 308.32ZM2281.13 320.213C2276.93 320.213 2273.59 320.158 2271.09 320.049L2270.91 324.045C2273.5 324.157 2276.91 324.213 2281.13 324.213V320.213ZM2271 320.047C2268.52 320.047 2264.81 319.885 2259.84 319.553L2259.58 323.544C2264.57 323.877 2268.39 324.047 2271 324.047V320.047ZM2261.67 321.961L2269.64 284.109L2265.72 283.285L2257.75 321.137L2261.67 321.961Z" fill="black"/>
</svg>
